<?xml version="1.0" encoding="utf-8"?>
<!-- Generator: Adobe Illustrator 26.0.3, SVG Export Plug-In . SVG Version: 6.00 Build 0)  -->
<svg version="1.0" id="Capa_1" xmlns="http://www.w3.org/2000/svg" xmlns:xlink="http://www.w3.org/1999/xlink" x="0px" y="0px"
	 viewBox="0 0 1034.98 1564.56" style="enable-background:new 0 0 1034.98 1564.56;" xml:space="preserve">
<style type="text/css">
	.st0{fill:#FFFFFF;}
</style>
<g>
	<path class="st0" d="M423.49,810.58c0,6.88,5.6,12.48,12.48,12.48c6.88,0,12.48-5.6,12.48-12.48c0-6.88-5.6-12.48-12.48-12.48
		C429.09,798.11,423.49,803.7,423.49,810.58z M435.96,821.81c-6.19,0-11.23-5.04-11.23-11.23s5.04-11.23,11.23-11.23
		s11.23,5.04,11.23,11.23S442.15,821.81,435.96,821.81z"/>
	<path class="st0" d="M475.32,870.65l-0.1-0.08c-12.96-9.45-23.37-20.19-31.82-32.81c-0.53-0.84-1.29-1.35-2.21-1.46l-0.09-0.01
		l-0.36,0.08c-1.72,0.39-2.86,0.65-4.77,0.65c-5.29,0-10.39-1.55-14.82-4.54l-0.34-0.14l-0.27,0.17
		c-20.53,12.58-37.1,28-50.67,47.15l-0.11,0.26c-0.23,1.42-0.05,2.52,0.53,3.27c0.51,0.65,1.32,1.03,2.44,1.11h99.15l0.2-0.02
		l0.13-0.1c4.65-3.45,5.72-7.95,3.19-13.39L475.32,870.65z M372.78,883.05c-0.71-0.05-1.21-0.27-1.5-0.63
		c-0.34-0.44-0.45-1.18-0.3-2.16c13.37-18.84,29.69-34.05,49.87-46.48c4.5,2.94,9.72,4.49,15.11,4.49c2.04,0,3.24-0.27,5.04-0.68
		l0.14-0.03c0.49,0.09,0.87,0.37,1.2,0.89c8.51,12.72,18.98,23.53,32,33.04c2.15,4.74,1.26,8.52-2.72,11.56L372.78,883.05z"/>
	<path class="st0" d="M434.89,782.33l2.15,1.74l0.17,0.1l0.16,0.01c4.78,0.25,9.41,1.8,13.46,4.52l0.13,0.05
		c0.01,0,0.24,0.05,0.58,0.05c0.33,0,0.83-0.05,1.32-0.28c14.89-7.05,32.92-22.26,49.45-41.74c15.61-18.4,27.67-37.95,32.27-52.33
		l0.03-0.14l-0.02-0.11c-0.37-2.43-1.75-3.07-2.9-3.18l-130.96,0.17c-0.74,0-1.4,0.39-1.75,1.04c-0.35,0.65-0.32,1.41,0.08,2.04
		c13.94,21.42,29.09,48.6,35.79,87.87L434.89,782.33z M400.07,692.89l0.66,0.97c18.27,26.6,30.31,55.75,35.82,86.74l0.17,0.4
		l0.39,0.02c4.75,0.28,9.26,1.64,14.21,4.3l0.38,0.13l0.25-0.15c37.96-23.79,63.91-53.73,79.34-91.55l0.35-0.86H400.08
		c0.01-0.02,0-0.03,0.01-0.05c0.13-0.25,0.37-0.39,0.65-0.39l130.9-0.18c0.64,0.06,1.41,0.35,1.7,1.98
		c-4.57,14.19-16.52,33.51-31.98,51.73c-16.42,19.35-34.3,34.45-49.03,41.42c-0.38,0.18-0.81,0.17-1.01,0.15
		c-4.07-2.72-8.79-4.3-13.68-4.6l-1.6-1.29c-2.93-17.08-7.62-32.95-14.33-48.51c-5.54-12.85-12.4-25.42-21.6-39.56
		C399.98,693.37,399.97,693.12,400.07,692.89z M402.44,694.13h127.35c-15.33,37.05-40.92,66.48-78.19,89.91
		c-4.82-2.54-9.26-3.89-13.91-4.24C432.19,749.29,420.34,720.48,402.44,694.13z"/>
	<path class="st0" d="M882.82,788.72l-41.85-69.91v-0.16h-0.1l-23.32-38.95c-0.53-1.19-1.2-2.32-2-3.34l-15.76-26.32v-0.35h-0.21
		l-22.01-36.76l-0.72-1.36c-0.41-1.12-0.97-2.17-1.65-3.12l-5.25-9.9l-5.69-10.18l-13.69-30.89l0.08-0.04l-0.5-1.15l-0.09,0.04
		l-22.76-51.33l-11.95-43.45l0.06-0.02l-0.33-1.21l-0.06,0.02l-16.66-60.58l0.04-0.01l-0.32-1.21l-0.05,0.01l-3.1-11.28l0.13-0.03
		l-0.33-1.21l-0.12,0.03l-13.23-48.1l0.19-0.05l-0.33-1.21l-0.19,0.05l-3.09-11.24l0.03-0.01l-0.33-1.21l-0.03,0.01l-3.5-12.73
		l3.5-3.33l29.23,0.97l0.04,0.04l0.05-0.04l28.1,0.93l0.33,0.38l0.41-0.35l3.03,0.1l0.04,0.05l0.05-0.05l55.45,1.84l0.25,0.3
		l0.34-0.28l16.96,0.56l0.11,0.13l0.14-0.12l15.55,0.52c0.98,0.24,2.01,0.39,3.06,0.39c0.77,0,1.52-0.08,2.25-0.21l22.58,0.75
		l0.15,0.01l90.99-53.97l-55.12-61.81l0.22-0.19l-0.81-0.95l-0.24,0.21l-27.96-31.35l-0.09-0.4l-0.22,0.05l-2.16-2.42l-0.1-0.42
		l-0.23,0.05l-14.19-15.91l0,0l-21.73-24.36l0,0l-9.75-10.93l-6.69-8.54l-26.73-32.77l0.04-0.03l-0.82-0.94l-0.01,0.01L732.53,11.1
		l-27.21,41.57l-23.53,36.02l-29.6,73.36l-34.29,63.19l-17.07,34.79l-5.49,10.51l-0.68,0.59l0.23,0.27l-12.51,23.97l-0.3,0.25
		l0.1,0.12l-6.45,12.36l-37.66,1.16v-0.05h-1.25v0.09l-36.46,1.13c-0.23-0.01-0.45-0.03-0.69-0.03c-0.52,0-1.04,0.04-1.55,0.1
		l-30.83,0.95l-0.46,0.01l-17.59,37.1l-4.34,10.41l-82.8,256.38l-4.45,10.24l-8.81,17.51l-20.15,34.53
		c-0.35,0.5-0.65,1.03-0.92,1.58l-49.42,84.7L231,855.24l0,0l-0.14,0.27h-0.5v0.97l-27.78,53.58l-3.72,12.56l-21.38,103.99
		c-0.42,1.15-0.68,2.38-0.75,3.66l-14.83,72.14l-0.02,0.09l2.36,15.4l13.45,96.27l-0.08,0l0,1.25l0.25,0l1.68,12v1.08h0.15
		l3.41,24.44l-0.02,0l0,1.25l0.19,0l13.95,99.86l0.32,111.75l0,0.7l51.05,3.16l19.12,2.27l19.78,2.38l0,0.01l1.24,0.15l0,0
		l28.03,3.37l0,0.04l1.24,0.14l0-0.02l66.29,7.97l58.98,9.92l-0.02,0.11l1.23,0.21l0.02-0.11l24.04,4.04l-0.05,0.3l1.23,0.21
		l0.05-0.31l11.49,1.93l-0.08,0.49l1.23,0.21l0.08-0.49l62,10.43l0,0.03l1.23,0.21l0-0.03l32.05,5.39l0.86,0.14l1.26-116.5h0.5
		v-1.25h-0.48l1.36-125.74l0-0.36l-5.91-4.8l-4.37-6.81l-83.94,0.45l-8.53-0.84l-3.59-1.62l-3.76-4.78l-2.24-5.72l-8.43-48.58
		l-14.23-54.65l18.89-47.36l15.33-60.21l13.24-42.86h0.02v-0.06l9.99-32.33c0.53-1.11,0.9-2.31,1.1-3.57l18.95-61.34h0.08v-0.25
		l3.44-11.14l15.27-59.67h0.43v-0.22l68.47,5.81l17.3,0.98l10.05,0.52l152.55-4.99h0.33v-0.01l18.99-0.62l6.54-0.62h0.08v-0.01
		l24.17-2.3v0.4h1.25v-0.52l0.59-0.06l20.66-4.04l33.33-9.95l-13.64-22.78C883.45,789.69,883.15,789.19,882.82,788.72z
		 M481.8,1030.61c-0.1-6.92-5.76-12.52-12.7-12.52c-1.13,0-2.24,0.15-3.31,0.44l0.02-21.56l26.39,0L481.8,1030.61z M583.25,296.97
		l15.74,18.48c-1.44,3.88-2.07,8.07-1.81,12.35l-7.73,7.76h-12.6v-26.3L583.25,296.97z M490.27,924.09h-11.73v-24.42h11.73V924.09z
		 M477.29,924.09h-11.45v-24.42h11.45V924.09z M464.59,924.09h-11.53v-24.42h11.53V924.09z M451.81,924.09h-11.44v-24.42h11.44
		V924.09z M439.12,924.09h-11.53v-24.42h11.53V924.09z M426.34,924.09h-11.73v-24.42h11.73V924.09z M413.36,924.09h-11.45v-24.42
		h11.45V924.09z M400.66,924.09h-11.53v-24.42h11.53V924.09z M387.88,924.09h-11.86l0.31-24.42h11.54V924.09z M374.77,924.09H351.9
		c2.88-8.32,6.49-16.48,10.8-24.42h12.38L374.77,924.09z M362.2,925.34l-0.03,24.31l-16.77-0.01c1.35-8.21,3.39-16.33,6.07-24.3
		H362.2z M363.45,925.34h11.3l-0.31,24.32l-11.02-0.01L363.45,925.34z M376,925.34h11.88v24.33l-12.19-0.01L376,925.34z
		 M389.13,925.34h11.53v24.34l-11.53-0.01V925.34z M401.91,925.34h11.45v24.36l-11.45-0.01V925.34z M414.61,925.34h11.73v24.37
		l-11.73-0.01V925.34z M427.59,925.34h11.53v24.38l-11.53-0.01V925.34z M440.37,925.34h11.44v24.39l-11.44-0.01V925.34z
		 M453.06,925.34h11.53v24.4l-11.53-0.01V925.34z M465.84,925.34h11.45v24.41l-11.45-0.01V925.34z M478.54,925.34h11.73v20.71
		c-2.48,0.42-4.79,1.57-6.64,3.37l-0.89,0.33l-4.2,0V925.34z M491.52,924.09v-24.42h11.53v24.42H491.52z M492.34,945.87
		c-0.28,0-0.55,0.02-0.83,0.04v-20.57h22.81l-9.54,30.89C503.57,950.32,498.46,945.87,492.34,945.87z M503.05,898.03v0.38h-11.53
		v-0.29h-1.25v0.29h-49.9v-0.38h-1.25v0.38h-11.53v-0.29h-1.25v0.29h-64.08l-0.33,0.07l-0.14,0.26c-4.49,8.24-8.23,16.71-11.2,25.35
		h-0.07v0.22c-2.9,8.47-5.06,17.11-6.45,25.86l-0.11,0.72L482.85,951l1.33-0.46l0.22-0.14c2.14-2.12,4.96-3.28,7.94-3.28
		c6.32,0,11.46,5.29,11.46,11.79c0,0.19-0.02,0.38-0.03,0.58l-1.77,5.74c-2.04,3.28-5.6,5.47-9.66,5.47c-2.89,0-5.65-1.11-7.77-3.12
		l-1.12-0.65H341.99l-0.02,0.61c-0.29,10.47-0.35,19.77-0.21,28.18h-0.11v1.25h0.14c0.2,9.53,0.68,17.89,1.46,25.43l0.06,0.56
		h117.15l0.99-0.68c2.1-1.89,4.82-2.93,7.65-2.93c6.32,0,11.46,5.14,11.46,11.46c0,6.32-5.14,11.46-11.46,11.46
		c-2.91,0-5.69-1.09-7.85-3.11l-0.13-0.13l-116.26-0.04l5.36,34.6l0.11,0.3l0.26,0.11c7.61,3.23,12.91,8.97,15.78,17.13l0.12,0.33
		h76.66l0.87-0.56c2.11-1.93,4.85-2.99,7.72-2.99c6.32,0,11.46,5.14,11.46,11.46c0,0.73-0.08,1.45-0.21,2.15l-1.76,4.41
		c-2.08,3.19-5.6,5.34-9.5,5.34c-2.78,0-5.49-1.09-7.66-3.12l-0.9-0.64h-15.85v-0.1h-1.25v0.1h-11.25v-0.1h-1.25v0.1h-24.36v-0.03
		h-1.25v0.03h-21.13l-0.39,0.09l-0.11,0.35c-1.07,3.36-2.83,6.52-5.28,9.45l-0.17,0.21l13.27,42.03l0.11,0.35l13.71-0.09v0.01h1.25
		v-0.02l24.36-0.15v0.03h1.25v-0.04l11.25-0.07v0.11h1.25v-0.12l1.97-0.01l0.89-0.16l0.18-0.05l0.11-0.11
		c2.14-2.12,4.95-3.29,7.92-3.29c4.61,0,8.58,2.84,10.4,6.91l1.01,3.88c0.03,0.36,0.05,0.72,0.05,1.09
		c0,6.55-5.14,11.88-11.46,11.88c-3,0-5.85-1.2-8.02-3.39l-0.09-0.09l-0.93-0.26l-50.79-0.02l0.18,0.77
		c9.86,41.83,14.68,78.85,14.76,113.18v0.62h165.51l0.91-0.31l0.21-0.13c2.03-1.95,4.66-3.06,7.45-3.17h0.83v0
		c6.11,0.2,11.02,5.22,11.13,11.42l-0.01,0.52c-0.17,6.27-5.25,11.33-11.49,11.33c-2.86,0-5.6-1.07-7.72-3.01l-1.14-0.59
		l-165.72-0.01l0,0.62c-0.07,15.95-1.3,33.16-3.64,51.14l-0.09,0.71l49.85-0.08l0,0.07l1.25-0.01l0-0.06l36.71-0.06v0.01h1.25v-0.01
		l24.36-0.04v0.05h1.25v-0.06l11.32-0.02l0,0.07h1.25l0-0.07l11.56-0.02l0,0.09h1.25l0-0.1l11.82-0.02v0.17h1.25v-0.17l11.32-0.02
		l0,0.19h1.25l0-0.19l3.18-0.01h0.91l0.38-0.54c2.08-1.76,4.73-2.73,7.46-2.73c5.92,0,10.81,4.48,11.47,10.22l-0.03,2.85
		c-0.75,5.65-5.59,10.02-11.44,10.02c-2.84,0-5.57-1.04-7.69-2.93l-0.68-0.6H387.47l-0.08,0.53c-2.7,17.22-6.37,34.43-10.9,51.16
		l-0.22,0.79l24.6-0.04l0,0.03l1.25-0.01l0-0.03l11.75-0.02l0,0.05l1.25-0.01l0-0.05l11.24-0.02l0,0.07h1.25l0-0.07l11.97-0.02
		l0,0.2l1.25-0.01l0-0.19l23.91-0.04v0.13h1.25v-0.13l11.56-0.02v0.15h1.25v-0.15l24.36-0.04v0.18h1.25v-0.19l11.32-0.02l0,0.2h1.25
		l0-0.2l11.56-0.02l0,0.22h1.25l0-0.22l11.82-0.02v0.29h1.25v-0.3l11.32-0.02l0,0.31h1.25l0-0.31l11.69-0.02l0,0.16h1.25l0-0.16
		l9.79-0.01l-0.01,0.98l-206.6-0.23l13.9-53.59h173.51c4.16,3.4,9.22,4.35,13.24,2.47c3.83-1.79,6.03-5.92,6.03-11.34l-0.01-0.1
		c-0.89-4.19-3.86-7.4-7.95-8.56c-4.08-1.17-8.41-0.08-11.34,2.84H386.87l5.04-53.82h167.72c3.66,3.22,8.43,4.21,12.48,2.57
		c3.89-1.57,6.38-5.27,6.68-10c-0.88-6.84-5.03-9.19-7.43-9.99c-3.99-1.32-8.79-0.2-11.75,2.72H391.75
		c-1.29-45.77-6.35-83.93-15.46-116.63l54.03,0.47c2.29,3.15,5.64,4.37,10.28,3.73l0.1-0.03c5.32-2.28,8-5.92,7.96-10.85
		c-0.49-5.77-3.47-9.32-8.85-10.57c-3.46-0.8-6.73,0.27-10.01,3.27h-54.69c-1.57,0-2.95-1.01-3.42-2.5l-12.97-41.06
		c2.61-2.7,4.6-6.14,5.92-10.25l78.59-0.47c3.04,3.34,6.73,4.69,11.34,4.1l0.11-0.04c4.4-1.99,6.92-5.65,7.48-10.93
		c0-5.46-2.63-9.08-7.83-10.76c-4.67-1.2-7.9-0.21-11.13,3.41h-78.57c-3.07-9.21-8.49-14.72-16.57-16.84l-5.09-34.54
		c-0.09-0.61,0.09-1.23,0.49-1.7c0.4-0.47,0.99-0.74,1.61-0.74h115.75c3.88,3.08,8.8,4.03,12.58,2.39c3.53-1.52,5.66-4.97,6-9.73
		c0.16-6.24-3.59-8.71-5.84-9.63c-4.24-1.73-9.8-0.73-12.79,2.26l-117.42-0.5c-1.63-0.01-2.96-1.33-2.98-2.96l-0.54-53.67
		l143.63-0.23c4.48,3.45,9.18,4.5,12.91,2.87c3.55-1.55,5.75-5.27,6.18-10.56c-0.55-4.99-3.14-8.64-7.1-10
		c-3.87-1.33-8.39-0.15-11.57,2.99l-140.12,0.11c-0.37,0-0.72-0.17-0.96-0.45c-0.24-0.29-0.35-0.67-0.28-1.04
		c3.55-19.99,7.78-36.3,16.9-50.9c0.4-0.64,1.12-1.04,1.89-1.04l161.58-0.65l-0.25,0.82H504.3v-0.38H503.05z M447.8,1159.09
		c-2.33-2.64-5.67-4.32-9.4-4.32c-3.23,0-6.3,1.25-8.66,3.52l-0.56,0.1l-1.86,0.01v-24.04h22.56l-5.1,12.79l-0.06,0.15
		L447.8,1159.09z M554.14,1400.86h-11.28v-24.48h11.25L554.14,1400.86z M541.6,1400.86h-11.84l-0.01-24.48h11.85V1400.86z
		 M528.51,1400.86h-11.57l-0.03-24.48h11.59L528.51,1400.86z M515.69,1400.86h-11.28v-24.48h11.25L515.69,1400.86z M503.16,1400.86
		h-11.43v-24.48h11.43V1400.86z M490.48,1400.86h-11.69v-24.48h11.69V1400.86z M477.54,1400.86h-11.56v-24.48h11.56V1400.86z
		 M464.74,1400.86h-11.54l-0.08-24.48h11.62V1400.86z M451.94,1400.86h-11.35l-0.22-24.48h11.49L451.94,1400.86z M439.34,1400.86
		h-11.77l-0.03-24.48h11.58L439.34,1400.86z M426.32,1400.86h-11.37l-0.15-24.48h11.49L426.32,1400.86z M413.71,1400.86h-11.75
		l-0.15-24.48h11.75L413.71,1400.86z M400.71,1400.86h-16.69c1.72-8.12,3.23-16.3,4.53-24.48h12.02L400.71,1400.86z M400.72,1402.11
		l0.15,24.21l-22.96,0.03c2.15-7.99,4.1-16.09,5.84-24.24H400.72z M401.97,1402.11h11.75l0.15,24.19l-11.75,0.02L401.97,1402.11z
		 M414.96,1402.11h11.36l0.03,24.17l-11.24,0.02L414.96,1402.11z M427.58,1402.11h11.78l0.21,24.15l-11.96,0.02L427.58,1402.11z
		 M440.61,1402.11h11.34l0.07,24.13l-11.2,0.02L440.61,1402.11z M453.2,1402.11h11.54v24.11l-11.47,0.02L453.2,1402.11z
		 M465.99,1402.11h11.56v24.09l-11.56,0.02V1402.11z M478.79,1402.11h11.69v24.07l-11.69,0.02V1402.11z M491.73,1402.11h11.43v24.05
		l-11.43,0.02V1402.11z M504.41,1402.11h11.29l0.03,24.03l-11.32,0.02V1402.11z M516.94,1402.11h11.57l0.01,24.01l-11.56,0.02
		L516.94,1402.11z M529.76,1402.11h11.84v23.99l-11.83,0.02L529.76,1402.11z M542.85,1402.11h11.28l0.03,23.98l-11.32,0.02V1402.11z
		 M555.39,1402.11h11.71l0.01,23.96l-11.69,0.02L555.39,1402.11z M555.39,1400.86l-0.03-24.48h3.15l0.33,0.29
		c2.28,2.03,5.2,3.17,8.25,3.23l0.01,20.96H555.39z M400.71,1201.71l-15.31,0.02c-1.56-7.98-3.31-16.13-5.26-24.48h20.57V1201.71z
		 M401.96,1177.26h11.54v24.44l-11.54,0.02V1177.26z M414.75,1177.26h11.58v24.42l-11.58,0.02V1177.26z M427.58,1177.26h1.52
		l0.53,0.15c2.37,2.34,5.48,3.62,8.77,3.62c0.24,0,0.48-0.02,0.72-0.04v20.67l-11.54,0.02V1177.26z M464.65,1289.33h-11.38v-24.53
		l11.38-0.01V1289.33z M452.03,1289.33h-11.54v-24.52l11.54-0.01V1289.33z M439.24,1289.33h-11.58v-24.51l11.58-0.01V1289.33z
		 M426.41,1289.33h-11.54v-24.49l11.54-0.01V1289.33z M413.62,1289.33h-18.87c-0.03-8-0.33-16.15-0.87-24.47l19.74-0.02V1289.33z
		 M465.9,1264.78l11.54-0.01v24.56H465.9V1264.78z M555.39,1332.23l-0.03-24.36h3.51l0.68,0.34c2.1,1.89,4.74,3.02,7.53,3.23
		l0.01,20.79H555.39z M554.14,1332.23h-11.28v-24.36h11.25L554.14,1332.23z M541.6,1332.23h-11.84l-0.01-24.36h11.85V1332.23z
		 M528.51,1332.23h-11.57l-0.03-24.36h11.59L528.51,1332.23z M515.69,1332.23h-11.28v-24.36h11.25L515.69,1332.23z M503.16,1332.23
		h-11.43v-24.36h11.43V1332.23z M490.48,1332.23h-11.69v-24.36h11.69V1332.23z M477.54,1332.23h-11.56v-24.36h11.56V1332.23z
		 M464.74,1332.23h-11.54l-0.08-24.36h11.62V1332.23z M451.94,1332.23h-11.35l-0.21-24.36h11.49L451.94,1332.23z M439.34,1332.23
		h-11.77l-0.03-24.36h11.58L439.34,1332.23z M426.32,1332.23h-11.37l-0.15-24.36h11.49L426.32,1332.23z M413.71,1332.23h-19.97
		c0.6-8.38,0.93-16.52,0.98-24.36h18.85L413.71,1332.23z M413.71,1333.48l0.15,24.32l-22.71,0.04c1.07-8.3,1.89-16.44,2.48-24.36
		H413.71z M414.96,1333.48h11.36l0.03,24.3l-11.24,0.02L414.96,1333.48z M427.58,1333.48h11.78l0.21,24.28l-11.96,0.02
		L427.58,1333.48z M440.61,1333.48h11.34l0.07,24.26l-11.2,0.02L440.61,1333.48z M453.2,1333.48h11.54v24.24l-11.47,0.02
		L453.2,1333.48z M465.99,1333.48h11.56v24.22l-11.56,0.02V1333.48z M478.79,1333.48h11.69v24.2l-11.69,0.02V1333.48z
		 M491.73,1333.48h11.43v24.18l-11.43,0.02V1333.48z M504.41,1333.48h11.29l0.03,24.16l-11.32,0.02V1333.48z M516.94,1333.48h11.57
		l0.01,24.14l-11.56,0.02L516.94,1333.48z M529.76,1333.48h11.84v24.12l-11.83,0.02L529.76,1333.48z M542.85,1333.48h11.28
		l0.03,24.1l-11.32,0.02V1333.48z M555.39,1333.48h11.71l0.01,20.84c-2.97,0.06-5.83,1.14-8.1,3.08l-0.14,0.17l-3.45,0.01
		L555.39,1333.48z M568.36,1354.36l-0.01-20.88h10.82l-0.3,28.07C576.93,1357.57,572.99,1354.73,568.36,1354.36z M568.35,1332.23
		l-0.01-20.76c4.89-0.11,9.1-3.01,11.15-7.2l-0.3,27.96H568.35z M567.16,1285.74c-2.91,0.2-5.66,1.39-7.81,3.42l-0.46,0.18h-3.3
		v-24.6l11.56-0.06V1285.74z M554.35,1289.33h-11.54v-24.53l11.54-0.06V1289.33z M541.57,1289.33h-11.58v-24.46l11.58-0.06V1289.33z
		 M528.73,1289.33H517.2v-24.4l11.54-0.06V1289.33z M515.95,1289.33h-11.63V1265l11.63-0.06V1289.33z M503.06,1289.33h-11.54v-24.26
		l11.54-0.06V1289.33z M440.37,1201.66v-20.8c5.19-0.84,9.34-4.92,10.45-10.17l8.06,30.95L440.37,1201.66z M426.08,1133.11h-11.25
		v-24.36h11.25V1133.11z M413.58,1133.11h-11.43v-24.36h11.43V1133.11z M400.9,1133.11h-11.69v-24.36h11.69V1133.11z
		 M387.97,1133.11h-11.61v-24.36h11.61V1133.11z M375.1,1133.11h-8.01l-4.81-15.24c2.3-2.81,4.01-5.87,5.11-9.12h7.72V1133.11z
		 M387.97,1134.36v24.28l-12.79,0.08l-7.69-24.36H387.97z M389.22,1134.36h11.69v24.2l-11.69,0.07V1134.36z M402.15,1134.36h11.43
		v24.13l-11.43,0.07V1134.36z M414.83,1134.36h11.25v24.05l-11.25,0.07V1134.36z M427.33,1108.75h11.9v24.36h-11.9V1108.75z
		 M440.48,1133.11v-24.36h2.3l0.51,0.36c2.35,2.2,5.35,3.41,8.45,3.41c3.05,0,5.89-1.19,8.11-3.12l-9.46,23.72H440.48z
		 M439.09,1064.84h-11.37v-24.6h11.42L439.09,1064.84z M426.47,1064.84h-11.74l0.05-24.6h11.69V1064.84z M413.48,1064.84h-11.56
		l0.05-24.6h11.56L413.48,1064.84z M400.67,1064.84h-11.54l-0.03-24.6h11.62L400.67,1064.84z M387.88,1064.84h-11.63v-24.6h11.6
		L387.88,1064.84z M375.01,1064.84h-11.56v-24.6h11.56V1064.84z M362.2,1064.84h-12.07l-3.81-24.6h15.88V1064.84z M375.01,1066.09
		v24.12h-7.64c-2.96-8.09-8.33-13.88-15.97-17.22l-1.07-6.9H375.01z M376.26,1066.09h11.63l0.03,24.12h-11.66V1066.09z
		 M389.13,1066.09h11.54l-0.05,24.12h-11.46L389.13,1066.09z M401.92,1066.09h11.56l-0.05,24.12h-11.56L401.92,1066.09z
		 M414.73,1066.09h11.74v24.12h-11.79L414.73,1066.09z M427.72,1066.09h11.37l-0.05,24.12h-11.32V1066.09z M440.34,1064.84
		l0.05-24.6h11.26l0.1,24.6H440.34z M443.27,1089.91l-0.48,0.3h-2.5l0.05-24.12h11.42l0.09,20.58c-0.03,0-0.07-0.01-0.1-0.01
		C448.57,1086.66,445.53,1087.83,443.27,1089.91z M343.21,968.17h18.99v27.54l-19.18,0C342.87,987.48,342.94,978.39,343.21,968.17z
		 M451.82,995.72l-11.54,0l0.01-27.54h11.56L451.82,995.72z M439.03,995.72l-11.74,0v-27.54h11.75L439.03,995.72z M426.04,995.72
		l-11.45,0v-27.54h11.45V995.72z M413.34,995.72l-11.53,0v-27.54h11.53V995.72z M400.56,995.71l-11.57,0l0.07-27.54h11.5V995.71z
		 M387.74,995.71l-11.46,0l-0.02-27.54h11.55L387.74,995.71z M375.03,995.71l-11.58,0v-27.54h11.56L375.03,995.71z M362.2,996.96
		v24.74h-17.77c-0.74-7.35-1.2-15.49-1.39-24.74L362.2,996.96z M363.45,996.96l11.58,0l0.02,24.74h-11.6V996.96z M376.28,996.96
		l11.46,0l-0.06,24.74H376.3L376.28,996.96z M388.99,996.96l11.57,0v24.73h-11.63L388.99,996.96z M401.81,996.96l11.53,0v24.73
		h-11.53V996.96z M414.59,996.97l11.45,0v24.73h-11.45V996.97z M427.29,996.97l11.74,0l-0.01,24.73h-11.73V996.97z M440.28,996.97
		l11.54,0l-0.02,24.73h-11.53L440.28,996.97z M453.07,996.97l11.49,0l-0.02,21.96c-1.42,0.54-2.73,1.34-3.86,2.35l-0.61,0.42h-7.03
		L453.07,996.97z M453.07,995.72l0.02-27.54h11.49l-0.02,27.55L453.07,995.72z M465.83,968.17h11.62l-0.04,27.55l-11.6,0
		L465.83,968.17z M198.72,1353.92l-2.86-20.44h13.79l0.29,20.88c-5.1,0.25-9.42,3.52-11.2,8.06L198.72,1353.92z M179.17,1025.84
		c1.89-3.75,5.76-6.33,10.24-6.33c2.95,0,5.75,1.12,7.91,3.17l0.1,0.09l0.76,0.17l75.31,0.01v0.08h1.25v-0.08l37.7,0l-0.05-0.67
		c-1.38-18.16-1.78-36.57-1.19-54.71l0.02-0.65l-10.72,0v-0.19h-1.25v0.19l-11.53,0v-0.1h-1.25v0.1l-62.72,0.01v-0.04h-1.25v0.04
		l-9.75,0l-0.23,0.03l-0.14,0.14c-0.7,0.66-1.49,1.21-2.33,1.66l-0.32,0c1.21-0.61,2.35-1.43,3.38-2.5l98.63-0.14
		c0.37,0,0.71,0.15,0.97,0.41c0.26,0.27,0.4,0.63,0.39,1c-0.73,21.25-0.16,38.6,1.76,53.01c0.02,0.79-0.26,1.53-0.81,2.1
		c-0.55,0.57-1.28,0.88-2.07,0.88l-114.26,0.11c-2.44-2.83-5.86-4.05-10.21-3.61c-5.09,0.89-8.2,4.37-9.26,10.43
		c0.07,6.51,3.07,10.27,9.21,11.48c4.06,0.6,7.41-0.58,10.24-3.6h116.39c1.06,0,1.94,0.76,2.1,1.81l6.15,40.93
		c-3.03,2.86-5.3,6.58-6.74,11.08H184.1c-2.4-2.75-5.71-3.98-9.89-3.66c-5.64,1.14-8.86,4.83-9.57,11.06
		c0.48,5.7,3.36,9.33,8.58,10.77c3.93,0.96,7.48-0.18,10.84-3.48H315.6c2.65,8.58,8.57,14.51,17.15,17.16l10.97,34.04
		c0.17,0.53,0.08,1.1-0.25,1.56c-0.33,0.45-0.84,0.71-1.4,0.72l-149.31,0.34c-2.76-2.97-6.1-4.17-10.26-3.67
		c-5.73,1.17-8.81,5.16-9.15,11.95c0.79,5.65,4.07,9.04,9.81,10.1c3.59,0.29,6.72-0.92,9.58-3.69h23.19v115.91h-5.01
		c-4.07-3.42-9.13-4.38-13.26-2.5c-3.7,1.68-5.92,5.37-5.93,9.85c0,4.6,2.82,8.66,7.2,10.34c4.26,1.64,8.75,0.52,12.04-2.99h153.67
		l-3.93,53.82H218.63c-3.55-3.42-7.99-4.64-11.91-3.28c-4.09,1.42-6.9,5.37-7.52,10.57l0,0.08l0.01,0.07
		c0.84,5.18,3.76,9.08,7.81,10.42c3.87,1.29,8.09,0.13,11.6-3.17l139.5-0.3l-12.28,55.1l-146.31-0.98l-0.6,0l0-0.67h24.04l0,0.1
		l1.25-0.01l0-0.09h24.62l0,0.1l1.25-0.01l0-0.09h93.86l0.4-0.09l0.1-0.36c5.68-19.51,9.51-36.3,11.72-51.31l0.1-0.72H219.23
		l-0.93,0.39l-0.08,0.06c-2.1,1.88-4.82,2.92-7.64,2.92c-6.32,0-11.46-5.14-11.46-11.46c0-6.32,5.14-11.46,11.46-11.46
		c2.88,0,5.64,1.08,7.82,3.08l0.64,0.44h139.7l2.72-26.21l1.27-26.27H212.45l0-0.06l-1.25-0.07l-0.02,0.26l-0.65,0.24l-0.1,0.07
		c-2.1,1.87-4.8,2.89-7.61,2.89c-6.32,0-11.46-5.14-11.46-11.46c0-6.32,5.14-11.46,11.46-11.46c2.9,0,5.67,1.09,7.87,3.12l0.67,0.43
		h3.9v-49.36h0.02l0-1.25h-0.01v-50.02h0.01l0-1.25h-0.01v-12.69h-22.04l-0.78,0.4l-0.09,0.07c-2.01,1.95-4.97,3.07-8.14,3.07
		c-6.13,0-11.31-5.45-11.31-11.89c0-6.32,5.14-11.46,11.46-11.46c3,0,5.84,1.16,8.05,3.3l0.63,0.48h3.91l0,0.25h1.25l0-0.25h12.2
		v0.21h1.25v-0.21h11.38l0,0.16l1.25-0.01l0-0.15h11.1l0,0.36h1.25l0-0.36h11.56v0.22h1.25v-0.22h11.56v0.36h1.25v-0.36h11.69v0.21
		h1.25v-0.21h11.43v0.22h1.25v-0.22h11.25v0.22h1.25v-0.22h11.85v0.22h1.25v-0.22h11.25v0.22h1.25v-0.22h16.23l-10.94-34.2
		l-0.11-0.23l-0.2-0.09c-7.87-3.73-13.78-9.65-17.6-17.66l-0.14-0.29h-12.85v-0.07h-1.25v0.07h-11.25v-0.07h-1.25v0.07h-11.43v-0.06
		h-1.25v0.06h-37.36l0-0.09h-1.25l0,0.09h-51.14l-0.24,0.04l-0.15,0.14c-1.97,1.93-4.84,2.99-8.08,2.99
		c-6.32,0-11.46-5.14-11.46-11.46c0-0.3,0.02-0.6,0.05-0.89l0.58-2.8c1.54-4.51,5.81-7.77,10.84-7.77c2.98,0,5.81,1.14,7.96,3.21
		l0.85,0.51h12.34l0,0.09l1.25,0.02l0-0.11h12.2v0.06h1.25v-0.06h11.38v0l0.12,0h12.22l0,0.21h1.25l0-0.21h11.56v0.07h1.25v-0.07
		h11.56v0.21h1.25v-0.21h11.69v0.06h1.25v-0.06h11.43v0.07h1.25v-0.07h11.25v0.07h1.25v-0.07h13.15l0.39-0.09l0.11-0.34
		c1.31-3.98,3.31-7.37,6.14-10.41l0.17-0.18l-6.3-41.45l-13.67-0.04v-0.19h-1.25v0.18l-11.25-0.03v-0.15h-1.25v0.14l-11.43-0.04
		v-0.1h-1.25v0.09l-37.36-0.12v0h-0.7l-37.5-0.12h-0.15l-0.38,0.26l-0.26,0l0,0.24c-2.16,2.13-5,3.31-8.05,3.31
		c-6.09,0-11.08-4.78-11.43-10.79L179.17,1025.84z M328.24,681.44l2.56-4.39c2.09-2.25,5.07-3.68,8.39-3.68
		c2.8,0,5.51,1.03,7.62,2.9l1.01,0.55l34.79,0.01l0,0.16l1.25-0.01l0-0.15h24.35v0.16h1.25v-0.16h11.84v0.16h1.25v-0.16h62.53v0.16
		h1.25v-0.16h24.23v0.27h1.25v-0.27h11.61v0.16h1.25v-0.16h12.86v-52.47l-153.51-0.2l-0.17-0.17l-0.16,0.17l-0.34,0l-0.01,0.35
		c-2.16,2.12-5,3.29-8.03,3.29c-6.32,0-11.46-5.14-11.46-11.46c0-0.69,0.07-1.36,0.19-2.01l0.94-2.92
		c1.85-3.86,5.78-6.53,10.33-6.53c2.92,0,5.7,1.1,7.83,3.09l0.83,0.47l8.57-0.13l4.04-11.84l0.15,0.05l0.41-1.18l-0.16-0.06
		l7.67-22.5l0.04,0.01l0.42-1.18l-0.06-0.02l0.2-0.58l12.58-35.74l20.44-58.87l4.58-13.21l0.06,0.02l0.42-1.18l-0.07-0.02l7.9-22.79
		l0.13,0.04l0.42-1.18l-0.14-0.05l8.18-23.78l3.93-11.35l0.03,0.01l0.42-1.18l-0.03-0.01l7.93-22.9l8.56-24.53l0.04,0.02l0.41-1.18
		l-0.04-0.01l3.77-10.82l0.22,0.08l0.42-1.18l-0.22-0.08l4.35-12.46l0.07-0.19l-0.44-0.94c-0.6-1.41-0.9-2.91-0.9-4.46
		c0-5.3,3.62-9.76,8.52-11.06l5.26-0.16c5.21,1.07,9.15,5.7,9.15,11.23c0,4.19-2.28,8.04-5.94,10.05l-0.81,0.41l-0.08,0.32
		l-0.12-0.3c4.14-2,6.77-6.49,6.43-11.07c-0.35-4.89-3.88-8.66-9.51-10.09c-4.38-0.34-8.16,1.24-10.35,4.34
		c-2.31,3.26-2.58,7.78-0.75,12.12L393.01,609h-9.47c-3.09-3.18-7.26-4.43-11.18-3.34c-4.15,1.15-7.23,4.7-8.25,9.5l-0.01,0.06
		l0,0.06c0.11,5.39,2.74,9.63,7.03,11.35c4.1,1.65,8.83,0.52,12.4-2.93h155.96v53.82H348.07c-3.74-3.64-8.45-4.73-12.63-2.91
		c-4.24,1.84-6.87,6.16-6.69,11.04c0.5,4.5,3.45,8.17,7.7,9.57c4.15,1.37,8.48,0.25,11.63-3.01h32.34
		c10.84,12.07,20.55,29.07,30.52,53.43l-102.92,0.38c-3.03-3.07-7.14-4.31-11.03-3.32c-4.04,1.03-7.08,4.3-8.33,8.98l-0.02,0.1
		c-0.33,5.29,2.24,9.8,6.71,11.75c0.7,0.31,1.42,0.53,2.14,0.68c-5.32-0.99-9.37-5.66-9.37-11.26c0-1.41,0.27-2.75,0.74-4l1.97-3.38
		c2.1-2.49,5.25-4.08,8.75-4.08c3.11,0,6.02,1.23,8.27,3.51l0.66,0.49l3.51,0v0.1h1.25v-0.1l11.84-0.02v0.11h1.25v-0.12l62.53-0.08
		v0.2h1.25v-0.2l19.05-0.02h0.93l-0.35-0.86c-3.75-9.2-7.71-17.6-11.93-25.28v-0.48h-0.27c-5.34-9.65-11.1-18.15-17.38-25.68
		l-0.15-0.18h-15.35v-0.01h-1.25v0.01h-15.16l-0.67,0.17l-0.1,0.09c-2.04,1.98-5.15,3.16-8.33,3.16c-6.32,0-11.46-5.14-11.46-11.46
		C327.73,683.65,327.91,682.51,328.24,681.44z M487.94,329.41l-3.95,11.32l-25.15-8.85l5.16-10.89L487.94,329.41z M483.58,341.92
		l-3.78,10.83l-26.53-9.11l5.03-10.61L483.58,341.92z M470.88,378.31l-0.05,0.15l-3.77,10.87l-27.24-9.68l3.55-10.98L470.88,378.31z
		 M466.66,390.51l-3.76,10.84l-27.01-9.52l3.55-11L466.66,390.51z M462.49,402.53l-3.73,10.77l-26.82-9.23l3.57-11.05L462.49,402.53
		z M458.35,414.48l-3.8,11.06l-26.53-9.33l3.54-10.95L458.35,414.48z M454.14,426.72l-3.76,10.93l-26.28-9.33l3.53-10.93
		L454.14,426.72z M449.98,438.84l-3.79,10.93l-26-9.29l3.54-10.96L449.98,438.84z M445.77,450.95l-3.71,10.68l-25.77-9.11l3.5-10.84
		L445.77,450.95z M441.66,462.81l-3.74,10.78l-25.67-8.54l3.67-11.35L441.66,462.81z M437.51,474.77l-3.9,11.24l-25.31-8.74
		l3.56-11.03L437.51,474.77z M433.2,487.19l-3.76,10.83l-25.03-8.69l3.51-10.88L433.2,487.19z M429.03,499.21l-3.9,11.22l-24.7-8.82
		l3.58-11.09L429.03,499.21z M424.72,511.61l-3.67,10.56l-24.56-8.35l3.56-11.02L424.72,511.61z M420.65,523.36l-3.8,10.95
		l-24.26-8.4l3.52-10.89L420.65,523.36z M416.43,535.49l-3.86,10.96l-23.9-8.43l3.53-10.92L416.43,535.49z M412.16,547.62
		l-3.81,10.82l-23.59-8.29l3.54-10.95L412.16,547.62z M407.94,559.62l-3.88,11.01l-0.19,0.56l-23.21-8.36l3.71-11.5L407.94,559.62z
		 M403.47,572.38l-3.54,10.37l-23.08-8.12l3.43-10.6L403.47,572.38z M399.53,583.94l-3.73,10.95l-22.89-8.04l3.56-11.03
		L399.53,583.94z M395.39,596.07l-3.76,11.02l-7.36,0.11l-0.34-0.19c-2.35-2.18-5.42-3.38-8.63-3.38c-3.54,0-6.74,1.45-9.04,3.79
		l6.26-19.39L395.39,596.07z M384.55,625.42l10.87,0.01v24.73h-11.74L384.55,625.42z M395.42,651.41v24.18h-11.56l-0.2-24.18H395.42
		z M396.67,651.41h11.54v24.18h-11.54V651.41z M409.46,651.41h11.84v24.18h-11.84V651.41z M422.55,651.41h11.48v24.18h-11.48V651.41
		z M435.28,651.41h11.48v24.18h-11.48V651.41z M448.01,651.41h11.62v24.18h-11.62V651.41z M460.88,651.41h11.01v24.18h-11.01V651.41
		z M473.14,651.41h11.94v24.18h-11.94V651.41z M486.33,651.41h11.62v24.18h-11.62V651.41z M499.2,651.41h11.36v24.18H499.2V651.41z
		 M511.81,651.41h11.61v24.18h-11.61V651.41z M524.67,651.41h11.61v24.18h-11.61V651.41z M536.28,650.16h-11.61V625.6l11.61,0.02
		V650.16z M523.42,650.16h-11.61v-24.57l11.61,0.02V650.16z M510.56,650.16H499.2v-24.59l11.36,0.01V650.16z M497.95,650.16h-11.62
		v-24.61l11.62,0.02V650.16z M485.08,650.16h-11.94v-24.63l11.94,0.02V650.16z M471.89,650.16h-11.01v-24.64l11.01,0.01V650.16z
		 M459.63,650.16h-11.62V625.5l11.62,0.02V650.16z M446.76,650.16h-11.48v-24.68l11.48,0.02V650.16z M434.03,650.16h-11.48v-24.69
		l11.48,0.02V650.16z M421.3,650.16h-11.84v-24.71l11.84,0.02V650.16z M408.21,650.16h-11.54v-24.73l11.54,0.02V650.16z
		 M371.05,650.16v-21.85c1.33,0.47,2.76,0.75,4.25,0.75c2.94,0,5.72-1,7.97-2.82l-0.85,23.92H371.05z M382.4,651.41l0.2,24.18
		h-11.55v-24.18H382.4z M369.8,651.41v24.18h-21.65l-0.59-0.31c-2.32-2.03-5.29-3.15-8.38-3.15c-2.42,0-4.68,0.69-6.6,1.87
		l13.18-22.59H369.8z M309.83,996.09l-9.34,0v-27.91l9.43,0C309.63,977.43,309.61,986.76,309.83,996.09z M210.61,997.33l11.88,0
		v24.37l-12.19,0L210.61,997.33z M223.75,997.33l11.67,0l-0.29,24.37l-11.38,0V997.33z M236.67,997.33l11.33,0v24.37l-11.63,0
		L236.67,997.33z M249.26,997.33l11.53,0v24.37l-11.53,0V997.33z M262.04,997.33l11.45,0v24.37l-11.45,0V997.33z M274.73,997.34
		l11.73,0v24.36l-11.73,0V997.34z M287.71,997.34l11.53,0v24.36l-11.53,0V997.34z M300.49,997.34l9.37,0
		c0.22,8.14,0.61,16.27,1.22,24.36l-10.59,0V997.34z M299.24,996.09l-11.53,0v-27.91l11.53,0V996.09z M286.46,996.09l-11.73,0
		v-27.91l11.73,0V996.09z M273.48,996.08l-11.45,0v-27.91l11.45,0V996.08z M260.79,996.08l-11.53,0v-27.9l11.53,0V996.08z
		 M248.01,996.08l-11.32,0l0.34-27.9l10.98,0V996.08z M235.44,996.08l-11.69,0v-27.9l12.02,0L235.44,996.08z M222.5,996.08l-11.87,0
		l0.33-26.4c0.74-0.42,1.45-0.92,2.09-1.5l9.45,0V996.08z M209.36,997.33l-0.3,24.37l-10.16,0l-0.54-24.37L209.36,997.33z
		 M204.53,970.06c-6.32,0-11.46-5.14-11.46-11.46c0-0.16,0.02-0.32,0.02-0.47l0.74-3.62c1.65-4.3,5.82-7.37,10.69-7.37
		c2.99,0,5.82,1.14,7.92,3.17l0.44,0.57l60.73,0v0.01h1.25v-0.01l37.96,0l0.07-0.55c1.04-8.11,2.79-16.43,5.26-25.07h0.02v-0.06
		c2.38-8.3,5.42-16.91,9.18-25.93l0.36-0.87l-27.08,0v-0.14h-1.25v0.14l-11.53,0v-0.06h-1.25v0.06l-50.67,0l-0.3-0.02l-0.25,0.02
		l-0.16,0.15c-2.13,1.98-4.9,3.08-7.81,3.08c-1.29,0-2.52-0.22-3.68-0.62v-0.05h-0.13c-4.45-1.58-7.65-5.81-7.65-10.8
		c0-1.49,0.29-2.9,0.81-4.21l1.08-2.08c2.05-3.11,5.57-5.17,9.57-5.17c2.96,0,5.78,1.13,7.99,3.23l0.59,0.42h24.9v0.11h1.25v-0.11
		h11.58v0.18h1.25v-0.18h11.53v0.11h1.25v-0.11h11.45v0.32h1.25v-0.32h11.73v0.18h1.25v-0.18h11.53v0.11h1.25v-0.11h9.18l0.33-0.07
		l0.14-0.26c4.65-8.6,10.24-17.05,16.7-25.28h0.16v-0.12h0.12v-0.24c6.89-8.73,14.77-17.22,23.6-25.41l0.91-0.84
		c0.06,0.07,0.13,0.12,0.19,0.2c0.46,0.62,0.62,1.38,0.45,2.12c-15.91,14.89-29.14,31.23-39.36,48.63
		c-0.79,1.72-1.57,1.96-2.24,1.96H235.95c-2.44-2.57-5.35-3.85-9.15-4.02l-0.05,0l-0.05,0.01c-5.61,0.89-8.94,4.14-10.19,10.02
		c-0.2,6.26,2.38,10.22,7.96,12.13c4.54,0.98,8.19-0.11,11.47-3.43l92.71-0.01c0.32,0,0.61,0.16,0.77,0.42
		c0.17,0.27,0.19,0.61,0.06,0.9c-7.04,15.28-10.73,32.38-14.19,50.03c-0.28,1.44-1.54,2.48-3,2.48h-99.42
		c-2.22-2.71-5.45-3.91-9.91-3.66c-4.63,0.75-7.66,3.45-9.02,8c-0.61,2.03-0.6,4.12,0.03,6.05c1.44,4.43,4.09,6.91,8.37,7.82
		c2.72,0.42,5.19,0.07,7.37-1.01l0,0.17C208.17,969.68,206.42,970.06,204.53,970.06z M236.82,925.27h11.31v24.36l-11.63,0
		L236.82,925.27z M249.39,925.27h11.53v24.37l-11.53,0V925.27z M262.16,925.27h11.45v24.37l-11.45,0V925.27z M274.86,925.27h11.73
		v24.37l-11.73,0V925.27z M287.84,925.27h11.53v24.37l-11.53,0V925.27z M300.62,925.27h16.22c-2.38,8.39-4.08,16.47-5.12,24.37
		l-11.1,0V925.27z M300.62,924.02v-24.36l25.21,0c-3.49,8.45-6.35,16.53-8.62,24.36H300.62z M299.37,924.02h-11.53v-24.36l11.53,0
		V924.02z M286.59,924.02h-11.73v-24.36l11.73,0V924.02z M273.61,924.02h-11.45v-24.36l11.45,0V924.02z M260.91,924.02h-11.53
		v-24.36l11.53,0V924.02z M248.14,924.02h-11.3l0.31-24.36l10.98,0V924.02z M227.4,902.89c3.14,0,6.14-1.15,8.47-3.23h0.04
		l-0.31,24.36h-11.87v-21.67C224.89,902.7,226.12,902.89,227.4,902.89z M235.57,925.27l-0.31,24.36l-11.54,0v-24.36H235.57z
		 M222.47,949.63l-8.41,0v-24.36h8.41V949.63z M252.28,817.49l1.03-1.98c2.05-3.14,5.58-5.23,9.61-5.23c2.86,0,5.6,1.06,7.69,2.96
		l0.68,0.7l2.62,0v0.11h1.25v-0.11l11.33-0.01v0.12h1.25v-0.12l11.67-0.01v0.13h1.25v-0.13l24.43-0.01v0.14h1.25v-0.14l62.53-0.04
		v0.18h1.25v-0.18l8.04,0h0.15l8.03-5.14l0.2-0.18l0.03-0.23c1.28-8.62,4.52-15.26,9.67-19.85h0.09v-0.09
		c1.33-1.17,2.77-2.21,4.35-3.11l0.29-0.17l-0.43-3.17c-0.32-1.83-0.65-3.59-1.01-5.31l2.16,8.79l-0.66,1.86
		c-7.5,4.81-12.24,12.94-12.71,21.82l-0.86,1.25l-6.62,4.21H271.34c-2.4-2.7-5.71-4-9.93-3.86c-4.59,0.68-7.73,3.76-9.35,9.23
		c-0.89,6.27,1.64,10.37,7.96,12.9c-4.92-1.29-8.56-5.76-8.56-11.08C251.45,820.23,251.75,818.8,252.28,817.49z M401.74,787.21
		h-11.62v-24.68l11.62,0.06V787.21z M388.87,787.21h-11.94v-24.75l11.94,0.06V787.21z M375.68,787.21h-11.01V762.4l11.01,0.06
		V787.21z M363.42,787.21H351.8v-24.88l11.62,0.06V787.21z M350.55,787.21h-11.48v-24.94l11.48,0.06V787.21z M337.82,787.21h-11.48
		V762.2l11.48,0.06V787.21z M325.09,787.21h-11.7v-25.07l11.7,0.06V787.21z M313.39,788.46h11.7v24.2l-11.7,0.01V788.46z
		 M326.34,788.46h11.48v24.19l-11.48,0.01V788.46z M339.07,788.46h11.48v24.18l-11.48,0.01V788.46z M351.8,788.46h11.62v24.17
		l-11.62,0.01V788.46z M364.67,788.46h11.01v24.17l-11.01,0.01V788.46z M376.93,788.46h11.94v24.16l-11.94,0.01V788.46z
		 M390.12,788.46h11.62v0.01h1.25v-0.01h11.4c-4.72,4.67-7.74,11.16-9.01,19.39l-7.43,4.76l-7.82,0V788.46z M415.75,787.21h-12.76
		v-24.62l11.52,0.06c1.97,5.82,3.55,12.2,4.81,19.47l0.31,2.31C418.24,785.25,416.95,786.18,415.75,787.21z M308.08,762.39
		l0.73-0.28l3.33,0.02v25.08h-11.48v-21.6C303.41,765.37,306.01,764.25,308.08,762.39z M312.14,788.46v24.2l-11.48,0.01v-24.21
		H312.14z M299.41,812.67l-11.67,0.01v-24.22h11.67V812.67z M286.49,812.68l-11.33,0.01v-24.23h11.33V812.68z M415.4,761.4
		l-106.79-0.54l-1.17,0.44l-0.12,0.08c-1.34,1.23-2.93,2.1-4.64,2.59c1.92-0.57,3.75-1.66,5.33-3.26l107.65,0.09l1.59,6.5
		c-0.54-1.9-1.12-3.76-1.74-5.57L415.4,761.4z M351.59,855.51h-12.7v-24.43l12.7,0.02V855.51z M337.64,855.51H326.2v-24.46
		l11.45,0.02V855.51z M324.95,855.51h-11.53v-24.48l11.53,0.02V855.51z M312.17,855.51h-11.73V831l11.73,0.02V855.51z
		 M299.19,855.51h-11.45v-24.53l11.45,0.02V855.51z M286.49,855.51h-11.53v-24.56l11.53,0.02V855.51z M274.96,856.76h11.53v24.36
		h-11.53V856.76z M287.74,856.76h11.45v24.36h-11.45V856.76z M300.44,856.76h11.73v24.36h-11.73V856.76z M313.42,856.76h11.53v24.36
		h-11.53V856.76z M326.2,856.76h24.77c-6.18,7.94-11.54,16.08-16.04,24.36h-8.73V856.76z M352.84,831.1l21.6,0.04
		c-8,7.51-15.21,15.28-21.6,23.24V831.1z M262.91,834.44c3,0,5.92-1.07,8.24-3.03l0.49-0.47l2.07,0v24.56h-11.58V834.4
		C262.39,834.42,262.65,834.44,262.91,834.44z M273.71,856.76v24.36h-11.58v-24.36H273.71z M260.88,881.12h-23.73l-0.62-24.36h24.35
		V881.12z M352.84,829.85v-0.01h-1.25v0.01l-25.39-0.05v-0.11h-1.25v0.11l-53.61-0.1h-0.2l-0.82,0.79c-2.06,1.75-4.69,2.71-7.4,2.71
		c-0.91,0-1.8-0.12-2.65-0.32c4.58,0.71,8.21-0.48,11.11-3.64l104.1,0.07c0.62,0,1.2,0.22,1.66,0.6L352.84,829.85z M603.65,257.71
		l2.05-4.18c2.1-2.7,5.37-4.44,9.04-4.44c1.44,0,2.8,0.28,4.07,0.76l0.3,0.35l0.18-0.16c4.06,1.77,6.9,5.83,6.91,10.57l0.11,1.07
		l16.4,18.97l39.68-34.34l-25.19-29.07l0.1-0.08l-0.82-0.95l-0.1,0.08l-19.62-22.65l0.37-0.68l47.29,54.91l-41.2,34.96l-17.34-20.61
		c0.52-3.94-0.88-7.39-4.21-10.31c-4.92-3.28-9.84-2.98-14.68,0.95c-3.26,3.63-3.87,8.03-1.88,13.43l0.08,0.15
		c2.46,3.48,5.68,5.29,9.57,5.38l17.53,20.36l-8.03,7c-7.02,0.71-13.32,4.04-17.73,9.4c-4.57,5.54-6.69,12.78-6,20.4l-8.46,8.48
		h-86.29l-0.27-0.67h57.13v0.13h1.25v-0.13h11.72v0.13h1.25v-0.13h13.12l8.34-8.37l0.16-0.22l-0.02-0.23
		c-0.33-4.73,0.4-9.01,1.91-12.79l0.04-0.03l-0.02-0.02c3.32-8.27,10.35-14.06,18-16.62l0.01,0.01l0.03-0.03
		c1.61-0.54,3.25-0.93,4.89-1.17l0.14-0.02l7.13-6.17l-15.97-18.45l-0.95-0.66l-0.28-0.1c-5.77-0.67-10.12-5.57-10.12-11.38
		C603.28,259.57,603.41,258.62,603.65,257.71z M635.52,252.85l15.91,18.6l-8.6,7.44l-15.32-17.72l-0.07-0.62
		c0-0.23-0.02-0.45-0.03-0.68L635.52,252.85z M636.46,252.04l8.73-7.55l16.18,18.36l-8.99,7.78L636.46,252.04z M646.13,243.67
		l8.9-7.7l15.91,18.6l-8.63,7.47L646.13,243.67z M655.97,235.15l8.62-7.46l16.03,18.5l-8.74,7.56L655.97,235.15z M647.75,208.25
		l7.68,8.86l-18.39,15.92l-7.62-8.92L647.75,208.25z M656.25,218.06l7.53,8.69l-18.46,15.98l-7.47-8.74L656.25,218.06z
		 M644.37,243.54l-17.13,14.82c-0.71-4.06-3.34-7.45-6.92-9.21l16.58-14.35L644.37,243.54z M646.93,207.31l-18.32,15.86l-4.81-5.64
		l12.32-22.7L646.93,207.31z M606.4,304.26c-0.77,0.73-1.51,1.5-2.2,2.32c-1.96,2.29-3.52,4.84-4.69,7.56l-15.64-18.36l5.68-10.89
		L606.4,304.26z M575.59,335.55h-11.72v-25.59l11.72-0.36V335.55z M562.63,335.55h-11.72v-25.19l11.72-0.36V335.55z M351.82,719.99
		h11.62v24.17l-11.62,0.02V719.99z M364.69,719.99h11.01v24.16l-11.01,0.01V719.99z M376.95,719.99h11.94v24.14l-11.94,0.02V719.99z
		 M390.14,719.99h6.69c4.03,7.35,7.83,15.36,11.42,24.12l-18.12,0.02V719.99z M376.95,718.74v-0.26h-1.25v0.26h-11.01v-24.6
		l14.77-0.01c6,7.23,11.53,15.38,16.68,24.61H376.95z M363.44,718.74h-11.62v-24.59l11.62-0.01V718.74z M339.19,697.55
		c3.43,0,6.82-1.27,9.08-3.4l2.3,0v24.58h-11.48v-21.19C339.13,697.54,339.16,697.55,339.19,697.55z M350.57,719.99v24.19
		l-11.48,0.01v-24.21H350.57z M337.84,744.19l-11.48,0.01v-24.22h11.48V744.19z M325.11,744.21l-11.84,0.02v-24.24h11.84V744.21z
		 M312.02,719.99v24.24l-3.11,0l-0.25-0.18c-2.41-2.47-5.64-3.82-9.09-3.82c-2.51,0-4.84,0.74-6.81,2l12.98-22.24H312.02z
		 M273.9,788.46v24.23l-2.09,0l-0.33-0.35c-2.35-2.14-5.39-3.32-8.56-3.32c-2.83,0-5.43,0.94-7.54,2.5l11.97-23.07H273.9z
		 M231.87,856.82l0.03-0.06h3.37l0.61,23.97c-2.34-2.1-5.33-3.26-8.49-3.26c-2.82,0-5.42,0.94-7.53,2.5L231.87,856.82L231.87,856.82
		z M212.81,925.27v23.71c-2.31-1.99-5.21-3.08-8.28-3.08c-4,0-7.57,1.86-9.9,4.76l5.22-25.38H212.81z M204.53,971.31
		c1.86,0,3.6-0.35,5.17-1.01l-0.32,25.78l-24.09,0l7-34.07C193.79,967.37,198.7,971.31,204.53,971.31z M210.94,1379.73
		c2.97-0.09,5.82-1.19,8.05-3.16l0.39-0.19h3.15l0.22,24.48h-11.77L210.94,1379.73z M224,1402.11h11.59l0.03,24.25h-11.41
		L224,1402.11z M236.84,1402.11h11.78l0.21,24.25h-11.96L236.84,1402.11z M249.87,1402.11h11.34l0.07,24.25h-11.2L249.87,1402.11z
		 M262.46,1402.11H274v24.25h-11.47L262.46,1402.11z M275.25,1402.11h11.56v24.25h-11.56V1402.11z M288.05,1402.11h11.69v24.25
		h-11.69V1402.11z M300.99,1402.11h11.43v24.25h-11.43V1402.11z M313.67,1402.11h11.29l0.03,24.25h-11.32V1402.11z M326.2,1402.11
		h11.57l0.01,24.25h-11.56L326.2,1402.11z M339.03,1402.11h10.78c-1.79,7.61-3.92,15.66-6.41,24.25h-4.35L339.03,1402.11z
		 M339.02,1400.86l-0.01-24.48h15.83c-1.15,7.65-2.72,15.77-4.74,24.48H339.02z M337.77,1400.86H326.2l-0.03-24.48h11.59
		L337.77,1400.86z M324.95,1400.86h-11.28v-24.48h11.25L324.95,1400.86z M312.42,1400.86h-11.43v-24.48h11.43V1400.86z
		 M299.74,1400.86h-11.69v-24.48h11.69V1400.86z M286.8,1400.86h-11.56v-24.48h11.56V1400.86z M274,1400.86h-11.54l-0.08-24.48H274
		V1400.86z M261.21,1400.86h-11.35l-0.22-24.48h11.49L261.21,1400.86z M248.61,1400.86h-11.77l-0.03-24.48h11.58L248.61,1400.86z
		 M235.59,1400.86h-11.6l-0.22-24.48h11.79L235.59,1400.86z M222.75,1402.11l0.21,24.25H211l-0.03-24.25H222.75z M224.14,1333.48
		h11.36l0.03,24.36h-11.24L224.14,1333.48z M236.75,1333.48h11.78l0.21,24.36h-11.97L236.75,1333.48z M249.78,1333.48h11.34
		l0.08,24.36H250L249.78,1333.48z M262.38,1333.48h11.54v24.36h-11.46L262.38,1333.48z M275.17,1333.48h11.56v24.36h-11.56V1333.48z
		 M287.97,1333.48h11.69v24.36h-11.69V1333.48z M300.91,1333.48h11.43v24.36h-11.43V1333.48z M313.58,1333.48h11.29l0.03,24.36
		h-11.32V1333.48z M326.12,1333.48h11.57l0.01,24.36h-11.56L326.12,1333.48z M338.94,1333.48h11.72v0.62h1.25v-0.62h8.22
		l-2.53,24.36h-18.65L338.94,1333.48z M351.91,1332.23v-24.36h9.5l-1.18,24.36H351.91z M350.66,1332.23h-11.72l-0.01-24.36h11.73
		V1332.23z M337.69,1332.23h-11.57l-0.03-24.36h11.59L337.69,1332.23z M324.87,1332.23h-11.28v-24.36h11.25L324.87,1332.23z
		 M312.33,1332.23h-11.43v-24.36h11.43V1332.23z M299.66,1332.23h-11.69v-24.36h11.69V1332.23z M286.72,1332.23h-11.56v-24.36h11.56
		V1332.23z M273.92,1332.23h-11.54l-0.08-24.36h11.62V1332.23z M261.12,1332.23h-11.35l-0.21-24.36h11.49L261.12,1332.23z
		 M248.52,1332.23h-11.77l-0.03-24.36h11.58L248.52,1332.23z M235.5,1332.23h-11.37l-0.15-24.36h11.49L235.5,1332.23z
		 M222.88,1332.23h-11.93l1.43-24.36h10.36L222.88,1332.23z M222.89,1333.48l0.15,24.36h-3.62l-0.24-0.16
		c-2.2-2.02-5.02-3.18-7.98-3.32l-0.29-20.87H222.89z M198.14,1134.5h12.24v24.23h-12.2L198.14,1134.5z M211.64,1134.5h11.15
		l0.21,24.23h-11.37V1134.5z M224.04,1134.5h11.29l0.03,24.23h-11.1L224.04,1134.5z M236.58,1134.5h11.59v24.23h-11.56
		L236.58,1134.5z M249.42,1134.5h11.56v24.23h-11.56V1134.5z M262.22,1134.5h11.69v24.23h-11.69V1134.5z M275.16,1134.5h11.43v24.23
		h-11.43V1134.5z M287.84,1134.5h11.25v24.23h-11.25V1134.5z M300.34,1134.5h11.85v24.23h-11.85V1134.5z M313.44,1134.5h11.25v24.23
		h-11.25V1134.5z M325.94,1134.5h6.76l7.75,24.23h-14.52V1134.5z M325.94,1133.25v-0.34h-1.25v0.34h-11.25v-0.34h-1.25v0.34h-11.85
		v-24.5h12.06c3.88,7.95,9.84,13.91,17.74,17.71l2.17,6.79H325.94z M299.09,1133.25h-11.25v-24.5h11.25V1133.25z M286.59,1133.25
		h-11.43v-24.5h11.43V1133.25z M273.91,1133.25h-11.69v-24.5h11.69V1133.25z M260.97,1133.25h-11.56v-24.5h11.56V1133.25z
		 M248.17,1133.25h-11.59l-0.03-24.5h11.62V1133.25z M235.33,1133.25h-11.3l-0.22-24.5h11.49L235.33,1133.25z M222.78,1133.25
		h-11.14v-24.5h10.92L222.78,1133.25z M210.39,1133.25h-12.24l-0.04-24.5h12.29V1133.25z M196.85,1108.75l0.04,24.5h-11.55
		l-0.05-24.5H196.85z M196.89,1134.5l0.04,24.23h-3.48l-0.23-0.17c-2.14-2.08-4.89-3.32-7.84-3.55l-0.04-20.5H196.89z
		 M198.39,1066.09h11.9v24.12H198.1L198.39,1066.09z M211.54,1066.09h11.15l0.21,24.12h-11.37V1066.09z M223.94,1066.09h11.29
		l0.03,24.12h-11.1L223.94,1066.09z M236.48,1066.09h11.59v24.12h-11.56L236.48,1066.09z M249.32,1066.09h11.56v24.12h-11.56
		V1066.09z M262.13,1066.09h11.69v24.12h-11.69V1066.09z M275.06,1066.09h11.43v24.12h-11.43V1066.09z M287.74,1066.09h11.25v24.12
		h-11.25V1066.09z M300.24,1066.09h16.52l2.12,13.94c-2.71,2.97-4.69,6.31-6.03,10.18h-12.62V1066.09z M300.24,1064.84v-24.64
		l12.6,0.04l3.74,24.6H300.24z M298.99,1064.84h-11.25v-24.68l11.25,0.04V1064.84z M286.49,1064.84h-11.43v-24.72l11.43,0.04
		V1064.84z M273.81,1064.84h-11.69v-24.76l11.69,0.04V1064.84z M260.88,1064.84h-11.56v-24.8l11.56,0.04V1064.84z M248.07,1064.84
		h-11.59l-0.03-24.84l11.62,0.04V1064.84z M235.23,1064.84h-11.3l-0.22-24.88l11.49,0.04L235.23,1064.84z M222.68,1064.84h-11.14
		v-24.92l10.92,0.03L222.68,1064.84z M210.29,1064.84H198.4l0.29-24.96l11.59,0.04V1064.84z M197.14,1066.09l-0.28,24.12h-11.56
		l-0.01-24.12H197.14z M197.43,1040.82l-0.28,24.02h-11.87l-0.01-21.86c1.3,0.45,2.69,0.71,4.14,0.71
		C192.38,1043.68,195.18,1042.67,197.43,1040.82z M184.02,1042.46l0.01,22.37h-12.87l6.16-29.96
		C178.4,1038.23,180.86,1040.97,184.02,1042.46z M170.9,1066.09h13.13l0.01,23.55c-2.32-2.02-5.25-3.15-8.35-3.15
		c-4.05,0-7.66,1.91-9.99,4.88L170.9,1066.09z M184.09,1134.5l0.04,20.46c-5.64,0.1-10.39,3.88-11.94,9.04l-4.12-29.5H184.09z
		 M184.21,1180.8c3.45,0,6.71-1.22,8.94-3.36l0.34-0.18h20.52v11.45l-38.35,0.17l-1.98-14.17
		C175.95,1178.34,179.86,1180.8,184.21,1180.8z M214.01,1189.96v11.57l-36.56,0.17l-1.61-11.56L214.01,1189.96z M214.01,1266.65
		v22.68h-2.29l-0.27-0.16c-2.36-2.18-5.42-3.38-8.63-3.38c-5.91,0-10.87,4.05-12.29,9.52l-3.99-28.59L214.01,1266.65z
		 M202.82,1311.21c3.05,0,5.98-1.09,8.29-3.08l-1.41,24.1h-14.01l-3.81-27.3C194.09,1308.68,198.16,1311.21,202.82,1311.21z
		 M209.69,1379.7l0.03,21.15h-10.86l-0.09-29.13C200.54,1376.16,204.72,1379.36,209.69,1379.7z M209.72,1402.11l0.03,24.25h-10.82
		l-0.07-24.25H209.72z M333.64,1453.92l11.49,1.31l-2.63,24.17l-11.61-1.4L333.64,1453.92z M346.37,1455.37l11.61,1.33l-2.92,24.21
		l-11.32-1.36L346.37,1455.37z M359.22,1456.84l11.35,1.3l-2.69,24.31l-11.58-1.39L359.22,1456.84z M371.81,1458.27l11.89,1.36
		l-3.2,24.33l-11.38-1.37L371.81,1458.27z M398.49,1462.05l11.42,1.87l-4.05,24.11l-11.45-1.93L398.49,1462.05z M411.14,1464.13
		l11.39,1.87l-4.1,24.15l-11.34-1.91L411.14,1464.13z M423.77,1466.19l11.39,1.81l-4.05,24.27l-11.45-1.93L423.77,1466.19z
		 M499.34,1478.68l11.67,2.09l-4.12,24.25l-11.33-1.91L499.34,1478.68z M512.24,1480.99l11.47,2.06l-4.19,24.1l-11.4-1.92
		L512.24,1480.99z M524.94,1483.27l11.48,2.06l-3.98,23.99l-11.69-1.97L524.94,1483.27z M536.99,1484.16l-37.83-6.79l-37.73-6.46
		l-38.08-6.06l-24.65-4.05l0-0.02l-1.23-0.21l0,0.02l-13.43-2.2l-69.05-7.88l-8.37-0.01l-0.29-0.03l0,0.03l-49.26-0.04l-0.7-0.09
		l-0.01,0.09l-57.36-0.05l0-0.67l115.16,0l71.27,8.27l191.41,32.22l0.63,0.11l-0.01,0.8L536.99,1484.16z M577.63,1475.48
		l-182.29-31.19l5.75-0.04l-0.05,0.56l176.59,29.97L577.63,1475.48z M409.02,1444.89h168.94l-0.31,28.62L409.02,1444.89z
		 M483.73,1443.64l93.74-0.68l0.52,0l-0.01,0.69H483.73z M667.76,127.45c0.31,6.15,4.98,11.23,11.13,11.97l0.63,0.32l2.85,3.32
		l-18.56,16.25l-6.06-7.03L667.76,127.45z M752.29,76.73l-7.71-8.84l19.13-16.19l7.17,8.79L752.29,76.73z M743.76,66.95l-7.33-8.41
		l19.18-16.77l7.31,8.96L743.76,66.95z M735.61,57.6l-2.66-3.05l-0.01-0.57c0.01-0.2,0.01-0.4,0.01-0.6c0-2.65-0.82-5.12-2.21-7.16
		l16.72-14.44l7.36,9.02L735.61,57.6z M730.73,79.87l7.74,9.04l-18.55,16.04l-7.71-8.99L730.73,79.87z M719.79,106.71l7.4,8.62
		l-25.53,22.05l-7.38-8.61L719.79,106.71z M720.73,105.9l18.55-16.04l7.4,8.64l-18.55,16.02L720.73,105.9z M718.97,105.76
		l-25.52,22.07l-0.25-0.29l-0.05-0.74c0-4.07-1.93-7.7-4.92-10.02l23.03-20L718.97,105.76z M711.39,95.01L704,86.39l18.51-16.13
		l7.41,8.65L711.39,95.01z M683.19,144.01l7.53,8.77l-18.63,16.12l-7.45-8.64L683.19,144.01z M691.53,153.72l7.6,8.85l-18.61,16.1
		l-7.62-8.83L691.53,153.72z M680.38,180.46l7.4,8.59l-18.33,15.86l-7.41-8.58L680.38,180.46z M688.6,189.99l7.65,8.87l-18.32,15.85
		l-7.66-8.86L688.6,189.99z M687.53,208.06l15.81,18.47l-8.69,7.52l-15.89-18.4L687.53,208.06z M688.47,207.24l8.59-7.43
		l15.91,18.39l-8.69,7.52L688.47,207.24z M698.03,198.97l8.86-7.67l15.81,18.47l-8.79,7.6L698.03,198.97z M707.84,190.48l8.75-7.57
		l15.84,18.44l-8.78,7.6L707.84,190.48z M707.03,189.53l-0.11-0.13l-0.95,0.81l0.11,0.13l-8.87,7.67l-7.65-8.86l18.58-16.08
		l7.63,8.88L707.03,189.53z M688.75,188.21l-7.41-8.58l18.61-16.1l7.39,8.6L688.75,188.21z M679.56,179.51l-18.34,15.87l-7.63-8.83
		l18.35-15.88L679.56,179.51z M796.68,111.88l-8.89,7.69l-15.89-18.38l8.9-7.69L796.68,111.88z M786.84,120.39l-8.74,7.56
		l-15.91-18.38l8.75-7.56L786.84,120.39z M777.16,128.77l-8.55,7.4l-16-18.31l8.64-7.46L777.16,128.77z M767.67,136.99l-8.77,7.59
		l-16.01-18.32l8.78-7.58L767.67,136.99z M757.95,145.4l-8.97,7.77l-16.01-18.33l8.98-7.76L757.95,145.4z M748.03,153.98l-8.55,7.4
		l-15.86-18.48l8.39-7.25L748.03,153.98z M738.53,162.2l-8.84,7.65l-15.93-18.43l8.91-7.7L738.53,162.2z M739.35,163.15l15.86,18.49
		l-8.76,7.58l-15.93-18.43L739.35,163.15z M740.29,162.33l8.56-7.41l16.03,18.35l-8.73,7.55L740.29,162.33z M749.8,154.1l8.97-7.77
		l16.03,18.35l-8.97,7.77L749.8,154.1z M759.72,145.52l8.77-7.59l16.03,18.35l-8.77,7.59L759.72,145.52z M769.43,137.11l8.54-7.39
		l15.94,18.42l-8.46,7.32L769.43,137.11z M778.92,128.9l18.57-16.07l0.13,0.15l0.95-0.82l-0.14-0.16l6.94-6
		c-3.73,9.07-4.71,20.17-2.49,29.69c0.95,3.04-1.48,5.9-1.71,6.17l-6.31,5.46L778.92,128.9z M797.62,111.06l-15.88-18.37l9.04-7.81
		l15.35,18.82L797.62,111.06z M771.08,100.25l-0.02-0.03l-0.95,0.82l0.02,0.03l-28.07,24.25l-0.09-0.11l-0.94,0.82l0.09,0.1
		l-28.64,24.75l-0.47,0.41l34.32,39.69l55.73-48.23c0.33-0.37,3.19-3.73,2.04-7.39c-2.27-9.76-1.08-21.27,3.08-30.35l1.44,1.84
		c-3.7,8.56-4.65,17.48-2.82,26.5c0.71,5.09,0,8.4-2.28,10.73l-56.75,48.88l-35.63-41.52l78.01-67.66l0.43-0.37l0.42,0.51
		L771.08,100.25z M760.61,89L731.25,55.2c0.47-4.68-1.81-9.08-5.85-11.26c-3.99-2.15-8.66-1.63-12.22,1.41
		c-3.43,3.48-4.59,8.44-2.95,12.66c1.55,4,5.15,6.47,9.9,6.8l28.99,33.62l-47.67,41.67l-10.01-11.59c0.15-4.83-1.86-8.99-5.4-11.17
		c-3.33-2.04-7.49-2.02-11.17,0.07c-4.45,3.03-6.49,8-5.2,12.68c1.27,4.58,5.35,7.65,10.65,8.04l54.23,62.75v2.83l-37.07,32.22
		l-3.95,0.07l-48.92-56.8l0.38-0.68l15.29,17.69l-0.01,0.01l0.82,0.95l0.01-0.01l7.41,8.58l-0.02,0.02l0.82,0.95l0.02-0.02
		l24.78,28.67l0.41,0.47l9.63-8.34l0.12,0.14l0.95-0.81l-0.13-0.15l8.7-7.53l0.01,0.01l0.95-0.82l-0.01-0.01l18.99-16.43l0.47-0.41
		l-16.65-19.39l0.03-0.02l-0.82-0.95l-0.02,0.02l-36.33-42.3l-1.02-0.58l-0.22-0.07c-5.8-0.65-10.17-5.55-10.17-11.39
		c0-6.32,5.14-11.46,11.46-11.46c6.32,0,11.46,5.15,11.46,11.5l0.07,1.2l9.12,10.64l0.41,0.48l46.46-40.13l0.47-0.41l-8.21-9.59
		l0.03-0.03l-0.82-0.95l-0.02,0.02l-7.74-9.04l0.02-0.02l-0.82-0.94l-0.01,0.01l-10.91-12.74l-1.13-0.58l-0.11-0.03
		c-5.66-0.76-9.92-5.64-9.92-11.36c0-1.85,0.45-3.59,1.23-5.14l1.44-2.2c2.1-2.51,5.26-4.11,8.79-4.11
		c6.32,0,11.46,5.14,11.46,11.46c0,0.18,0,0.37-0.01,0.58l0.02,1.06l28.88,33.11l19.23-16.7l0.45,0.55L760.61,89z M760.7,86.38
		l-7.59-8.7l18.56-16.21l7.35,9.01L760.7,86.38z M746.67,30.81l-16.69,14.42c-2.33-2.78-5.83-4.56-9.74-4.56
		c-2.35,0-4.54,0.65-6.43,1.76l18.85-28.8L746.67,30.81z M707.63,51.89c-0.06,0.49-0.1,0.99-0.1,1.5c0,6.31,4.69,11.7,10.91,12.58
		l0.64,0.3l2.61,3.04l-18.51,16.13l-9.93-11.57l13.32-20.38L707.63,51.89z M692.54,74.96l17.9,20.87l-23.27,20.21
		c-1.96-1.23-4.26-1.95-6.73-1.95c-3.36,0-6.42,1.32-8.69,3.46l11.36-28.17L692.54,74.96z M657.22,153.59l5.65,6.55l-0.04,0.03
		l0.82,0.94l0.03-0.03l7.45,8.64l-18.35,15.88l-7.16-8.29l7.94-14.62L657.22,153.59z M623.16,218.7l12.94,15.14l-17.05,14.76
		c-1.35-0.49-2.79-0.77-4.31-0.77c-2.78,0-5.34,0.91-7.44,2.42l11.94-24.33L623.16,218.7z M602.04,260.96
		c0.2,6.21,4.87,11.4,11.05,12.2l0.63,0.42l15.09,17.44l-5.91,5.11c-1.41,0.22-2.79,0.53-4.14,0.94l-22.19-25.65L602.04,260.96z
		 M617.48,297.49c-3.73,1.3-7.18,3.31-10.16,5.92l-17.14-19.72l5.78-11.07L617.48,297.49z M549.66,335.55H538.1v-24.79l11.56-0.36
		V335.55z M536.85,335.55h-11.56v-24.4l11.56-0.36V335.55z M524.04,335.55h-18.82l0.27-1.14l0.31-0.16
		c4.08-2.24,6.61-6.51,6.61-11.15c0-4.95-2.85-9.23-6.98-11.33l18.61-0.57V335.55z M486.99,323.1c0,1.72,0.34,3.38,1.01,4.97
		l0.02,0.05l-23.48-8.26l3.28-6.93l25.46-0.79C489.53,314.35,486.99,318.43,486.99,323.1z M452.73,344.77l26.66,9.16l-3.83,10.97
		l-27.47-9.61l2.55-6.11L452.73,344.77z M447.61,356.44l27.54,9.64l-3.86,11.05l-27.53-9.65l2.58-7.99L447.61,356.44z M369.8,627.79
		v22.37h-23.31l3.7-6.34l8.85-17.59l3.65-8.4C363.2,622.23,365.97,625.94,369.8,627.79z M337.84,697.47v21.26h-31.37l20.02-34.31
		c0,0.14-0.02,0.27-0.02,0.41C326.48,691.39,331.46,696.8,337.84,697.47z M286.9,752.29c-0.01,0.22-0.03,0.43-0.03,0.66
		c0,6.95,5.61,12.61,12.54,12.7v21.56h-31.43l11.71-22.58L286.9,752.29z M260.88,834.26v21.25h-28.32l17.67-34.05
		c0,0.09-0.01,0.18-0.01,0.27C250.2,828.05,254.83,833.28,260.88,834.26z M214.7,889.92c0,0.09-0.01,0.17-0.01,0.26
		c0,5.26,3.22,9.79,7.78,11.72v22.12h-8.41v-0.11h-1.25v0.11H200.1l0.21-1.04l3.65-12.37L214.7,889.92z M197.11,997.33l0.53,23.97
		c-2.3-1.96-5.19-3.04-8.23-3.04c-3.82,0-7.24,1.7-9.58,4.38l5.2-25.31L197.11,997.33z M163.42,1102.47
		c1.45,5.43,6.39,9.45,12.27,9.45c3.25,0,6.18-1,8.35-2.82l0.05,24.15H167.9l-2.17-15.57l-2.32-15.14L163.42,1102.47z
		 M214.01,1202.78v11.31l-34.82,0.07l-1.57-11.22L214.01,1202.78z M214.01,1215.34v11.9l-32.99,0l-1.65-11.82L214.01,1215.34z
		 M214.01,1228.48v11.49l-31.19,0.13l-1.62-11.63L214.01,1228.48z M214.01,1241.23v11.62l-29.4,0.07l-1.61-11.56L214.01,1241.23z
		 M214.01,1254.1v11.31l-27.65,0.07l-1.58-11.3L214.01,1254.1z M234.1,1451.71l-2.19,15.4l-32.87-2.04l-0.04-13.39L234.1,1451.71z
		 M235.36,1451.71l20.83,0.02l-2.22,17.04l-5.25-0.62l-15.57-0.96L235.36,1451.71z M257.45,1451.73l16.44,0.01l-2.12,19.15
		l-3.88-0.47l-12.68-1.51L257.45,1451.73z M275.15,1451.74l15.08,0.01l-2.55,21.05l-14.66-1.76L275.15,1451.74z M291.49,1451.76
		l14.7,0.01l-2.53,22.95l-14.74-1.77L291.49,1451.76z M307.45,1451.77l7.47,0.01l4.74,0.54l-2.72,24l-12.04-1.45L307.45,1451.77z
		 M320.9,1452.46l11.5,1.31l-2.75,24.07l-11.47-1.38L320.9,1452.46z M384.94,1459.83l12.31,2.02l-4.08,24.05l-8.65-1.45l-2.77-0.33
		L384.94,1459.83z M436.39,1468.2l11.34,1.8l-4.19,24.36l-11.2-1.88L436.39,1468.2z M448.97,1470.2l11.64,1.85l-4.29,24.46
		l-11.54-1.94L448.97,1470.2z M461.84,1472.26l11.23,1.92l-4.25,24.44l-11.27-1.9L461.84,1472.26z M474.3,1474.39l11.35,1.94
		l-4.11,24.43l-11.49-1.93L474.3,1474.39z M486.89,1476.54l11.22,1.92l-3.79,24.44l-11.55-1.94L486.89,1476.54z M537.65,1485.54
		l11.14,1.92l-4.02,23.92l-11.1-1.87L537.65,1485.54z M550.02,1487.68l11.55,2l-4.21,23.83L546,1511.6L550.02,1487.68z
		 M558.59,1513.71l4.21-23.82l14.65,2.53l-0.26,24.42L558.59,1513.71z M568.36,1426.06l-0.01-23.95h10.08l-0.26,23.94
		L568.36,1426.06z M568.34,1400.86l-0.01-21c4.55-0.35,8.43-3.07,10.41-6.94l-0.3,27.94H568.34z M579.6,1293.16
		c-1.98-4.29-6.23-7.3-11.19-7.44v-21.05l1.79-0.01l3.99,6.22l5.6,4.6L579.6,1293.16z M490.27,1289.33h-11.58v-24.56l3.96,0l0.5,0
		v-0.06l3.86,0.4l3.27-0.02V1289.33z M453.28,1263.55L453.28,1263.55l-1.25-0.01v0.01l-58.23,0.07
		c-1.32-19.18-4.03-39.29-8.15-60.63l73.51-0.1l8.35,48.11l2.34,6.01l4.12,5.3l2.65,1.22L453.28,1263.55z M453.09,1086.74
		l-0.09-20.65h19.29l-8,31.42C463.46,1091.82,458.85,1087.35,453.09,1086.74z M472.61,1064.84H453l-0.1-24.6h7.16l0.56,0.02
		c2.34,2.1,5.34,3.25,8.49,3.25c4.29,0,8.08-2.14,10.39-5.41l-0.41,1.32L472.61,1064.84z M478.66,995.72l0.04-27.55h4.43l0.64,0.36
		c2.35,2.2,5.39,3.41,8.57,3.41c3.35,0,6.4-1.35,8.68-3.54l-8.44,27.31L478.66,995.72z M504.3,924.09v-24.42h17.96l-7.54,24.42
		H504.3z M523.28,896.34l-161.97,0.65c-1.19,0-2.32,0.63-2.95,1.63c-9.22,14.77-13.49,31.21-17.07,51.34
		c-0.13,0.74,0.07,1.49,0.55,2.06c0.48,0.57,1.18,0.9,1.92,0.9l140.43-0.11l0.25-0.04l0.15-0.15c2.85-2.94,6.96-4.07,10.45-2.87
		c3.49,1.2,5.77,4.45,6.27,8.83c-0.4,4.71-2.33,8.05-5.44,9.4c-3.35,1.46-7.65,0.42-11.85-2.87l-0.14-0.1l-144.69,0.23h-0.63
		l0.55,54.94c0.02,2.3,1.92,4.19,4.22,4.2l117.74,0.5l0.25-0.04l0.15-0.16c2.6-2.8,7.7-3.75,11.59-2.16
		c3.37,1.38,5.17,4.37,5.06,8.41c-0.3,4.24-2.16,7.31-5.24,8.64c-3.42,1.47-7.92,0.55-11.51-2.38l-0.14-0.11h-116.2
		c-0.98,0-1.91,0.43-2.56,1.17c-0.64,0.74-0.93,1.73-0.78,2.7l5.17,35.03l0.13,0.35l0.33,0.08c7.97,1.96,13.28,7.37,16.25,16.63
		l0.11,0.35h79.82l0.27-0.04l0.15-0.17c2.92-3.39,5.83-4.33,10.02-3.25c4.66,1.51,6.93,4.63,6.94,9.49c-0.52,4.78-2.7,8-6.67,9.82
		c-4.15,0.51-7.51-0.77-10.31-3.96l-0.15-0.17l-79.7,0.48l-0.39,0.09l-0.11,0.35c-1.3,4.25-3.32,7.76-6.06,10.5l-0.21,0.21
		l13.2,41.78c0.64,2.02,2.49,3.38,4.61,3.38h54.99l0.23-0.03l0.14-0.14c3.01-2.83,5.96-3.85,9.05-3.13
		c4.86,1.12,7.44,4.21,7.89,9.41c0.04,4.38-2.3,7.52-7.13,9.61c-4.15,0.55-7.14-0.59-9.16-3.54l-0.15-0.22l-55.5-0.49l-0.83-0.01
		l0.23,0.8c9.27,32.91,14.39,71.42,15.65,117.74l0.02,0.61h169.38l0.25-0.04l0.15-0.15c2.63-2.73,7.01-3.8,10.65-2.59
		c3.66,1.21,5.99,4.38,6.58,8.84c-0.27,4.12-2.47,7.41-5.9,8.8c-3.67,1.49-8.02,0.53-11.39-2.53l-0.14-0.13H390.77l-5.21,55.63
		l-0.06,0.68h173.74l0.25-0.04l0.15-0.15c2.61-2.72,6.55-3.76,10.28-2.69c3.62,1.04,6.26,3.85,7.06,7.54
		c-0.01,4.94-1.9,8.54-5.31,10.13c-3.63,1.7-8.26,0.76-12.11-2.47l-0.14-0.12H384.48l-14.55,56.09l207.04,0.23l-0.13,12.19
		l-188.56,1.38l-0.46,0l-0.09,1.16l188.74,32.29l-0.13,12.35l-190.72-32.1l-71.38-8.28l-114.07,0v-18.98l146.18,0.98l0.51,0
		l12.67-56.85l0.17-0.76l-141.36,0.3l-0.24,0.04l-0.15,0.14c-3.2,3.1-7.04,4.22-10.52,3.06c-3.58-1.19-6.18-4.68-6.96-9.35
		c0.58-4.66,3.07-8.18,6.67-9.43c3.53-1.23,7.57-0.05,10.84,3.2l0.15,0.15h143.75l4.11-56.32H210.63l-0.26,0.04l-0.15,0.17
		c-2.95,3.27-7.01,4.35-10.86,2.87c-3.88-1.49-6.39-5.09-6.39-9.17c0.01-3.98,1.96-7.24,5.2-8.71c3.75-1.71,8.38-0.76,12.14,2.49
		l0.14,0.12h6.73v-118.41h-24.75l-0.24,0.04l-0.15,0.15c-2.64,2.64-5.52,3.78-8.72,3.52c-5.16-0.96-8.02-3.91-8.73-8.92
		c0.31-6.04,3.05-9.63,8.1-10.67c3.77-0.45,6.81,0.68,9.36,3.52l0.15,0.17l149.86-0.34c0.96,0,1.84-0.45,2.41-1.23
		c0.57-0.78,0.72-1.76,0.43-2.67l-11.1-34.42l-0.14-0.27l-0.25-0.08c-8.47-2.52-14.27-8.35-16.78-16.95l-0.11-0.36H183.76
		l-0.24,0.04l-0.15,0.15c-3.08,3.1-6.3,4.19-9.83,3.33c-4.71-1.31-7.22-4.46-7.66-9.54c0.65-5.6,3.45-8.82,8.5-9.84
		c3.8-0.28,6.81,0.87,8.98,3.5l0.15,0.18h132.64l0.4-0.09l0.11-0.35c1.4-4.6,3.68-8.36,6.82-11.24l0.19-0.18l-6.25-41.58
		c-0.25-1.66-1.65-2.87-3.33-2.87H197.37l-0.26,0.04l-0.15,0.17c-2.57,2.84-5.62,3.96-9.29,3.42c-5.44-1.08-8.11-4.42-8.18-10.15
		c0.96-5.46,3.65-8.51,8.19-9.3c3.97-0.39,7.09,0.75,9.3,3.44l0.15,0.18l114.84-0.11c1.13,0,2.18-0.45,2.97-1.26
		c0.79-0.81,1.2-1.88,1.16-3.07c-1.91-14.4-2.49-31.69-1.76-52.86c0.02-0.72-0.24-1.4-0.74-1.92c-0.5-0.51-1.16-0.79-1.87-0.79
		L212.78,965l-0.25,0.04l-0.15,0.16c-2.66,2.85-5.87,3.95-9.8,3.34c-3.77-0.8-6.12-3.02-7.41-6.98c-0.55-1.69-0.55-3.52-0.02-5.31
		c1.21-4.06,3.9-6.46,7.95-7.12c4.09-0.22,7.03,0.89,9.02,3.47l0.15,0.2H312.3c2.05,0,3.83-1.47,4.22-3.49
		c3.45-17.57,7.12-34.59,14.1-49.75c0.32-0.68,0.26-1.47-0.14-2.1c-0.4-0.62-1.08-1-1.83-1l-93.02,0.01l-0.25,0.04l-0.15,0.15
		c-3.04,3.17-6.27,4.18-10.42,3.29c-5-1.72-7.24-5.17-7.06-10.78c1.11-5.19,4.08-8.11,9.08-8.92c3.5,0.17,6.17,1.38,8.44,3.86
		l0.15,0.16h100.99c1.92,0,2.84-1.53,3.34-2.63c10.16-17.29,23.36-33.58,39.26-48.44l0.11-0.12l0.04-0.13
		c0.35-1.17,0.13-2.4-0.61-3.38c-0.73-0.98-1.85-1.54-3.07-1.54l-104.43-0.07l-0.26,0.04l-0.15,0.17c-2.62,2.98-5.95,4.1-10.16,3.45
		c-5.68-2.28-7.96-5.95-7.19-11.47c1.47-4.95,4.19-7.65,8.25-8.26c3.86-0.13,6.9,1.09,9.09,3.68l0.15,0.18h130.43l7.04-4.47
		l1.24-1.7l0.09-0.15l0.01-0.15c0.4-8.61,5.01-16.5,12.36-21.14l0.15-0.09l0.93-2.62l-6.35-25.91l-108.95-0.09l-0.25,0.04
		l-0.15,0.15c-3.22,3.36-7.6,4.41-11.45,2.72c-3.96-1.73-6.24-5.74-5.97-10.46c1.14-4.19,3.84-7.11,7.42-8.01
		c3.53-0.89,7.27,0.29,10.04,3.21l0.15,0.16l104.38-0.39l0.93,0l-0.35-0.86c-10.2-25.09-20.14-42.52-31.32-54.9l-0.15-0.16h-33.22
		L347.5,691l-0.15,0.16c-2.82,3.04-6.75,4.11-10.52,2.87c-3.78-1.25-6.41-4.51-6.85-8.47c-0.15-4.32,2.18-8.17,5.95-9.8
		c3.76-1.63,8.04-0.58,11.47,2.87l0.15,0.15h193.18v-56.32H383.21l-0.24,0.04l-0.15,0.15c-3.23,3.24-7.54,4.32-11.24,2.84
		c-3.79-1.52-6.12-5.31-6.25-10.13c0.93-4.29,3.68-7.45,7.35-8.47c3.54-0.99,7.32,0.21,10.15,3.23l0.15,0.16h10.9l97.42-281.24
		l0.04-0.23l-0.08-0.18c-1.77-4.01-1.57-8.17,0.52-11.12c1.93-2.73,5.29-4.12,9.13-3.83c4.99,1.28,8.16,4.62,8.47,8.95
		c0.31,4.28-2.25,8.42-6.23,10.08l-0.57,0.24l1.23,3.09l-0.19,0.8h0.5l0.76,1.92h87.66l9.07-9.1l0.16-0.23l-0.02-0.23
		c-0.74-7.4,1.29-14.42,5.7-19.78c4.25-5.16,10.32-8.34,17.13-8.98l0.16-0.02l9.27-8.08l-18.56-21.55l-0.21-0.18h-0.23
		c-3.57,0-6.53-1.61-8.8-4.79c-1.78-4.89-1.24-8.84,1.6-12.02c4.35-3.53,8.64-3.81,13.06-0.87c3.05,2.68,4.26,5.75,3.69,9.47
		l-0.04,0.22l18.11,21.52l0.41,0.48l42.64-36.18l0.48-0.41l-48.42-56.22l5.95-10.97l0.26-0.47l48.81,56.67l0.19,0.22l4.99-0.09
		l37.67-32.74l0.17-0.15v-3.86l-54.75-63.34l-0.19-0.16l-0.21-0.01c-4.89-0.27-8.64-3.01-9.79-7.14c-1.15-4.15,0.69-8.58,4.65-11.28
		c3.23-1.84,6.92-1.86,9.85-0.06c3.22,1.97,5.01,5.82,4.79,10.35l-0.01,0.2l11.15,12.91l49.55-43.32l-30.01-34.8l-0.19-0.16
		l-0.21-0.01c-4.37-0.23-7.67-2.42-9.07-6.02c-1.46-3.76-0.41-8.2,2.64-11.29c3.12-2.65,7.25-3.12,10.78-1.22
		c3.67,1.98,5.7,6.02,5.17,10.34l-0.03,0.22l30.54,35.15l19.68-17.05l7.7,9.51l-78.02,67.67l-0.47,0.41l36.84,42.94l0.41,0.48
		l57.74-49.73c2.61-2.66,3.43-6.3,2.65-11.85c-1.74-8.57-0.9-17.03,2.47-25.16l3.72,4.75l9.12,10.22l0,0l0.1,0.11
		c-1.22,2.88-1.86,5.96-1.86,8.93c0,9.52,7.74,17.26,17.26,17.26c2.31,0,4.72-0.38,6.99-1.09l13.53,15.17
		c-10.13,2.15-19.38,1.7-27.53-1.36l-0.1-0.03c-4.38-0.69-7.55-0.34-10.07,1.14l-57.35,49.4l-0.47,0.41l37.14,43.24l0.41,0.47
		l79.03-68.2l8.08,9.12l-27.24,22.8l37.24,43.57l0.18,0.16l0.21,0.02c4.27,0.36,7.18,1.97,8.88,4.88c2.43,4.85,1.58,9.01-2.53,12.37
		c-3.3,2.59-6.71,2.93-10.73,1.07c-3.55-1.58-5.23-4.89-5.12-10.17l0-0.19l-36.85-42.81l-0.41-0.48l-42.2,36.67l-0.47,0.41
		l21.87,25.18l0.19,0.16l0.21,0.01c4.3,0.21,7.16,1.93,8.72,5.22c1.38,3.44,2.23,7.55-1.99,11.94c-3.16,2.71-6.89,3.13-11.32,1.31
		c-4.66-2.98-5.12-6.69-4.92-10.32l0.01-0.2l-21.63-24.6l-0.41-0.47l-41.13,35.36l-17.51-0.58l50.33-43.82l0.47-0.41l-37.28-43.08
		l-0.41-0.47l-90.97,78.75l-12.15,14.87l-0.16,0.29l0.11,0.27c2.64,6.78,2.8,13.59,0.45,20.27l-0.05,0.15l19.42,71.12l29.61,107.64
		l42.12,95.54l0.13,0.3h14.83l0.29-0.05l0.15-0.2c2.01-2.66,4.97-3.78,9.34-3.53c5.11,1.75,7.67,4.67,8.06,9.14
		c-0.09,4.96-2.13,8.2-6.25,9.92c-3.65,1.59-7.43,0.61-11.26-2.96l-0.14-0.13h-192.1v56.32h231.51l0.21-0.03l0.14-0.11
		c3.43-2.84,5.67-3.46,7.96-3.5c1.44-0.02,2.87,0.23,4.17,0.71c3.69,1.38,5.79,3.99,6.21,7.69c-0.01,4.18-1.21,9.43-6.8,10.64
		c-4.2,0.77-6.6-0.42-10.76-3.58l-0.13-0.1l-82.58,0.05c-1.91,0-3.46,1.55-3.46,3.46v49.54c0,1.91,1.55,3.47,3.47,3.47h123.51
		l0.22-0.03l0.14-0.12c2.35-2.07,5.08-3,8.28-2.85c5,0.65,7.88,3.58,8.79,8.91c0.44,5.1-1.96,8.41-7.27,10.1
		c-3.64,0.63-6.83-0.46-9.81-3.39l-0.15-0.14l-124.18-0.02c-1.09,0-1.95,0.37-2.53,1.11c-0.52,0.65-0.78,1.55-0.78,2.67l0.31,22.64
		c0,1.62,0.41,2.88,1.19,3.66c0.61,0.61,1.43,0.92,2.42,0.92l148.88-0.28l0.26-0.04l0.15-0.17c2.8-3.17,6.03-4.26,9.58-3.28
		c5.06,1.69,7.61,4.97,7.8,9.98c-0.23,3.31-2.65,6.18-7,8.31c-3.38,1.57-6.78,0.77-10.45-2.48l-0.14-0.13H476.51l-13.91,9.11
		l-0.22,0.2l-0.01,0.25c-0.33,6.48-3.02,12.6-7.59,17.23l-0.94,2.39l25.82,26.95l0.18,0.19l53.56-0.14l-7.5,29.32L523.28,896.34z
		 M826.97,311.72c-4.45-1.58-7.66-5.83-7.66-10.86l-0.11-1.15l-19.64-22.69l-0.41-0.47L761,309.52l-1.07-0.04l39.16-33.66
		l20.88,23.75c-0.18,3.87,0.42,7.88,5.61,11.19c1.19,0.49,2.34,0.82,3.45,1.02L826.97,311.72z M779.94,294.81l13.13,15.78
		l-30.23-1.01L779.94,294.81z M780.89,293.99l8.4-7.26l21.28,24.44l-15.81-0.53L780.89,293.99z M790.23,285.92l8.8-7.6l18.96,21.91
		l0.07,0.69c0,4.49,2.35,8.43,5.87,10.7l-11.66-0.39L790.23,285.92z M865.04,287.43l-7.68-8.89l18.53-16.14l7.95,9.18L865.04,287.43
		z M856.54,277.59l-7.49-8.67l18.54-16.1l7.47,8.63L856.54,277.59z M848.24,267.98l-7.5-8.68l18.59-16.02l7.45,8.6L848.24,267.98z
		 M839.92,258.35l-7.62-8.83l18.54-16.04l7.67,8.85L839.92,258.35z M838.97,259.17l-18.33,15.8l-7.6-8.78l18.3-15.84L838.97,259.17z
		 M839.79,260.11l7.5,8.68l-18.26,15.85l-7.57-8.74L839.79,260.11z M848.11,269.74l7.49,8.67l-15.69,13.67
		c-1.96-2.03-4.58-3.42-7.55-3.78l-0.29-0.15l-2.21-2.56L848.11,269.74z M865.86,288.38l18.8-15.85l0.35,0.41l0.32,0.85
		c0.06,6.95,5.75,12.59,12.71,12.59c0.65,0,1.28-0.06,1.9-0.16l-23.78,14.1L865.86,288.38z M908.74,266.78
		c-2.13-3.31-5.76-5.57-9.96-5.81l-0.63-0.3l26.34-23.16l7.87,8.83L908.74,266.78z M897.31,259.74l-7.65-9.05l26.22-22.83l7.77,8.71
		L897.31,259.74z M888.85,249.73l-7.46-8.82l26.15-22.4l7.51,8.42L888.85,249.73z M880.58,239.96l-7.46-8.83l25.72-22.39l7.88,8.83
		L880.58,239.96z M843.49,300.92c0-2.97-1.03-5.71-2.76-7.89l15.69-13.67l7.67,8.88l-0.14,0.12l0.81,0.95l0.15-0.13l10.18,11.78
		l-19.72,11.7l-18.46-0.61C840.82,309.88,843.49,305.71,843.49,300.92z M908.14,281.36c1.63-2.14,2.62-4.8,2.62-7.69
		c0-2.08-0.5-4.04-1.39-5.78l23.82-20.61l11.22,12.58L908.14,281.36z M872.31,230.18l-7.46-8.82l25.63-21.98l7.52,8.44
		L872.31,230.18z M863.57,220.81l-0.47,0.4l34.11,40.33l1.14,0.6l0.24,0.06c6.12,0.29,10.92,5.31,10.92,11.45
		c0,6.32-5.14,11.46-11.46,11.46c-6.32,0-11.46-5.14-11.46-11.46l-0.47-1.36l-0.5-0.58l0.16-0.13l-0.81-0.95l-0.17,0.14
		l-33.42-38.59l-0.41-0.47l-39.68,34.33l8.42,9.72l-0.09,0.08l0.82,0.95l0.09-0.08l10.68,12.34l0.76,0.44l0.13,0.03
		c5.78,0.66,10.14,5.56,10.14,11.39c0,5.25-3.55,9.67-8.37,11.03l-1.21-0.04c2.04-0.28,3.94-1.15,5.68-2.65
		c4.78-4.97,3.73-9.73,2.28-13.35c-1.73-3.66-4.94-5.66-9.54-5.96l-20.83-23.99l40.78-35.43l36.13,41.97
		c-0.06,5.58,1.91,9.3,5.86,11.05c4.48,2.08,8.3,1.69,12.02-1.23c4.63-3.79,5.59-8.47,2.84-13.94c-1.91-3.26-5.05-5.06-9.62-5.5
		l-36.22-42.38l27.08-22.66l0.54,0.61L863.57,220.81z M800.52,254.87l-35.92-41.82l56.78-48.93c2.16-1.26,5.04-1.56,9.07-0.94
		c8.53,3.2,18.23,3.61,28.85,1.24l1.53,1.71c-12.32,2.67-22.49,2.31-31.11-1.14c-2.73-0.78-5.27-0.43-7.61,1.08l-55.67,48.18
		l33.93,39.21l0.41,0.47l19.36-16.8l0.05,0.05l0.94-0.82l-0.04-0.05l18.48-16.04l0.29,0.33l0.95-0.82l-0.29-0.33l8.48-7.36
		l0.25,0.29l0.95-0.82l-0.25-0.29l18.54-16.1l0,0l0.95-0.81l-0.01-0.01l9.34-8.11l0.55,0.62L800.52,254.87z M831.71,191.95
		l-8.65,7.43l-16.12-18.53l8.73-7.56L831.71,191.95z M822.11,200.2l-8.8,7.56l-15.88-18.67l8.56-7.41L822.11,200.2z M812.37,208.57
		l-8.85,7.6l-16.08-18.44l9.05-7.83L812.37,208.57z M802.58,216.98l-8.96,7.69l-15.87-18.55l8.75-7.57L802.58,216.98z
		 M792.67,225.48l-8.51,7.31l-15.94-18.42l8.59-7.44L792.67,225.48z M793.48,226.43l15.79,18.47l-8.36,7.26l-15.94-18.42
		L793.48,226.43z M794.43,225.62l8.96-7.7l15.93,18.26l-9.1,7.9L794.43,225.62z M804.35,217.11l8.83-7.59l15.66,18.41l-8.57,7.44
		L804.35,217.11z M814.13,208.7l8.81-7.56l15.82,18.18l-8.97,7.78L814.13,208.7z M823.88,200.32l8.64-7.42l15.66,18.23l-8.49,7.37
		L823.88,200.32z M833.47,192.09l8.84-7.6L858,202.62l-8.87,7.7L833.47,192.09z M843.26,183.68l8.87-7.62l15.54,18.16l-8.73,7.58
		L843.26,183.68z M852.27,174.29L852.27,174.29l-0.95,0.81l0,0l-18.67,16.03l-16.03-18.67l6.24-5.4c1.96-1.26,4.14-1.55,6.46-0.9
		c8.57,3.43,18.66,3.89,30.78,1.4L852.27,174.29z M868.62,193.4l-15.53-18.16l8.99-7.72l15.86,17.79L868.62,193.4z M837.83,147.76
		c-8.69,0-15.76-7.07-15.76-15.76c0-2.54,0.51-5.18,1.48-7.68l20.16,22.61C841.78,147.46,839.77,147.76,837.83,147.76z
		 M883.29,792.42c0.37,1.12,0.57,2.31,0.57,3.55c0,6.32-5.14,11.46-11.46,11.46c-3.08,0-5.97-1.2-8.17-3.42l-0.12-0.12l-0.93-0.14
		l-20.43,0.06v-0.04h-1.25v0.04l-24.17,0.07v-0.14h-1.25v0.15l-11.56,0.03v-0.04h-1.25v0.05l-11.56,0.01v-0.19h-1.25v0.19
		l-24.26,0.02v-0.01h-1.25v0.01l-24.37,0.02v-0.03h-1.25v0.03L727.7,804v-0.15h-1.25v0.15l-11.51,0.01v-0.05h-1.25v0.05l-15.97,0.01
		v-0.09h-1.25v0.1l-11.26,0.01l-38.58,0.05v-0.15h-1.25v0.15l-49.99,0.06v-0.21h-1.25v0.21l-114.6,0.14h-0.14l-1.8,1.13h-0.23v0.14
		l-11.85,7.43l-0.22,0.2l-0.02,0.25c-0.43,5.76-2.79,11.07-7.39,16.58h-0.15v0.18c-0.33,0.39-0.67,0.78-1.02,1.18l-0.34,0.38
		l0.3,0.41c0.65,0.88,1.28,1.72,1.92,2.55l-3.33-3.47l0.48-1.31c4.65-4.76,7.43-11,7.84-17.62l13.28-8.7h386.93
		c3.93,3.4,7.83,4.24,11.61,2.48c4.78-2.34,7.45-5.57,7.71-9.42c-0.21-5.66-3.04-9.32-8.69-11.2c-4-1.12-7.59,0.04-10.69,3.43
		l-148.55,0.28c-0.65,0-1.16-0.19-1.53-0.56c-0.54-0.54-0.83-1.5-0.83-2.79l-0.31-22.64c0-0.82,0.17-1.46,0.51-1.88
		c0.34-0.43,0.85-0.64,1.55-0.64l123.67,0.02c3.2,3.06,6.7,4.21,10.76,3.49c5.95-1.88,8.71-5.73,8.21-11.47
		c-1.02-6-4.25-9.26-9.92-10c-3.45-0.16-6.5,0.85-9.03,3H715.04c-0.46,0-0.9-0.15-1.25-0.39h13.26v0.06h1.25v-0.06h11.84v0.06h1.25
		v-0.06h62.53v0.06h1.25v-0.06h24.23v0.17h1.25v-0.17h7.23l1.06-0.86c2.02-1.87,4.81-2.91,7.86-2.91c3.25,0,6.23,1.49,8.36,3.83
		l2.49,4.17c0.45,1.27,0.71,2.62,0.71,4.03c0,6.32-5.14,11.46-11.46,11.46c-2.99,0-5.81-1.14-7.96-3.22l-1.07-0.43l-7.43,0v-0.08
		h-1.25v0.08l-11.41,0v-0.08h-1.25v0.08l-11.7,0v-0.07h-1.25v0.07l-11.22,0v-0.07h-1.25v0.07l-11.7,0v-0.07h-1.25v0.06l-11.41,0
		v-0.06h-1.25v0.06l-11.7,0v-0.06h-1.25v0.06l-11.53,0v-0.05h-1.25v0.05l-11.7,0v-0.05h-1.25v0.05l-13.18,0v26.86l13.18-0.02v0.07
		h1.25v-0.07l11.7-0.02v0.09h1.25v-0.09l11.53-0.02v0.11h1.25v-0.12l11.7-0.02v0.14h1.25v-0.14l11.41-0.02v0.16h1.25v-0.16
		l11.7-0.02v0.18h1.25v-0.19l11.22-0.02v0.21h1.25v-0.21l11.7-0.02v0.23h1.25v-0.23l11.41-0.02v0.25h1.25v-0.25l11.32-0.02v0.27H843
		v-0.28l20.45-0.04l1.21-0.49l0.09-0.07c2.1-1.88,4.81-2.91,7.64-2.91c3.27,0,6.21,1.38,8.3,3.58L883.29,792.42z M516.24,830.02
		H504.3v-24.51l11.94-0.01V830.02z M478.62,831.27h11.94v23.85h-9.85c-0.69-0.45-1.39-0.94-2.09-1.45V831.27z M491.81,831.27h11.24
		v23.85h-11.24V831.27z M504.3,831.27h11.94v23.85H504.3V831.27z M503.05,830.02h-11.24v-24.49l11.24-0.01V830.02z M490.56,830.02
		h-11.94v-23.76l1.14-0.71l10.8-0.01V830.02z M477.37,830.02h-17.86c4.27-5.33,6.51-10.53,7-16.17l10.86-6.81V830.02z
		 M458.47,831.27h18.89v21.47c-6.11-4.71-12.36-11.46-19.37-20.91C458.16,831.64,458.31,831.45,458.47,831.27z M517.49,830.02
		v-24.52l11.09-0.01v24.54H517.49z M480.37,857.43l-2.81-2.94h0.07c0.86,0.63,1.72,1.23,2.58,1.79l0.13,0.08h10.23v0.26h1.25v-0.26
		h11.24v0.27h1.25v-0.27h11.94v0.26h1.25v-0.26h16.47l-0.24,0.93L480.37,857.43z M517.49,855.12v-23.85h22.9l-6.11,23.85H517.49z
		 M556.85,805.45l11.61-0.01v23.61l-11.61-0.99V805.45z M569.72,805.43l11.51-0.01v24.71l-11.51-0.98V805.43z M582.48,805.42
		l11.65-0.01v25.82l-11.65-0.99V805.42z M595.38,805.4l11.47-0.01v26.91l-11.47-0.97V805.4z M646.62,805.34l11.31-0.01v28.25
		l-11.31,0.37V805.34z M659.19,805.32l11.61-0.01v27.85l-11.61,0.38V805.32z M672.05,805.31l11.51-0.01v27.44l-11.51,0.38V805.31z
		 M684.81,805.29l0.39,0l11.26-0.01v27.03l-11.65,0.38V805.29z M697.71,805.28l15.97-0.01v26.49l-15.97,0.52V805.28z M714.94,805.27
		l11.51-0.01v26.08l-11.51,0.38V805.27z M727.7,805.25l11.65-0.01v25.67l-11.65,0.38V805.25z M740.6,805.24l11.46-0.01v25.26
		l-11.46,0.38V805.24z M753.31,805.23l11.66-0.01v24.85l-11.66,0.38V805.23z M766.22,805.22l11.46-0.01v24.45l-11.46,0.38V805.22z
		 M778.92,805.21l11.56-0.01v24.04l-11.56,0.38V805.21z M726.82,786.98L714.89,787v-24.36h11.93V786.98z M728.07,762.64h11.7v24.32
		l-11.7,0.02V762.64z M741.02,762.64h11.53v24.29l-11.53,0.02V762.64z M753.8,762.64h11.7v24.27l-11.7,0.02V762.64z M766.75,762.64
		h11.41v24.25l-11.41,0.02V762.64z M779.41,762.64h11.7v24.22l-11.7,0.02V762.64z M792.36,762.64h11.22v24.2l-11.22,0.02V762.64z
		 M804.83,762.64h11.7v24.18l-11.7,0.02V762.64z M817.78,762.64h11.41v24.16l-11.41,0.02V762.64z M841.75,786.77l-11.32,0.02v-24.15
		h7.12l0.61,0.21c1.06,1.01,2.28,1.8,3.59,2.38V786.77z M818.04,719.9h11.36v24.2h-11.36V719.9z M816.79,744.1h-11.62v-24.2h11.62
		V744.1z M803.92,744.1h-11.94v-24.2h11.94V744.1z M728.3,719.9h11.84v24.2H728.3V719.9z M741.39,719.9h11.48v24.2h-11.48V719.9z
		 M754.12,719.9h11.48v24.2h-11.48V719.9z M766.85,719.9h11.62v24.2h-11.62V719.9z M779.72,719.9h11.01v24.2h-11.01V719.9z
		 M791.98,718.65v-24.52h4.84c0.75,0.65,3.62,2.98,7.1,3.62v20.9H791.98z M790.73,718.65h-11.01v-24.52h11.01V718.65z
		 M778.47,718.65h-11.62v-24.52h11.62V718.65z M765.6,718.65h-11.48v-24.52h11.48V718.65z M752.87,718.65h-11.48v-24.52h11.48
		V718.65z M740.14,718.65H728.3v-24.52h11.84V718.65z M727.05,718.65h-12.16v-24.52h12.16V718.65z M714.89,719.9h12.16v24.2h-12.16
		V719.9z M872.4,783.26c-3.1,0-6.08,1.12-8.4,3.17l-0.68,0.31L843,786.77V765.7c1.24,0.4,2.55,0.62,3.89,0.62
		c7.01,0,12.71-5.7,12.71-12.71c0-0.28-0.02-0.55-0.04-0.83l19.32,32.28C876.98,783.92,874.77,783.26,872.4,783.26z M846.79,740.34
		c-3.36,0-6.45,1.15-8.67,3.21l-0.68,0.55h-6.79v-24.2h9.23l13.36,22.32C851.33,741.03,849.12,740.34,846.79,740.34z M830.65,718.65
		v-0.03h-1.25v0.03h-24.23v-20.76c0.37,0.02,0.74,0.03,1.12,0c7.41-0.52,12.58-5.59,12.58-12.31c0-0.28-0.02-0.56-0.04-0.84
		l20.3,33.91H830.65z M569.55,650.92h11.26v24.46h-11.26V650.92z M761.51,649.67v-21.11c1.12,0.32,2.28,0.5,3.46,0.5
		c3.1,0,5.94-1.14,8.15-3.03v23.65H761.51z M760.26,649.67H748.9v-23.77h7.71l0.11,0.06c1.06,0.92,2.26,1.64,3.53,2.16V649.67z
		 M747.65,649.67h-11.44v-23.77h11.44V649.67z M734.96,649.67h-11.61v-23.77h11.61V649.67z M722.1,649.67h-11.36v-23.77h11.36
		V649.67z M709.49,649.67h-12.23v-23.77h12.23V649.67z M696.01,649.67H684.4v-23.77h11.61V649.67z M683.15,649.67h-11.36v-23.77
		h11.36V649.67z M670.54,649.67h-11.62v-23.77h11.62V649.67z M657.67,649.67h-11.94v-23.77h11.94V649.67z M644.48,649.67h-11.01
		v-23.77h11.01V649.67z M632.22,649.67H620.6v-23.77h11.62V649.67z M619.35,649.67h-11.48v-23.77h11.48V649.67z M606.62,649.67
		h-11.48v-23.77h11.48V649.67z M593.89,649.67h-11.84v-23.77h11.84V649.67z M580.8,649.67h-11.26v-23.77h11.26V649.67z
		 M582.05,650.92h11.84v24.46h-11.84V650.92z M595.14,650.92h11.48v24.46h-11.48V650.92z M607.87,650.92h11.48v24.46h-11.48V650.92z
		 M620.6,650.92h11.62v24.46H620.6V650.92z M633.47,650.92h11.01v24.46h-11.01V650.92z M645.73,650.92h11.94v24.46h-11.94V650.92z
		 M658.92,650.92h11.62v24.46h-11.62V650.92z M671.79,650.92h11.36v24.46h-11.36V650.92z M684.4,650.92h11.61v24.46H684.4V650.92z
		 M697.26,650.92h12.23v24.46h-12.23V650.92z M710.74,650.92h11.36v24.46h-11.36V650.92z M723.35,650.92h11.61v24.46h-11.61V650.92z
		 M736.21,650.92h11.44v24.46h-11.44V650.92z M748.9,650.92h11.36v24.46H748.9V650.92z M761.51,650.92h11.61v24.46h-11.61V650.92z
		 M774.37,650.92h11.93v24.46h-11.93V650.92z M806.25,671.39c-3.1,0-6.07,1.12-8.38,3.15l-1.47,0.84h-8.84v-24.46h11.04l13.2,22.06
		C810.13,671.99,808.27,671.39,806.25,671.39z M774.37,649.67v-24.89c2.05-2.3,3.31-5.35,3.31-8.7c0-0.03,0-0.07-0.01-0.1
		l20.17,33.69H774.37z M736.96,589.98l-4.7-10.57l22.13-9.67l4.61,10.39L736.96,589.98z M721.35,554.89l-4.64-10.43l22.03-10.01
		l4.71,10.63L721.35,554.89z M716.2,543.32l-4.67-10.51l22.08-9.94l4.62,10.43L716.2,543.32z M711.02,531.67l-4.76-10.71l22.18-9.77
		l4.67,10.54L711.02,531.67z M700.46,504.41l-3.2-11.6l23.38-6.46l3.12,11.33L700.46,504.41z M696.93,491.61l-3.02-10.97l23.41-6.37
		l2.99,10.88L696.93,491.61z M686.76,454.69l-3.06-11.1l23.34-6.69l3.14,11.4L686.76,454.69z M683.37,442.38l-3.08-11.2l23.4-6.5
		l3.03,11L683.37,442.38z M679.95,429.98l-3.08-11.07l23.45-6.42l3.02,11L679.95,429.98z M666.23,380.69l-3.1-11.13l23.62-6.43
		l3.02,10.97L666.23,380.69z M662.8,368.36l-3-11.24l23.45-6.74l3.17,11.54L662.8,368.36z M742.79,270.38l8.68-7.45l15.89,18.27
		l-8.57,7.42L742.79,270.38z M752.42,262.11l8.69-7.47l15.79,18.3l-8.59,7.44L752.42,262.11z M762.06,253.83l9.06-7.78l15.78,18.24
		l-9.05,7.84L762.06,253.83z M761.24,252.89l-16.04-18.59l9-7.79l16.1,18.6L761.24,252.89z M760.29,253.7l-8.7,7.47l-16.09-18.49
		l8.74-7.56L760.29,253.7z M750.65,261.99l-8.68,7.46l-16.14-18.39l8.74-7.56L750.65,261.99z M741.02,270.26l-8.72,7.49
		l-16.04-18.41l8.62-7.46L741.02,270.26z M731.35,278.56l-8.68,7.46l-16.04-18.34l8.69-7.52L731.35,278.56z M721.72,286.83
		l-8.76,7.53l-15.63-18.64l8.35-7.23L721.72,286.83z M712.01,295.17l-9.01,7.74l-15.98-18.27l9.37-8.11L712.01,295.17z
		 M733.12,278.69l8.72-7.49l16.01,18.24l-8.76,7.58L733.12,278.69z M764.97,603.11c-3.27,0-6.38,1.26-8.75,3.56l-0.16,0.08h-11.64
		l-6.95-15.63l22.03-9.86l3.44,7.76l5.71,10.23l3.12,5.89C769.8,603.86,767.47,603.11,764.97,603.11z M731.75,578.26l-4.66-10.49
		l22.13-9.71l4.66,10.52L731.75,578.26z M726.57,566.63l-4.72-10.6l22.1-9.81l4.74,10.7L726.57,566.63z M705.75,519.82l-2.74-6.17
		l-2.21-8.04l23.3-6.74l1.82,6.61l2.02,4.56L705.75,519.82z M693.58,479.43l-3.06-11.12l23.41-6.38l3.06,11.13L693.58,479.43z
		 M690.18,467.1l-3.09-11.2l23.41-6.4l3.09,11.22L690.18,467.1z M676.54,417.71l-3.16-11.34l23.55-6.23l3.06,11.14L676.54,417.71z
		 M673.04,405.16L670,394.23l23.5-6.56l3.1,11.26L673.04,405.16z M669.67,393.03l-3.1-11.13l23.53-6.59l3.07,11.16L669.67,393.03z
		 M659.47,355.91l-2.98-11.16l23.45-6.39l2.97,10.81L659.47,355.91z M656.17,343.55l-2.01-7.53c0.48-1.42,0.84-2.85,1.11-4.3
		l21.25-5.81l3.09,11.24L656.17,343.55z M655.48,330.36c0.64-4.44,0.33-8.96-0.96-13.51l11.03-13.49l6.98,8.07l3.65,13.28
		L655.48,330.36z M677.05,306.73l-3.8,3.62l-6.82-7.88l19.65-17l19.44,22.22l-28.14-0.94L677.05,306.73z M703.82,303.85l28.35-24.35
		l15.97,18.33l-12.53,10.84l-28.39-0.94L703.82,303.85z M777.72,273.89l0.23,0.27l0.95-0.82l-0.24-0.27l10-8.65l-33.93-39.21
		l-0.41-0.47l-48.52,41.99l-0.08-0.09l-0.94,0.83l0.08,0.09l-39.8,34.45l-11.76,14.36l-0.15,0.27l0.08,0.25
		c1.37,4.67,1.67,9.3,0.94,13.84l-0.09,0.03l0.06,0.22c-0.28,1.63-0.68,3.25-1.23,4.85l-0.05,0.15l2.11,7.91l-0.08,0.02l0.33,1.21
		l0.07-0.02l6.37,23.82l17.1,61.42l-0.02,0.01l0.33,1.21l0.02-0.01l22.75,82.55l41.64,93.63l0.13,0.3h12.6l0.72-0.29l0.1-0.08
		c2.15-2.11,4.97-3.27,7.94-3.27c3.3,0,6.28,1.45,8.37,3.74l2.75,5.18c0.22,0.9,0.34,1.83,0.34,2.8c0,3.09-1.18,5.89-3.1,7.99h-0.21
		v0.24c-2.08,2.16-4.97,3.5-8.15,3.5c-1.18,0-2.35-0.2-3.46-0.56v-0.14h-0.44c-1.3-0.48-2.51-1.2-3.58-2.13l-0.55-0.3l-8.04,0v-0.23
		h-1.25v0.23l-11.44,0v-0.21h-1.25v0.21l-11.61,0v-0.21h-1.25v0.21l-11.36,0v-0.23h-1.25v0.23l-12.23,0v-0.21h-1.25v0.21l-11.61,0
		v-0.21h-1.25v0.21l-11.36,0v-0.22h-1.25v0.22l-24.81,0v-0.22h-1.25v0.22l-11.01,0v-0.37h-1.25v0.37l-11.62,0v-0.29h-1.25v0.29
		l-24.21,0v-0.32h-1.25v0.32l-11.84,0v-0.33h-1.25v0.33l-12.51,0v51.97h12.51v0.37h1.25v-0.37h11.84v0.37h1.25v-0.37h49.34v0.08
		h1.25v-0.08h11.94v0.37h1.25v-0.37h11.62v0.08h1.25v-0.08h11.36v0.48h1.25v-0.48h11.61v0.37h1.25v-0.37h12.23v0.08h1.25v-0.08
		h11.36v0.48h1.25v-0.48h11.61v0.37h1.25v-0.37h11.44v0.08h1.25v-0.08h37.4v0.08h1.25v-0.08h9.18l1.83-1.04l0.08-0.06
		c2.1-1.86,4.8-2.89,7.61-2.89c2.83,0,5.34,1.29,7.29,3.25l3.44,5.75c0.41,1.3,0.65,2.63,0.65,3.94c0,6.04-4.7,10.59-11.42,11.07
		c-4.46,0.32-8.67-3.55-8.75-3.63l-0.14-0.14h-5.33v-0.03h-1.25v0.03h-11.01v-0.17h-1.25v0.17h-11.62v-0.09h-1.25v0.09h-24.21v-0.12
		h-1.25v0.12H728.3v-0.14h-1.25v0.14h-13.41v52.35c-0.49-0.41-0.81-1.01-0.81-1.7v-49.54c0-1.22,0.99-2.21,2.21-2.21l82.15-0.05
		c4.17,3.15,6.98,4.5,11.56,3.66c5.08-1.1,7.78-5.21,7.8-11.94c-0.49-4.27-2.85-7.23-7.02-8.79c-1.45-0.55-3.06-0.81-4.64-0.79
		c-2.51,0.05-4.94,0.7-8.55,3.65H566.34v-53.82h190.36c4.14,3.76,8.31,4.77,12.39,2.99c4.55-1.9,6.91-5.62,7-11.11
		c-0.44-5.11-3.3-8.39-9.05-10.33l-0.11-0.02c-4.73-0.28-8.01,0.91-10.3,3.77H743l-41.89-95l-29.58-107.55l-19.32-70.74
		c2.33-6.76,2.19-13.68-0.42-20.57l11.8-14.45l89.95-77.85l36.06,41.66l-50.87,44.29l-1.28-0.04L777.72,273.89z M541.54,826.75
		l-0.84,3.26h-10.88v-24.54l11.96-0.01v21.31L541.54,826.75z M543.04,805.46l12.57-0.02v22.5l-12.57-1.07V805.46z M608.1,805.39
		l11.61-0.01v27.78l-8.1-0.45l-3.51-0.3V805.39z M620.96,805.37l11.51-0.01v28.49l-11.51-0.63V805.37z M633.72,805.35l11.65-0.01
		v28.65l-6.51,0.21l-5.15-0.28V805.35z M791.73,805.2l11.56-0.01v23.63l-11.56,0.38V805.2z M804.53,828.78v-23.59l11.56-0.04v22.91
		l-5.47,0.52L804.53,828.78z M817.34,805.14l24.17-0.07v20.58l-24.17,2.3V805.14z M842.76,805.07l20.33-0.06l0.43,0.07
		c2.39,2.33,5.53,3.61,8.88,3.61c7.01,0,12.71-5.7,12.71-12.71c0-0.19-0.02-0.37-0.03-0.56l9.99,16.69l-31.41,9.38l-20.52,4.01
		l-0.38,0.04V805.07z"/>
	<path class="st0" d="M646.45,555.74h-1.25v0.12h-11.62v-0.03h-1.25v0.03h-24.21v-0.07h-1.25v0.07h-24.21v-0.07h-1.25v0.07h-13.12
		v52.47h13.12v0.12h1.25v-0.12h24.21v0.12h1.25v-0.12h62.53v0.12h1.25v-0.12h54.16l-11.77-26.56v-0.14h-0.06l-11.29-25.47l-0.13-0.3
		h-56.36V555.74z M620.85,582.87h11.48v24.21h-11.48V582.87z M633.58,582.87h11.62v24.21h-11.62V582.87z M646.45,582.87h11.01v24.21
		h-11.01V582.87z M684.78,582.87h11.8v24.21h-11.8V582.87z M683.53,581.62H671.9V557.1h11.62V581.62z M670.65,581.62h-11.94V557.1
		h11.94V581.62z M633.58,581.62V557.1h11.62v24.52H633.58z M632.33,581.62h-11.48V557.1h11.48V581.62z M619.6,581.62h-11.48V557.1
		h11.48V581.62z M606.87,581.62h-11.48V557.1h11.48V581.62z M594.14,581.62h-11.48V557.1h11.48V581.62z M581.41,581.62h-11.87V557.1
		h11.87V581.62z M569.54,582.87h11.87v24.21h-11.87V582.87z M582.66,582.87h11.48v24.21h-11.48V582.87z M595.39,582.87h11.48v24.21
		h-11.48V582.87z M608.12,582.87h11.48v24.21h-11.48V582.87z M658.71,582.87h11.94v24.21h-11.94V582.87z M671.9,582.87h11.62v24.21
		H671.9V582.87z M697.83,607.08v-24.21h15.59l10.73,24.21H697.83z M684.78,581.62V557.1h17.22l10.87,24.52H684.78z M657.46,581.62
		h-11.01V557.1h11.01V581.62z"/>
	<path class="st0" d="M486.4,555.74h-1.25v0.12h-11.62v-0.03h-1.25v0.03h-24.21v-0.07h-1.25v0.07h-19.14l-18.18,52.47h37.32v0.12
		h1.25v-0.12h62.53v0.12h1.25v-0.12h25.68v-52.47H486.4V555.74z M536.28,581.62h-11.56V557.1h11.56V581.62z M460.8,582.87h11.48
		v24.21H460.8V582.87z M473.53,582.87h11.62v24.21h-11.62V582.87z M486.4,582.87h11.01v24.21H486.4V582.87z M523.47,581.62h-11.62
		V557.1h11.62V581.62z M510.6,581.62h-11.94V557.1h11.94V581.62z M473.53,581.62V557.1h11.62v24.52H473.53z M472.28,581.62H460.8
		V557.1h11.48V581.62z M459.55,581.62h-11.48V557.1h11.48V581.62z M446.82,581.62h-11.48V557.1h11.48V581.62z M434.09,557.1v24.52
		h-14.02l8.49-24.52H434.09z M419.64,582.87h14.45v24.21h-22.83L419.64,582.87z M435.34,582.87h11.48v24.21h-11.48V582.87z
		 M448.07,582.87h11.48v24.21h-11.48V582.87z M498.66,582.87h11.94v24.21h-11.94V582.87z M511.85,582.87h11.62v24.21h-11.62V582.87z
		 M524.72,607.08v-24.21h11.56v24.21H524.72z M497.41,581.62H486.4V557.1h11.01V581.62z"/>
	<path class="st0" d="M684.87,761.34h-1.25v0.05h-11.7v-0.05h-1.25v0.05h-11.41v-0.05h-1.25v0.05h-11.7v-0.05h-1.25v0.05h-11.22
		v-0.05h-1.25v0.05h-11.7v-0.05h-1.25v0.05h-11.41v-0.05h-1.25v0.05h-11.7v-0.05h-1.25v0.05H582.5v-0.05h-1.25v0.05h-11.7v-0.05
		h-1.25v0.05H556.9v-0.05h-1.25v0.05h-11.7v-0.05h-1.25v0.05h-16.17l-0.27,0.04l-0.15,0.17c-8.09,9.46-16.39,18.06-24.67,25.55
		l-1.2,1.09h42.46v0.05h1.25v-0.05h11.7v0.05h1.25v-0.05h11.41v0.05h1.25v-0.05h11.7v0.05h1.25v-0.05h11.53v0.05h1.25v-0.05h11.7
		v0.05h1.25v-0.05h11.41v0.05h1.25v-0.05h11.7v0.05h1.25v-0.05h11.22v0.05h1.25v-0.05h11.7v0.05h1.25v-0.05h11.41v0.05h1.25v-0.05
		h11.7v0.05h1.25v-0.05h12.74v-26.86h-12.74V761.34z M542.69,787h-39.22c7.85-7.21,15.72-15.4,23.4-24.36h15.83V787z M543.94,762.64
		h11.7V787h-11.7V762.64z M556.9,762.64h11.41V787H556.9V762.64z M569.55,762.64h11.7V787h-11.7V762.64z M582.5,762.64h11.53V787
		H582.5V762.64z M595.28,762.64h11.7V787h-11.7V762.64z M608.23,762.64h11.41V787h-11.41V762.64z M620.89,762.64h11.7V787h-11.7
		V762.64z M633.84,762.64h11.22V787h-11.22V762.64z M646.31,762.64h11.7V787h-11.7V762.64z M659.26,762.64h11.41V787h-11.41V762.64z
		 M671.92,762.64h11.7V787h-11.7V762.64z M684.87,762.64h11.49V787h-11.49V762.64z"/>
	<path class="st0" d="M575.44,487.86c-2.48,14.4-4.6,31.18-6.47,51.27l-0.06,0.68h37.8v0.02h1.25v-0.02h36.69v0.02h1.25v-0.02h11.94
		v0.3h1.25v-0.3h36.65l-0.44-0.9c-6.7-13.76-12.28-30.48-17.09-51.19l-0.09-0.39H575.53L575.44,487.86z M582.82,514.22h11.62v24.35
		h-11.62V514.22z M620.77,514.22h11.62v24.35h-11.62V514.22z M657.84,512.97H645.9v-24.37h11.94V512.97z M644.65,512.97h-11.01
		v-24.37h11.01V512.97z M632.39,512.97h-11.62v-24.37h11.62V512.97z M619.52,512.97h-11.56v-24.37h11.56V512.97z M606.71,512.97
		h-11.01v-24.37h11.01V512.97z M572.89,514.22h8.69v24.35h-11.29C571.1,529.84,571.96,521.75,572.89,514.22z M595.69,514.22h11.01
		v24.35h-11.01V514.22z M607.96,514.22h11.56v24.35h-11.56V514.22z M633.64,514.22h11.01v24.35h-11.01V514.22z M645.9,514.22h11.94
		v24.35H645.9V514.22z M659.09,514.22h12.12v24.35h-12.12V514.22z M672.46,538.57v-24.35h11.71c2.92,9.01,6.09,17.09,9.57,24.35
		H672.46z M659.09,512.97v-24.37h18.03c2.06,8.81,4.27,16.91,6.64,24.37H659.09z M594.44,488.59v24.37h-21.4
		c1.1-8.84,2.27-16.93,3.54-24.37H594.44z"/>
	<path class="st0" d="M538.29,745.25h81.64v0.02h1.25v-0.02h24.05v0.02h1.25v-0.02h51.12v-52.37H564.86l-0.38,0.08l-0.12,0.33
		c-6.16,16.87-14.73,34.03-25.46,51L538.29,745.25z M696.36,718.65h-11.55v-24.52h11.55V718.65z M659.21,719.9h11.48V744h-11.48
		V719.9z M671.94,719.9h11.62V744h-11.62V719.9z M683.56,718.65h-11.62v-24.52h11.62V718.65z M670.69,718.65h-11.48v-24.52h11.48
		V718.65z M657.96,718.65h-11.48v-24.52h11.48V718.65z M645.23,718.65h-11.84v-24.52h11.84V718.65z M632.14,718.65h-10.96v-24.52
		h10.96V718.65z M619.93,718.65h-11.84v-24.52h11.84V718.65z M608.09,719.9h11.84V744h-11.84V719.9z M621.18,719.9h10.96V744h-10.96
		V719.9z M633.39,719.9h11.84V744h-11.84V719.9z M646.48,719.9h11.48V744h-11.48V719.9z M684.81,744v-24.1h11.55V744H684.81z
		 M606.84,694.13v24.52h0v1.25h0V744h-66.28c10.41-16.59,18.76-33.37,24.82-49.87H606.84z"/>
	<path class="st0" d="M435.96,800.42c-5.6,0-10.16,4.56-10.16,10.16s4.56,10.16,10.16,10.16s10.16-4.56,10.16-10.16
		S441.57,800.42,435.96,800.42z M435.96,819.49c-4.91,0-8.91-4-8.91-8.91c0-4.91,4-8.91,8.91-8.91s8.91,4,8.91,8.91
		C444.88,815.49,440.88,819.49,435.96,819.49z"/>
	<path class="st0" d="M473.97,872.14l-0.08-0.16l-0.12-0.09c-13.07-9.65-26.85-23.8-31.43-32.29l-0.27-0.31l-0.36,0.07
		c-7.38,1.46-14.24,0.34-20.45-3.38l-0.32-0.11l-0.26,0.15c-16.77,9.83-32.51,24.67-48.11,45.35l-0.76,1h99.49l0.18-0.02l0.12-0.08
		C474.88,880.12,475.66,876.82,473.97,872.14z M374.32,881.12c15.15-19.9,30.43-34.25,46.67-43.84c6.22,3.61,13.11,4.75,20.51,3.39
		c4.8,8.55,18.46,22.54,31.37,32.11c1.39,3.95,0.83,6.53-1.8,8.34H374.32z"/>
	<path class="st0" d="M360.62,1253.39v-0.67h-0.06c-1.27-13.31-3.01-26.23-5.2-38.74v-0.05h-0.01c-2.28-12.97-5.04-25.51-8.29-37.54
		l-0.1-0.37h-47.14v114.57h63.07l-0.02-0.64C362.49,1277.47,361.74,1265.28,360.62,1253.39z M301.06,1279.85l24.31-0.04v9.51h-24.31
		V1279.85z M361.59,1289.33h-34.97v-9.51l34.58-0.05C361.36,1282.94,361.49,1286.12,361.59,1289.33z M325.38,1189.86v11.57
		l-24.31,0.07v-11.57L325.38,1189.86z M325.38,1202.69v11.29l-24.31,0.05v-11.27L325.38,1202.69z M325.38,1254.01v11.38l-24.31,0.04
		v-11.38L325.38,1254.01z M326.63,1278.57v-11.92l33.82-0.05c0.28,3.94,0.5,7.92,0.7,11.92L326.63,1278.57z M326.63,1265.39v-11.38
		l32.79-0.05c0.35,3.76,0.67,7.56,0.94,11.38L326.63,1265.39z M325.38,1266.65v11.92l-24.31,0.04v-11.92L325.38,1266.65z
		 M301.06,1252.8v-37.53l53.24-0.1c2.1,12.13,3.77,24.65,5,37.54L301.06,1252.8z M326.63,1213.98v-11.29l25.32-0.07
		c0.75,3.73,1.46,7.5,2.13,11.31L326.63,1213.98z M351.69,1201.37l-25.06,0.07v-11.57l22.52-0.07
		C350.04,1193.6,350.89,1197.47,351.69,1201.37z M326.63,1188.61v-11.35h19.37c1,3.71,1.95,7.48,2.85,11.29L326.63,1188.61z
		 M325.38,1177.26v11.35l-24.31,0.07v-11.42H325.38z"/>
	<path class="st0" d="M230.94,1290.58h52.83v-114.57h-52.83V1290.58z M282.53,1188.74l-24.31,0.07v-11.55h24.31V1188.74z
		 M258.22,1214.1v-11.24l24.31-0.07v11.26L258.22,1214.1z M258.22,1201.62v-11.56l24.31-0.07v11.56L258.22,1201.62z M232.19,1202.94
		l24.77-0.07v11.23l-24.77,0.05V1202.94z M282.53,1215.31v37.52l-50.33,0.08v-37.5L282.53,1215.31z M256.97,1254.12v11.38
		l-24.77,0.04v-11.38L256.97,1254.12z M232.19,1266.78l24.77-0.04v11.92l-24.77,0.04V1266.78z M232.19,1279.96l24.77-0.04v9.41
		h-24.77V1279.96z M258.22,1278.67v-11.92l24.31-0.04v11.92L258.22,1278.67z M258.22,1265.49v-11.38l24.31-0.04v11.38
		L258.22,1265.49z M258.22,1289.33v-9.41l24.31-0.04v9.45H258.22z M256.97,1177.26v11.55l-24.77,0.07v-11.63H256.97z
		 M256.97,1190.06v11.56l-24.77,0.07v-11.55L256.97,1190.06z"/>
	<path class="st0" d="M586.57,444.68h-0.29v0.91c-2.53,8.1-4.9,16.42-7.11,24.94l-0.2,0.78h94.46l-7.3-26.54v-0.09h-0.02
		l-25.77-93.71l-0.21-0.75l-0.69,0.36c-3.82,1.99-7.72,2.95-11.57,2.86l-0.32,0.05l-0.15,0.24c-10.39,16.55-19.76,34.99-27.87,54.8
		C594.86,419.95,590.53,432.04,586.57,444.68z M628.45,354.7c3.62,0,7.27-0.9,10.88-2.66l25.48,92.64h-5.45v-0.6h-1.25v0.6h-11.62
		v-0.43h-1.25v0.43H633.3v-0.6h-1.25v0.6h-11.34v-0.6h-1.25v0.6h-11.62v-0.43h-1.25v0.43h-11.94v-0.6h-1.25v0.6h-5.52
		c10.73-34.02,24.26-64.2,40.4-89.98C628.34,354.7,628.4,354.7,628.45,354.7z M594.65,445.93h11.94v24.13h-11.94V445.93z
		 M607.84,445.93h11.62v24.13h-11.62V445.93z M620.71,445.93h11.34v24.13h-11.34V445.93z M633.3,445.93h11.94v24.13H633.3V445.93z
		 M646.49,445.93h11.62v24.13h-11.62V445.93z M587.48,445.93h5.91v24.13h-12.82C582.73,461.81,585.03,453.77,587.48,445.93z
		 M659.36,470.05v-24.13h5.8l6.63,24.13H659.36z"/>
	<path class="st0" d="M521.05,737.46c0.18,1.03,0.74,1.92,1.59,2.52c0.66,0.47,1.44,0.71,2.24,0.71c1.27,0,2.46-0.62,3.19-1.65
		c8.71-12.36,15.78-25.29,20.99-38.43c0.79-2-0.19-4.27-2.18-5.06c-0.97-0.38-2.03-0.37-2.99,0.04c-0.96,0.41-1.69,1.17-2.08,2.14
		c-4.99,12.56-11.76,24.95-20.12,36.81C521.1,735.39,520.87,736.43,521.05,737.46z M522.72,735.26
		c8.42-11.94,15.24-24.42,20.26-37.07c0.26-0.66,0.76-1.17,1.41-1.46c0.33-0.15,0.69-0.22,1.05-0.22c0.33,0,0.66,0.06,0.98,0.19
		c1.36,0.54,2.02,2.08,1.48,3.44c-5.18,13.04-12.2,25.88-20.85,38.17c-0.81,1.15-2.54,1.45-3.69,0.64
		C522.17,738.12,521.88,736.46,522.72,735.26z"/>
	<path class="st0" d="M556.87,531.62c1.61-14.31,2.99-26.67,5.2-40.12c0.12-0.74-0.05-1.48-0.49-2.09s-1.09-1.01-1.82-1.13
		c-0.74-0.12-1.48,0.05-2.09,0.48c-0.61,0.44-1.02,1.09-1.14,1.83c-2.23,13.6-3.63,26.04-5.25,40.45l-0.16,1.38
		c-0.08,0.75,0.13,1.48,0.6,2.06c0.47,0.59,1.14,0.96,1.88,1.04c0.11,0.01,0.21,0.02,0.32,0.02c1.43,0,2.63-1.07,2.79-2.49
		L556.87,531.62z M555.62,531.53l-0.16,1.38c-0.1,0.85-0.87,1.47-1.72,1.37c-0.85-0.1-1.47-0.87-1.37-1.72l0.16-1.4
		c1.61-14.38,3.01-26.8,5.24-40.37c0.07-0.41,0.29-0.77,0.63-1.02c0.26-0.19,0.57-0.29,0.9-0.29c0.09,0,0.17,0.01,0.26,0.02
		c0.41,0.07,0.77,0.29,1.01,0.63s0.34,0.75,0.27,1.16C558.62,504.79,557.23,517.17,555.62,531.53z"/>
	<path class="st0" d="M585.6,401.36c0.32,0.12,0.65,0.18,0.98,0.18c1.17,0,2.22-0.74,2.63-1.83c3.84-10.34,10.65-22.81,17.43-34.75
		c0.76-1.35,0.29-3.06-1.06-3.83c-1.35-0.76-3.06-0.29-3.83,1.06c-6.89,12.15-13.82,24.86-17.81,35.56
		C583.41,399.2,584.15,400.82,585.6,401.36z M586.04,400.19c-0.81-0.3-1.22-1.2-0.92-2c3.95-10.62,10.85-23.28,17.72-35.38
		c0.28-0.49,0.8-0.79,1.36-0.79c0.27,0,0.53,0.07,0.76,0.2c0.75,0.42,1.01,1.38,0.59,2.12c-6.8,11.98-13.63,24.5-17.51,34.93
		C587.75,400.05,586.84,400.48,586.04,400.19z"/>
	<path class="st0" d="M550.5,606.54c0.5,0.56,1.2,0.88,1.95,0.92l0.13,0c1.5,0,2.73-1.18,2.8-2.68c0.55-11.8,0.47-23.18,0.38-34.19
		c-0.02-3.13-0.05-6.26-0.06-9.39c0-1.54-1.27-2.8-2.82-2.8c-0.75,0-1.45,0.3-1.98,0.83c-0.53,0.53-0.82,1.24-0.82,1.99
		c0.01,2.98,0.03,6.01,0.05,8.95l0,0.55c0.08,10.92,0.16,22.21-0.38,33.8C549.74,605.27,550,605.99,550.5,606.54z M551.4,570.71
		l0-0.55c-0.02-2.94-0.04-5.97-0.05-8.94c0-0.42,0.16-0.81,0.45-1.1s0.69-0.46,1.11-0.46c0.86,0,1.55,0.7,1.56,1.55
		c0.01,3.13,0.03,6.26,0.06,9.4c0.08,10.99,0.17,22.36-0.38,34.12c-0.04,0.83-0.72,1.48-1.63,1.48c0,0,0,0,0,0
		c-0.42-0.02-0.8-0.2-1.08-0.51c-0.28-0.31-0.42-0.71-0.4-1.12C551.57,592.96,551.49,581.65,551.4,570.71z"/>
	<path class="st0" d="M550.78,673.88c0.5,0.56,1.2,0.88,1.95,0.92l0.13,0c1.5,0,2.73-1.18,2.8-2.68
		c0.55-11.82,0.47-23.19,0.38-34.19c-0.02-3.19-0.05-6.31-0.06-9.39c0-1.54-1.27-2.8-2.82-2.8c-1.55,0-2.8,1.27-2.8,2.82
		c0.01,3.01,0.03,6.01,0.05,9.02l0,0.46c0.08,10.93,0.16,22.23-0.38,33.83C550.02,672.6,550.27,673.32,550.78,673.88z
		 M551.68,637.92l0-0.36c-0.02-3.01-0.04-6.01-0.05-9.02c0-0.86,0.7-1.56,1.56-1.56c0.86,0,1.56,0.7,1.56,1.55
		c0.01,3.08,0.03,6.2,0.06,9.4c0.08,10.98,0.17,22.34-0.38,34.12c-0.04,0.83-0.72,1.48-1.63,1.48c0,0,0,0,0,0
		c-0.42-0.02-0.8-0.2-1.08-0.51c-0.28-0.31-0.42-0.71-0.4-1.12C551.85,660.28,551.76,648.96,551.68,637.92z"/>
	<path class="st0" d="M559.52,694.92c-5.14,17.07-12.95,32.78-23.23,46.7l-0.06,0.09c-0.6,1.2-0.53,2.61,0.17,3.75
		c0.71,1.14,1.93,1.83,3.28,1.83l156.92-0.01c0.85,0,1.66-0.33,2.26-0.94c0.61-0.61,0.94-1.41,0.94-2.27v-49.46
		c0-2.01-1.64-3.65-3.65-3.65H565.8C563.13,690.96,560.74,692.45,559.52,694.92z M565.8,692.21h130.37c1.32,0,2.4,1.08,2.4,2.4
		v49.46c0,0.52-0.21,1.02-0.58,1.39c-0.37,0.37-0.86,0.57-1.39,0.57l-156.91,0.01c-0.91,0-1.74-0.46-2.22-1.23
		c-0.47-0.76-0.52-1.68-0.14-2.49c10.34-14.02,18.21-29.84,23.34-46.93C561.65,693.42,563.61,692.21,565.8,692.21z"/>
	<path class="st0" d="M481.67,407.22h0.02l88.56-0.71l0.38-0.08l0.12-0.33c4.7-13.35,12.67-30.17,23.7-50.02
		c0.6-1.09,0.58-2.39-0.07-3.49c-0.68-1.15-1.92-1.87-3.25-1.87l-91.45,0.04c-1.45,0-2.75,0.92-3.23,2.28l-17.7,50.04
		c-0.34,0.97-0.2,2,0.4,2.83C479.73,406.75,480.65,407.22,481.67,407.22z M500.05,380.09h12.11v23.97h-12.11V380.09z M513.4,380.09
		h11.56v23.97H513.4V380.09z M526.21,380.09h11.62v23.97h-11.62V380.09z M539.08,380.09h11.01v23.97h-11.01V380.09z M551.35,380.09
		h25.61c-4.04,8.69-7.47,16.64-10.33,23.97h-15.28V380.09z M563.71,378.84v-24.75l26.06,0c-4.58,8.88-8.64,17.1-12.22,24.75H563.71z
		 M562.46,378.84h-11.11v-24.75l11.11,0V378.84z M550.1,378.84h-11.01v-24.75l11.01,0V378.84z M537.83,378.84h-11.62v-24.75l11.62,0
		V378.84z M524.96,378.84H513.4v-24.75l11.56,0V378.84z M512.15,378.84h-22.06l8.36-24.75l13.7,0V378.84z M498.8,380.09v23.97
		h-17.22l8.1-23.97H498.8z M498.8,405.31v0.53l-17.13,0.14c-0.55,0-1.05-0.25-1.4-0.66H498.8z M500.05,405.31h12.11v0.39h1.25v-0.39
		h11.56v0.25h1.25v-0.25h11.62v0.18h1.25v-0.18h11.01v0.11l-50.05,0.4V405.31z M551.35,405.31h13.12l-13.12,0.1V405.31z
		 M567.52,405.23l0.12-0.32c2.94-7.57,6.49-15.8,10.7-24.83h0.1v-0.22c3.76-8.04,8.04-16.71,12.9-26.12l0.47-0.91l-93.85,0
		c0.41-0.51,1.02-0.82,1.7-0.83l91.45-0.04h0.01c0.88,0,1.71,0.48,2.17,1.25c0.42,0.71,0.44,1.55,0.06,2.25
		c-10.95,19.7-18.9,36.45-23.64,49.8l-2.47,0.02L567.52,405.23z M488.77,378.84h-0.05v0.15l-8.74,25.88
		c-0.19-0.43-0.22-0.91-0.06-1.37l11.54-32.65L488.77,378.84z"/>
	<path class="st0" d="M576.77,472.07c0.57,0.72,1.42,1.14,2.34,1.14l93.18,0.01c0.92,0,1.76-0.42,2.32-1.15
		c0.56-0.73,0.73-1.66,0.49-2.54l-33.55-121.43l-0.22-0.81l-0.71,0.44c-4.38,2.74-9.49,4-15.26,3.72l-0.33,0.05l-0.16,0.25
		c-21.77,35.05-38.14,74.67-48.64,117.77C576,470.42,576.2,471.35,576.77,472.07z M640.56,349.23l33.34,120.64
		c0.14,0.51,0.04,1.03-0.28,1.45c-0.32,0.42-0.8,0.65-1.32,0.65l-93.18-0.01c-0.53,0-1.03-0.24-1.36-0.66
		c-0.33-0.42-0.45-0.96-0.32-1.47c10.44-42.84,26.69-82.24,48.3-117.1C631.22,352.93,636.22,351.75,640.56,349.23z"/>
	<path class="st0" d="M627.32,332.71c3.76,0,6.81-3.06,6.81-6.81c0-3.76-3.06-6.81-6.81-6.81s-6.81,3.06-6.81,6.81
		C620.51,329.66,623.57,332.71,627.32,332.71z M627.32,320.34c3.07,0,5.56,2.5,5.56,5.56s-2.5,5.56-5.56,5.56s-5.56-2.5-5.56-5.56
		S624.26,320.34,627.32,320.34z"/>
	<path class="st0" d="M627.32,335.98c5.56,0,10.08-4.52,10.08-10.08s-4.52-10.08-10.08-10.08s-10.08,4.52-10.08,10.08
		S621.76,335.98,627.32,335.98z M627.32,317.06c4.87,0,8.83,3.96,8.83,8.83s-3.96,8.83-8.83,8.83s-8.83-3.96-8.83-8.83
		S622.45,317.06,627.32,317.06z"/>
	<path class="st0" d="M340.12,1106.15c3.68,0,6.67-2.99,6.67-6.67c0-3.68-2.99-6.67-6.67-6.67s-6.67,2.99-6.67,6.67
		C333.45,1103.16,336.44,1106.15,340.12,1106.15z M340.12,1094.06c2.99,0,5.42,2.43,5.42,5.42c0,2.99-2.43,5.42-5.42,5.42
		s-5.42-2.43-5.42-5.42C334.7,1096.49,337.13,1094.06,340.12,1094.06z"/>
	<path class="st0" d="M329.83,1099.48c0,5.67,4.62,10.29,10.29,10.29s10.29-4.62,10.29-10.29c0-5.67-4.62-10.29-10.29-10.29
		S329.83,1093.81,329.83,1099.48z M340.12,1090.44c4.99,0,9.04,4.06,9.04,9.04c0,4.99-4.06,9.04-9.04,9.04
		c-4.98,0-9.04-4.06-9.04-9.04C331.08,1094.5,335.13,1090.44,340.12,1090.44z"/>
	<path class="st0" d="M375.84,1283.83c0.07,1.5,1.3,2.68,2.8,2.68c0.05,0,0.11,0,0.13,0c0.75-0.03,1.44-0.36,1.95-0.91
		c0.51-0.55,0.77-1.27,0.73-2.02c-1.73-37.6-6.65-71.52-14.61-100.83c-0.2-0.73-0.67-1.33-1.32-1.71c-0.65-0.37-1.4-0.46-2.12-0.26
		c-0.73,0.2-1.33,0.67-1.7,1.32c-0.37,0.65-0.47,1.41-0.27,2.13C369.28,1213.13,374.13,1246.64,375.84,1283.83z M362.77,1182.7
		c0.21-0.36,0.54-0.62,0.95-0.73c0.14-0.04,0.28-0.06,0.42-0.06c0.26,0,0.53,0.07,0.76,0.2c0.36,0.21,0.62,0.54,0.73,0.95
		c7.94,29.22,12.85,63.06,14.57,100.57c0.02,0.42-0.12,0.81-0.41,1.12c-0.28,0.31-0.66,0.49-1.15,0.51c-0.83,0-1.52-0.65-1.55-1.49
		c-1.71-37.27-6.58-70.88-14.46-99.89C362.51,1183.48,362.57,1183.06,362.77,1182.7z"/>
	<path class="st0" d="M377.95,1311.05c-1.55,0.01-2.8,1.28-2.79,2.83c0.1,13.25-0.71,23.81-2.88,37.66
		c-0.12,0.74,0.06,1.48,0.5,2.09c0.44,0.61,1.09,1,1.84,1.12c0.15,0.02,0.29,0.03,0.44,0.03c1.39,0,2.56-1,2.77-2.37
		c2.22-14.17,3.05-24.99,2.95-38.58C380.77,1312.3,379.5,1311.05,377.95,1311.05z M375.06,1353.54c-0.08,0-0.17-0.01-0.24-0.02
		c-0.41-0.06-0.77-0.29-1.02-0.62c-0.25-0.34-0.34-0.75-0.28-1.16c2.18-13.92,3-24.54,2.9-37.87c0-0.42,0.16-0.81,0.45-1.1
		c0.29-0.3,0.69-0.46,1.11-0.47c0.85,0,1.55,0.69,1.56,1.55c0.1,13.51-0.72,24.27-2.93,38.37
		C376.48,1352.98,375.83,1353.54,375.06,1353.54z"/>
	<path class="st0" d="M371.57,1380.28c-0.73-0.17-1.48-0.06-2.12,0.34c-0.64,0.39-1.09,1.01-1.26,1.74l-8.1,33.7
		c-0.36,1.5,0.57,3.02,2.08,3.39c0.22,0.05,0.44,0.08,0.65,0.08c1.3,0,2.42-0.88,2.73-2.15l8.1-33.7
		C374,1382.17,373.07,1380.65,371.57,1380.28z M362.44,1418.23c-0.84-0.2-1.35-1.04-1.15-1.88l8.1-33.7c0.17-0.7,0.79-1.2,1.52-1.2
		c0.12,0,0.24,0.01,0.36,0.04c0.84,0.2,1.35,1.04,1.15,1.88l-8.1,33.7C364.12,1417.9,363.24,1418.41,362.44,1418.23z"/>
	<path class="st0" d="M348.63,1129.27c-0.71,0.23-1.3,0.72-1.64,1.39c-0.34,0.67-0.41,1.43-0.18,2.14l6.17,19.28
		c0.37,1.17,1.45,1.95,2.67,1.95c0.29,0,0.58-0.05,0.86-0.13c1.47-0.47,2.29-2.06,1.82-3.53l-6.17-19.28
		C351.69,1129.61,350.11,1128.8,348.63,1129.27z M349.48,1130.38c0.68,0,1.28,0.43,1.49,1.08l6.17,19.28
		c0.26,0.82-0.19,1.7-1.01,1.96c-0.78,0.26-1.7-0.21-1.96-1.01l-6.17-19.28c-0.13-0.4-0.09-0.82,0.1-1.19s0.51-0.64,0.91-0.77
		C349.16,1130.41,349.32,1130.38,349.48,1130.38z"/>
	<path class="st0" d="M334.23,1072.82c0.15,0,0.3-0.01,0.47-0.04c1.53-0.26,2.56-1.71,2.3-3.24l-4.01-23.69
		c-0.25-1.51-1.71-2.54-3.24-2.3c-1.53,0.26-2.56,1.71-2.3,3.24l4.01,23.69C331.69,1071.83,332.85,1072.82,334.23,1072.82z
		 M330.2,1044.76c0.76,0,1.43,0.56,1.55,1.29l4.01,23.69c0.14,0.85-0.43,1.65-1.27,1.8c-0.93,0.15-1.66-0.44-1.8-1.27l-4.01-23.69
		c-0.14-0.85,0.43-1.65,1.27-1.8C330.04,1044.77,330.12,1044.76,330.2,1044.76z"/>
	<path class="st0" d="M329.42,1017.96c0.48-0.58,0.71-1.31,0.64-2.05c-1.3-14.16-1.16-29.97-0.89-42.16
		c0.03-1.54-1.2-2.83-2.76-2.87c-1.57,0-2.82,1.21-2.85,2.75c-0.27,12.35-0.41,28.38,0.92,42.8c0.13,1.45,1.33,2.55,2.79,2.55
		c0.09,0,0.18,0,0.26-0.01C328.26,1018.9,328.94,1018.54,329.42,1017.96z M326.39,972.13c0.86,0.02,1.54,0.74,1.52,1.59
		c-0.27,12.23-0.41,28.08,0.9,42.3c0.04,0.41-0.09,0.82-0.35,1.14c-0.27,0.32-0.64,0.52-1.06,0.56c-0.89,0.09-1.62-0.56-1.69-1.41
		c-1.32-14.35-1.18-30.34-0.91-42.66C324.81,972.8,325.51,972.14,326.39,972.13z"/>
	<path class="st0" d="M342.53,902.94c-1.43-0.61-3.08,0.06-3.68,1.48c-4.84,11.33-9.52,26.41-11.93,38.41
		c-0.15,0.73,0,1.48,0.42,2.11s1.05,1.05,1.78,1.2c0.18,0.04,0.36,0.06,0.56,0.06c1.33,0,2.49-0.95,2.75-2.26
		c2.34-11.66,6.89-26.3,11.59-37.31C344.62,905.2,343.96,903.55,342.53,902.94z M329.67,944.94c-0.11,0-0.21-0.01-0.31-0.03
		c-0.84-0.17-1.39-0.99-1.22-1.83c2.39-11.93,7.05-26.91,11.86-38.17c0.24-0.57,0.81-0.94,1.44-0.94c0.21,0,0.41,0.04,0.61,0.12
		c0.79,0.34,1.16,1.26,0.82,2.04c-4.73,11.08-9.31,25.82-11.67,37.55C331.05,944.41,330.41,944.94,329.67,944.94z"/>
	<path class="st0" d="M387.33,841.88c-0.53-0.54-1.23-0.84-2-0.84c-0.74,0-1.44,0.29-1.97,0.81c-8.56,8.4-17.69,18.68-24.42,27.51
		c-0.46,0.6-0.65,1.33-0.55,2.08c0.1,0.74,0.48,1.4,1.08,1.86c0.49,0.38,1.08,0.58,1.7,0.58c0.88,0,1.7-0.4,2.23-1.1
		c6.58-8.62,15.51-18.68,23.89-26.91C388.4,844.76,388.42,842.98,387.33,841.88z M360.23,872.29c-0.33-0.25-0.54-0.62-0.6-1.03
		c-0.06-0.41,0.05-0.82,0.31-1.15c6.7-8.78,15.78-19.01,24.3-27.38c0.29-0.29,0.68-0.45,1.09-0.45v-0.25c0,0,0,0,0.01,0l0.01,0.25
		c0.42,0,0.81,0.17,1.1,0.47c0.6,0.61,0.59,1.6-0.02,2.2c-8.42,8.26-17.39,18.37-24.01,27.04
		C361.91,872.66,360.89,872.8,360.23,872.29z"/>
	<path class="st0" d="M460.49,469.12c0.08,0,0.16,0,0.24-0.01c21.03-1.38,39.92-6.25,57.76-14.89c15.22-7.37,29.68-17.55,44.2-31.12
		c0.65-0.6,0.85-1.5,0.52-2.32c-0.33-0.83-1.09-1.35-1.98-1.35H474.3c-1.49,0-2.81,0.95-3.27,2.37l-13.89,42.64
		c-0.37,1.13-0.15,2.37,0.58,3.31C458.4,468.62,459.41,469.12,460.49,469.12z M474.3,420.68h86.94c0.37,0,0.68,0.21,0.82,0.56
		c0.01,0.04,0.02,0.07,0.03,0.11h-87.81l-15.72,45.37c-0.33-0.57-0.43-1.25-0.22-1.89l13.89-42.64
		C472.51,421.29,473.35,420.68,474.3,420.68z M460.29,465.52l14.87-42.92h83.83C527.46,449.86,495.15,463.91,460.29,465.52z
		 M459.43,466.81c18.35-0.73,36.42-5.03,53.69-12.79c16.25-7.3,32.38-17.92,47.95-31.57l1.04-0.91c0.01,0.25-0.08,0.48-0.27,0.66
		c-30.67,28.65-62.82,43.16-101.19,45.67c-0.75,0.05-1.47-0.27-1.94-0.88c-0.04-0.05-0.06-0.1-0.09-0.15L459.43,466.81z"/>
	<path class="st0" d="M541.23,541.13c0.62-25.26,5.03-52.53,14.29-88.44c0.31-1.22-0.12-2.43-1.13-3.17
		c-1.01-0.74-2.31-0.78-3.38-0.11c-35.09,22.07-67.5,32.47-99.15,31.79l-0.36-0.01l-19.44,55.78c-0.39,1.11-0.22,2.3,0.46,3.25
		s1.74,1.51,2.92,1.51h105.77L541.23,541.13z M435.44,540.49c-0.44,0-0.84-0.13-1.2-0.35h103.85l0.04-0.58
		c2.24-33.16,6.96-62.67,14.02-87.69l0.46-1.64l-1.41,0.95c-30.81,20.71-61.91,30.85-97.99,31.93l-0.35,0.01l-19.31,56.2l-0.05,0.13
		c-0.41-0.61-0.51-1.36-0.27-2.06l19.15-54.92c16.09,0.27,32.75-2.4,49.56-7.94c16.03-5.29,32.76-13.38,49.73-24.05
		c0.63-0.4,1.39-0.37,1.98,0.06c0.59,0.43,0.84,1.14,0.65,1.85c-9.21,35.72-13.63,62.92-14.32,88.11H435.44z M460.5,514.2h11.94
		v24.69H460.5V514.2z M473.69,514.2h11.62v24.69h-11.62V514.2z M486.56,514.2h11.34v24.69h-11.34V514.2z M499.15,514.2h11.94v24.69
		h-11.94V514.2z M512.34,514.2h11.62v24.69h-11.62V514.2z M525.21,514.2h13.94c-0.9,7.98-1.65,16.21-2.23,24.69h-11.71V514.2z
		 M443.94,512.95l9.83-28.61c35.51-1.13,66.29-11.06,96.72-31.19c-4.92,17.81-8.66,37.85-11.2,59.8H443.94z M459.25,514.2v24.69
		h-24.23l8.49-24.69H459.25z"/>
	<path class="st0" d="M506.46,766.89c1.46-1.58,1.37-4.05-0.21-5.51c-1.57-1.46-4.05-1.37-5.51,0.21
		c-5.43,5.85-9.79,9.69-13.72,12.08c-1.84,1.12-2.42,3.52-1.3,5.36c0.71,1.17,1.96,1.87,3.33,1.87c0.71,0,1.41-0.2,2.02-0.57
		C495.64,777.55,500.53,773.28,506.46,766.89z M489.05,779.65c-0.94,0-1.78-0.48-2.27-1.27c-0.76-1.25-0.36-2.88,0.89-3.64
		c4.04-2.46,8.48-6.37,13.99-12.3c0.5-0.54,1.21-0.84,1.95-0.84c0.67,0,1.31,0.25,1.8,0.7c1.07,0.99,1.13,2.67,0.14,3.74
		c-5.85,6.3-10.65,10.5-15.12,13.22C490.01,779.51,489.54,779.65,489.05,779.65z"/>
	<path class="st0" d="M656.99,292.25c0.94,0,1.85-0.34,2.56-0.96l82.73-72.02c1.62-1.41,1.79-3.88,0.38-5.5
		c-1.41-1.62-3.88-1.79-5.5-0.38l-82.73,72.02c-1.62,1.41-1.79,3.88-0.38,5.5C654.78,291.76,655.86,292.25,656.99,292.25z
		 M739.71,213.67c0.77,0,1.5,0.33,2,0.91c0.96,1.1,0.84,2.78-0.26,3.74l-82.73,72.02c-1.06,0.92-2.82,0.8-3.74-0.26
		c-0.96-1.1-0.84-2.78,0.26-3.74l82.73-72.02C738.46,213.91,739.07,213.67,739.71,213.67z"/>
	<path class="st0" d="M759.93,203.1c0.93,0,1.83-0.33,2.54-0.94l51.58-44.3c0.79-0.68,1.27-1.62,1.35-2.66
		c0.08-1.04-0.25-2.04-0.93-2.84c-1.4-1.63-3.86-1.82-5.5-0.42l-51.58,44.3c-0.79,0.68-1.27,1.62-1.35,2.66
		c-0.08,1.04,0.25,2.05,0.93,2.84C757.72,202.6,758.79,203.1,759.93,203.1z M811.51,152.25c0.78,0,1.51,0.34,2.01,0.92
		c0.46,0.54,0.69,1.22,0.63,1.93c-0.05,0.71-0.38,1.35-0.92,1.81l-51.58,44.3c-1.07,0.92-2.82,0.78-3.74-0.28
		c-0.95-1.11-0.82-2.78,0.28-3.74l51.58-44.3C810.27,152.48,810.88,152.25,811.51,152.25z"/>
	<path class="st0" d="M283.59,1174.09h-52.63c-1.16,0-2.11,0.94-2.11,2.11v114.2c0,1.16,0.94,2.11,2.11,2.11h52.63
		c1.16,0,2.11-0.95,2.11-2.11v-114.2C285.7,1175.03,284.75,1174.09,283.59,1174.09z M284.45,1290.4c0,0.47-0.38,0.86-0.86,0.86
		h-52.63c-0.47,0-0.86-0.38-0.86-0.86v-114.2c0-0.47,0.38-0.86,0.86-0.86h52.63c0.47,0,0.86,0.38,0.86,0.86V1290.4z"/>
	<path class="st0" d="M350.74,1176.46c-0.47-1.78-2.08-3.02-3.93-3.02h-45.24c-2.04,0-3.7,1.66-3.7,3.7V1289
		c0,1.93,1.57,3.5,3.5,3.5h61.2c1.06,0,2.04-0.42,2.77-1.19c0.73-0.77,1.1-1.77,1.05-2.83
		C364.08,1244.49,358.96,1207.85,350.74,1176.46z M362.57,1291.25h-61.2c-1.24,0-2.25-1.01-2.25-2.25v-111.85
		c0-1.35,1.1-2.45,2.45-2.45h45.24c1.28,0,2.4,0.86,2.72,2.08c8.2,31.3,13.3,67.86,15.61,111.77c0.04,0.71-0.21,1.38-0.7,1.9
		C363.94,1290.97,363.28,1291.25,362.57,1291.25z"/>
</g>
</svg>
