<?xml version="1.0" encoding="utf-8"?>
<!-- Generator: Adobe Illustrator 26.0.3, SVG Export Plug-In . SVG Version: 6.00 Build 0)  -->
<svg version="1.1" xmlns="http://www.w3.org/2000/svg" xmlns:xlink="http://www.w3.org/1999/xlink" x="0px" y="0px"
	 viewBox="0 0 1920 1920"  xml:space="preserve">
<style type="text/css">
	.st0{fill:#3D6A53;}
	.st1{fill:#B1B0AB;}
	.st2{fill:#899866;}
	.st3{fill:#84BDA4;}
	.st4{fill:#C2C6B6;}
	.st5{fill:#1A3A60;}
	.st6{fill:#4D5E55;}
	.st7{fill:#171B32;}
	.st8{fill:none;stroke:#FFFFFF;stroke-width:0.5;stroke-miterlimit:10;}
	.st9{fill:none;stroke:#FFFFFF;stroke-width:0.25;stroke-miterlimit:10;}
	.st10{fill:none;stroke:#FFFFFF;stroke-width:0.25;stroke-linecap:round;stroke-miterlimit:10;}
	.st11{fill:none;stroke:#FFFFFF;stroke-width:0.5;stroke-linecap:round;stroke-miterlimit:10;}
</style>
<g id="Etapas">
	<path class="st0" d="M830.5,803.39c0,0,10.22,34.06,15.48,66.42c5.25,32.35,5.33,50.37,0.81,87.03
		c-2.45,19.82-6.5,27.07-8.26,38.23c-1.47,9.33-2.04,24.08-2.34,26.58c-0.66,5.47-1.78,14.77-1.78,14.77l17.03,2.19l131.96,22.03
		l1.88-162.44l-3.96-3.27l-3.13-4.54l-55.75,0.69l-5.45-0.46l-2.91-1.54l-3.06-3.52l-1.13-3.81l-5.85-33.33l-9.52-36.55l3.59-8.59
		L830.5,803.39z"/>
	<path class="st1" d="M708.44,803.39H830.5l6.79,22.42c0,0,3.5,13.84,5.88,27.66c2.39,13.82,8.29,42.04,6.49,73.29
		c-1.8,31.25-11.14,68.31-11.14,68.31l-4.12,41.35l-71.66-8.5l-33.77-2.09l-0.23-74.89l-10.59-75.98L708.44,803.39z"/>
	<path class="st2" d="M826.86,648.52l-9.99,28.67c-2.37,23.84-2.19,50.9,3.45,84.84c0.77,12.66,4.54,26.6,10.18,41.36l-122.06,0
		l-3.36-21.01l14.54-70.92L730.41,660l1.92-6.47l42.64-82.06l8.31-16.11l14.68-25.16l16.74-28.68l12.78-21.9l139.09-0.14
		l-0.16,20.52l-4.52,8.45c-3.6,14.3-13.58,29.44-26.67,45c-8.67,9.49-20.74,17.11-34.48,23.81l-18.5,15.12
		c0,0-31.22,18.28-39.18,29.93C835.09,633.97,826.86,648.52,826.86,648.52z"/>
	<path class="st3" d="M826.86,648.52l-10.01,28.9c0,0-3.28,33.73-1,48.48c0,0,2.29,29.13,6.74,51.75l7.92,25.74l67.61-0.09
		l9.25-22.71c0,0,12.74-51.28,16.18-60.52s6.03-18.48,6.03-18.48l14.81-47.96l6.29-21.43l7.74-32.04h-55.21l-20.97-7.77
		c-12.65,6.46-26.58,15.06-37.56,27.84C836.8,630.29,830.28,639.91,826.86,648.52z"/>
	<path class="st4" d="M959.45,598.47l65.23,4.99l112.34-3.58l23.62-2.61l15.47-3.08l20.6-6.15l-11.66-19.48l-53.29-89.26
		l-126.94-0.02l-38.26,0.21l-1.27,20.92l-3.42,8.06c-3.98,15.87-23.1,40-26.09,44.33c-2.99,4.32-38.11,26.56-38.11,26.56
		l-15.44,13.05l20.97,7.77h55.21L959.45,598.47z"/>
	<polygon class="st5" points="1131.77,479.3 1116.1,453.22 1107.33,436.87 1091.16,400.38 1082.71,380.87 1070.35,335.72
		1060.18,298.91 1048.85,257.74 1047.4,252.47 1047.12,251.91 1042.12,246.14 1034.73,238.16 1010.17,269.82 987.74,313.28
		969.11,379.67 966.75,404.59 966.75,442.15 966.56,479.48 	"/>
	<polygon class="st6" points="1026.79,230.13 1005.13,206.4 982.26,250.44 909.29,252.7 895.75,281.8 889.15,301.54 880.04,329.75
		843.37,443.27 838.86,456.93 831.85,471.69 830.82,474.23 827.47,479.62 958.5,479.27 966.56,479.48 967.44,400.44 969.49,378.32
		987.74,313.28 1010.17,269.82 1034.73,238.16 	"/>
	<polygon class="st7" points="1087.06,51.76 1122.43,95.12 1152.63,131.2 1215.34,201.53 1229.8,217.74 1169.47,253.52
		1050.03,249.55 1047.4,252.47 1034.73,238.16 1016.22,218.55 1005.13,206.4 1033.67,152.2 1053.48,103.1 	"/>
</g>
<g id="mapa">
	<g>
		<polyline class="st8" points="1162.36,142.11 1229.8,217.74 1169.47,253.52 1050.03,249.55 1047.31,252.13 1083.04,382.04
			1107.83,437.99 1111.66,444.85 1116.77,454.48 1196.71,588.03 1175,594.52 1161.2,597.21 1139.37,599.28 1024.22,603.05
			1017.53,602.7 1005.94,602.05 959.4,598.09 949.01,638.67 917.64,740.22 907.36,780.59 894.66,812.42 904.24,849.21
			909.89,881.76 911.44,885.73 914.08,889.09 916.67,890.26 922.47,890.83 978.5,890.53 981.32,894.93 985.16,898.05 983.4,1060.65
			853.72,1038.84 775.56,1029.44 762.74,1027.92 728.97,1025.83 728.76,950.94 706.65,792.61 705.08,782.38 729.85,661.91
			732.33,653.53 751.18,617.18 		"/>
		<line class="st8" x1="1147.8" y1="125.79" x2="1162.36" y2="142.11"/>
		<polyline class="st8" points="751.18,617.18 783.1,555.67 830.32,474.73 836.24,462.97 837.57,459.89 839.24,456.08 894.75,284.2
			897.64,277.27 909.29,252.7 982.26,250.44 999.2,217.97 1010.65,194.64 1033.62,152.32 1053.48,103.1 1069.2,79.04 1087.06,51.76
			1112.25,82.64 1136.99,112.96 1141.47,118.68 1147.8,125.79 		"/>
		<path class="st9" d="M1118.96,90.57l-13.1,11.38l-18.98-21.76l-0.01-0.56c0.01-0.13,0.01-0.26,0.01-0.39c0-4.47-3.63-8.1-8.1-8.1
			c-4.47,0-8.1,3.63-8.1,8.1c0,4.11,3.05,7.5,7.01,8.03l0.57,0.27l18.82,21.98l-30.81,26.62l-6.02-7.02l-0.04-0.66
			c0-4.47-3.63-8.1-8.1-8.1s-8.1,3.63-8.1,8.1c0,4.16,3.14,7.6,7.19,8.05l0.56,0.29l35.78,41.67l-25.96,22.47l-33.31-38.55
			l-6.01,10.87l30.56,35.26l-25.96,22.47l-10.63-12.29l-0.06-0.59c0-4.47-3.63-8.1-8.1-8.1c-4.47,0-8.1,3.63-8.1,8.1
			c0,4.15,3.12,7.57,7.15,8.05l0.55,0.37l10.43,12.05l-4.37,3.78c-9.63,1.43-17.78,9.91-17,20.98l-5.44,5.46h-57.15l0.35-1.47
			l0.37-0.19c2.51-1.38,4.21-4.04,4.21-7.11c0-4.47-3.63-8.1-8.1-8.1c-4.47,0-8.1,3.63-8.1,8.1c0,1.12,0.23,2.18,0.64,3.15
			l0.23,0.49l-11.72,33.59l-8.23,23.75l-5.73,16.67l-8.66,24.97l-6.95,20l-6.75,19.46l-8.43,23.95l-8.43,24.71l-5.34,0.08l-0.37-0.2
			c-1.45-1.36-3.39-2.19-5.53-2.19c-4.47,0-8.1,3.63-8.1,8.1s3.63,8.1,8.1,8.1c2.27,0,4.32-0.93,5.79-2.44"/>
		<path class="st9" d="M946.86,646H838.91c-5.98,10.96-9.93,22.4-11.83,34.33l92.61,0.08l0.75-0.28c1.46-1.44,3.43-2.32,5.61-2.32
			c4.47,0,8.1,3.72,8.1,8.32c0,4.59-3.63,8.32-8.1,8.32c-2.12,0-4.05-0.84-5.5-2.21l-0.57-0.32h-94.29
			c-0.37,13.4-0.26,25.96,0.85,36.71h78.01l0.51-0.35c1.43-1.29,3.33-2.07,5.41-2.07c4.47,0,8.1,3.63,8.1,8.1
			c0,4.47-3.63,8.1-8.1,8.1c-2.13,0-4.07-0.83-5.52-2.17l-0.53-0.02h-76.73l3.51,22.66c5.28,2.24,8.85,6.16,10.79,11.67h50.36h0.6
			l0.42-0.27c1.44-1.31,3.35-2.11,5.45-2.11c4.47,0,8.1,3.63,8.1,8.1c0,4.47-3.63,8.39-8.1,8.39c-2.06,0-3.95-0.83-5.38-2.17
			l-0.49-0.35h-0.67h-50.29c-0.72,2.25-1.89,4.41-3.59,6.44l8.8,27.89l36.51-0.22l0.57-0.1c1.45-1.44,3.43-2.33,5.6-2.33
			c4.47,0,8.1,3.75,8.1,8.38s-3.63,8.38-8.1,8.38c-2.2,0-4.2-0.91-5.66-2.38l-0.52-0.14h-33.4c6.25,26.5,9.85,51.94,9.9,75.95
			h110.51l0.46-0.18c1.46-1.4,3.43-2.26,5.6-2.26c4.49,0,8.13,3.68,8.13,8.22s-3.64,8.22-8.13,8.22c-2.1,0-4.01-0.8-5.46-2.13
			l-0.6-0.3H860.19c-0.05,11.09-0.91,22.56-2.44,34.33l112.7-0.18h0.4l0.17-0.23c1.43-1.22,3.28-1.96,5.3-1.96
			c4.51,0,8.16,3.65,8.16,8.16c0,4.51-3.65,8.16-8.16,8.16c-2.08,0-3.99-0.78-5.43-2.07l-0.34-0.3h-0.28H856.12
			c-1.83,11.67-4.28,23.11-7.31,34.33l135.25-0.2"/>
		<circle class="st9" cx="888.26" cy="586.72" r="7.94"/>
		<path class="st9" d="M891.72,604.37c-1.3,0.29-2.07,0.49-3.46,0.49c-3.75,0-7.23-1.14-10.12-3.08
			c-12.66,7.76-24.15,17.82-33.83,31.48c-0.27,1.64,0.35,2.36,1.58,2.45h66.42c3.05-2.27,3.56-5.12,2.02-8.44
			c-8.01-5.84-15.3-12.95-21.43-22.11C892.59,604.68,892.19,604.43,891.72,604.37z"/>
		<path class="st9" d="M889.22,568.61c3.39,0.18,6.53,1.29,9.18,3.07c0,0,0.53,0.11,1.01-0.12c21.54-10.19,48.29-43.2,54.54-62.77
			c-0.17-1.14-0.7-1.7-1.53-1.78l-87.77,0.12c-0.73,0-1.16,0.81-0.77,1.42c10.64,16.35,19.86,34.5,24.04,59.02L889.22,568.61z"/>
		<path class="st9" d="M1088.9,251.05l35.14-30.41l-22.47-25.96l-59.46,51.46l-7.85,9.59c1.26,4.28,1.27,8.59-0.22,12.92l5.87,21.94
			l11.48,41.22l15.43,56.01l27.89,62.7h7.89h0.29l0.25-0.13c1.46-1.43,3.44-2.31,5.62-2.31c4.47,0,8.1,3.71,8.1,8.28
			s-3.63,8.28-8.1,8.28c-2.02,0-3.87-0.76-5.29-2.01l-0.21-0.11h-0.66H977.37v34h152.56l1.11-0.63c1.43-1.27,3.31-2.04,5.38-2.04
			c4.47,0,8.04,4.61,8.04,9.09c0,4.47-3.58,7.52-8.04,7.84c-3.25,0.23-6.16-2.52-6.16-2.52h-55.49v34.33h82.69l0.57-0.46
			c1.44-1.34,3.42-2.06,5.55-2.06c4.47,0,8.17,4,8.17,8.48c0,4.47-3.63,8.1-8.1,8.1c-2.19,0-4.17-0.87-5.63-2.27l-0.56-0.19h-82.69
			v17.16l99.99-0.18l0.6-0.27c1.43-1.28,3.32-2.06,5.4-2.06c4.47,0,8.1,3.63,8.1,8.1s-3.63,8.1-8.1,8.1c-2.25,0-4.28-0.92-5.75-2.39
			l-0.42-0.07l-39.73,0.12l-79.56,0.07l-137.81,0.16l-9.16,5.75c-0.35,4.78-2.66,8.72-5.84,12.27c4.94,6.7,10.08,12.45,15.63,16.05
			l36.38,0"/>
		<path class="st9" d="M1193.26,176.21l-18.15,15.57l22.59,26.71l0.63,0.3c4.3,0.2,7.72,3.75,7.72,8.09c0,4.47-3.63,8.1-8.1,8.1
			c-4.47,0-8.1-3.63-8.1-8.1l-0.27-0.71l-23.23-26.81l-25.96,22.46l13.07,15.1l0.33,0.17c4.03,0.46,7.17,3.89,7.17,8.05
			c0,4.47-3.63,8.1-8.1,8.1s-8.1-3.63-8.1-8.1l-0.06-0.64l-13.07-15.1l-25.27,21.84"/>
		<line class="st9" x1="1097.07" y1="64.18" x2="1085.32" y2="74.32"/>
		<line class="st9" x1="1102.6" y1="70.81" x2="1089.03" y2="82.67"/>
		<line class="st9" x1="1108.09" y1="77.42" x2="1094.64" y2="88.81"/>
		<line class="st9" x1="1113.25" y1="84.1" x2="1100.26" y2="95.45"/>
		<path class="st9" d="M1126.16,99.71l-52.31,45.2l22.45,25.97l36.99-32.01c0.54-0.61,1.9-2.56,1.27-4.58
			c-1.66-7.12-0.6-15.19,2.42-21.32"/>
		<polyline class="st9" points="728.79,1015.96 807.18,1016.03 853.41,1021.31 879.74,1025.63 905.26,1029.69 930.54,1034.02
			955.89,1038.56 983.61,1043.35 		"/>
		<path class="st9" d="M1184.72,168l-51.92,45.06l-22.47-25.96l32.45-28.08l4.54-3.93c1.46-0.94,3.04-1.12,4.71-0.64
			c5.41,2.17,12.28,2.82,22,0.56"/>
		<line class="st9" x1="1060.12" y1="92.94" x2="1083.91" y2="120.68"/>
		<line class="st9" x1="1080.26" y1="90.04" x2="1067.29" y2="101.34"/>
		<line class="st9" x1="1085.93" y1="96.34" x2="1056.74" y2="121.69"/>
		<line class="st9" x1="1059.46" y1="146.01" x2="1033.5" y2="168.47"/>
		<line class="st9" x1="1065.07" y1="152.6" x2="1039.12" y2="175.06"/>
		<line class="st9" x1="1136.99" y1="112.96" x2="1085.18" y2="157.8"/>
		<line class="st9" x1="1070.59" y1="158.99" x2="1044.63" y2="181.45"/>
		<line class="st9" x1="1076.46" y1="165.39" x2="1050.5" y2="187.86"/>
		<line class="st9" x1="1041.59" y1="195.42" x2="1016.23" y2="217.37"/>
		<line class="st9" x1="1036.06" y1="188.91" x2="1010.98" y2="210.62"/>
		<line class="st9" x1="1030.24" y1="182.45" x2="1017.27" y2="193.67"/>
		<line class="st9" x1="1060.83" y1="129.69" x2="1091.67" y2="103.03"/>
		<polyline class="st9" points="1036.42,145.62 1063.33,176.83 1074.56,189.82 		"/>
		<line class="st9" x1="1069.75" y1="170.93" x2="1081" y2="184.07"/>
		<line class="st9" x1="1056.93" y1="182.36" x2="1068.18" y2="195.5"/>
		<line class="st9" x1="1053.84" y1="139.52" x2="1040.83" y2="150.91"/>
		<line class="st9" x1="1080.46" y1="139.2" x2="1102.81" y2="165.25"/>
		<line class="st9" x1="1086.71" y1="133.79" x2="1109.29" y2="159.63"/>
		<line class="st9" x1="1093.25" y1="127.91" x2="1115.83" y2="153.75"/>
		<line class="st9" x1="1099.86" y1="122.38" x2="1122.43" y2="148.23"/>
		<line class="st9" x1="1128.75" y1="142.79" x2="1106.34" y2="116.9"/>
		<line class="st9" x1="1112.74" y1="111.17" x2="1124.04" y2="124.24"/>
		<line class="st9" x1="1119.44" y1="105.59" x2="1130.74" y2="118.66"/>
		<polyline class="st9" points="1013.67,189.35 1028.57,206.79 1039.92,219.67 		"/>
		<line class="st9" x1="1022.03" y1="212.32" x2="1033.25" y2="225.44"/>
		<line class="st9" x1="995.16" y1="225.16" x2="1010.62" y2="243.02"/>
		<line class="st9" x1="991.06" y1="233.59" x2="1003.04" y2="247.38"/>
		<line class="st9" x1="986.74" y1="241.57" x2="997.92" y2="254.71"/>
		<line class="st9" x1="1035.13" y1="201.03" x2="1046.35" y2="214.14"/>
		<line class="st9" x1="982.26" y1="250.44" x2="982.26" y2="268.94"/>
		<line class="st9" x1="973.57" y1="250.7" x2="973.57" y2="268.94"/>
		<line class="st9" x1="964.88" y1="251.03" x2="964.88" y2="268.64"/>
		<line class="st9" x1="956.29" y1="251.03" x2="956.29" y2="268.77"/>
		<line class="st9" x1="947.71" y1="251.61" x2="947.71" y2="268.77"/>
		<line class="st9" x1="906.67" y1="258.02" x2="923.63" y2="263.98"/>
		<line class="st9" x1="902.9" y1="266.1" x2="920.93" y2="272.44"/>
		<line class="st9" x1="899.2" y1="273.99" x2="918" y2="280.45"/>
		<line class="st9" x1="895.75" y1="281.8" x2="915.06" y2="288.55"/>
		<line class="st9" x1="892.88" y1="289.98" x2="912.19" y2="296.75"/>
		<line class="st9" x1="890.25" y1="298.14" x2="909.42" y2="304.95"/>
		<line class="st9" x1="887.57" y1="306.29" x2="906.67" y2="313.03"/>
		<line class="st9" x1="884.96" y1="314.51" x2="903.8" y2="320.99"/>
		<line class="st9" x1="882.37" y1="322.65" x2="900.99" y2="329.21"/>
		<line class="st9" x1="879.71" y1="330.77" x2="898.35" y2="337.38"/>
		<line class="st9" x1="877.08" y1="338.91" x2="895.34" y2="345.43"/>
		<line class="st9" x1="874.47" y1="346.98" x2="892.74" y2="353.43"/>
		<line class="st9" x1="871.76" y1="355.39" x2="889.75" y2="361.37"/>
		<line class="st9" x1="869.12" y1="363.57" x2="886.94" y2="369.73"/>
		<line class="st9" x1="866.58" y1="371.68" x2="884.14" y2="377.78"/>
		<line class="st9" x1="863.85" y1="379.88" x2="881.27" y2="386.1"/>
		<line class="st9" x1="861.28" y1="388.1" x2="878.59" y2="393.98"/>
		<line class="st9" x1="858.59" y1="396.16" x2="875.71" y2="402.09"/>
		<line class="st9" x1="856" y1="404.28" x2="872.9" y2="410.25"/>
		<line class="st9" x1="853.34" y1="412.41" x2="870.01" y2="418.27"/>
		<line class="st9" x1="850.67" y1="420.93" x2="867.12" y2="426.86"/>
		<line class="st9" x1="848.12" y1="428.84" x2="864.37" y2="434.56"/>
		<line class="st9" x1="845.56" y1="437.06" x2="861.78" y2="442.76"/>
		<line class="st9" x1="844.34" y1="464.22" x2="844.34" y2="496.67"/>
		<line class="st9" x1="861.5" y1="462.37" x2="861.5" y2="496.67"/>
		<path class="st9" d="M852.92,496.85l-0.14-17.16l0.62-17.49l0.49,0l102.02,0.13v34.33h-126.6l-0.54-0.29
			c-1.43-1.27-3.31-2.03-5.37-2.03c-4.47,0-8.1,3.63-8.1,8.1s3.63,8.1,8.1,8.1c2.19,0,4.42-0.82,5.87-2.23l0.22-0.06l21.09,0
			c8.06,9.66,14.44,21.34,19.73,34.33l-67.34,0.09l-0.33-0.24c-1.47-1.5-3.52-2.44-5.79-2.44c-4.47,0-8.1,3.63-8.1,8.1
			c0,4.47,3.63,8.1,8.1,8.1c2.11,0,4.03-0.81,5.47-2.13l0.64-0.24l71.21,0.36c1.43,4.17,2.51,8.67,3.34,13.41l0.25,1.83
			c-5.51,3.15-8.55,8.54-9.62,15.72l-5.25,3.36l-84.83,0.05l-0.33-0.34c-1.44-1.31-3.35-2.11-5.46-2.11c-4.47,0-8.1,3.63-8.1,8.1
			s3.63,8.1,8.1,8.1c1.99,0,3.82-0.72,5.23-1.92l0.45-0.43l70.12,0.14c-11.23,10.41-20.51,21.77-27.29,34.33h-66.43l-0.29-0.21
			c-1.45-1.39-3.43-2.24-5.6-2.24c-4.47,0-8.1,3.63-8.1,8.1c0,4.47,3.63,8.1,8.1,8.1c2.13,0,4.08-0.83,5.52-2.17l0.17,0.01h60.91
			c-4.81,11.53-8.26,22.99-9.72,34.33l-66.4,0l-0.17-0.22c-1.46-1.41-3.45-2.29-5.64-2.29c-4.47,0-8.1,3.63-8.1,8.1
			c0,4.47,3.63,8.1,8.1,8.1c2.16,0,4.09-0.73,5.54-2.1l0.39,0l65.13,0c-0.4,12.22-0.13,24.46,0.8,36.71h-76.05l-0.38-0.09
			c-1.45-1.38-3.41-2.22-5.57-2.22c-4.47,0-8.1,3.63-8.1,8.1c0,4.47,3.63,8.1,8.1,8.1c2.28,0,4.34-0.94,5.81-2.46l0.14-0.09
			l77.13,0.24l4.14,27.22c-2.04,2.19-3.35,4.58-4.18,7.11h-86.21l-0.39-0.22c-1.46-1.41-3.44-2.27-5.62-2.27
			c-4.47,0-8.1,3.63-8.1,8.1c0,4.47,3.63,8.1,8.1,8.1c2.2,0,4.25-0.7,5.71-2.12h0.31h85.87c2.56,5.37,6.51,9.4,11.97,11.99
			l7.15,22.34h-98.54h-0.69l-0.31-0.24c-1.46-1.42-3.45-2.29-5.65-2.29c-4.47,0-8.1,3.63-8.1,8.1c0,4.47,3.53,8.39,8,8.39
			c2.2,0,4.29-0.76,5.75-2.18l0.37-0.19h0.6h13.67V908h-2.07l-0.34-0.22c-1.44-1.34-3.38-2.16-5.5-2.16c-4.47,0-8.1,3.63-8.1,8.1
			s3.63,8.1,8.1,8.1c2.07,0,3.95-0.77,5.38-2.04l0.47-0.19h100.88l-0.83,17.16l-1.78,17.17h-92.75H743l-0.32-0.22
			c-1.44-1.33-3.37-2.14-5.48-2.14c-4.47,0-8.1,3.63-8.1,8.1c0,4.47,3.63,8.1,8.1,8.1c2.08,0,3.97-0.78,5.4-2.06l0.4-0.19h0.38
			h90.99c-1.59,10.78-4.35,22.32-7.84,34.33h-97.74"/>
		<line class="st9" x1="870.08" y1="462.22" x2="870.08" y2="496.85"/>
		<line class="st9" x1="878.85" y1="462.24" x2="878.85" y2="496.85"/>
		<line class="st9" x1="887.38" y1="462.46" x2="887.38" y2="496.53"/>
		<line class="st9" x1="895.91" y1="462.26" x2="895.91" y2="496.57"/>
		<line class="st9" x1="904.54" y1="462.2" x2="904.54" y2="496.53"/>
		<line class="st9" x1="912.76" y1="462.3" x2="912.76" y2="496.67"/>
		<line class="st9" x1="921.6" y1="462.53" x2="921.6" y2="496.85"/>
		<line class="st9" x1="930.22" y1="462.3" x2="930.22" y2="496.67"/>
		<line class="st9" x1="938.67" y1="462.31" x2="938.67" y2="496.93"/>
		<line class="st9" x1="947.29" y1="462.31" x2="947.29" y2="496.85"/>
		<line class="st9" x1="985.75" y1="462.22" x2="985.75" y2="496.85"/>
		<line class="st9" x1="994.52" y1="462.24" x2="994.52" y2="496.85"/>
		<line class="st9" x1="1003.05" y1="462.46" x2="1003.05" y2="496.53"/>
		<line class="st9" x1="1011.58" y1="462.26" x2="1011.58" y2="496.57"/>
		<line class="st9" x1="1020.21" y1="462.2" x2="1020.21" y2="496.53"/>
		<line class="st9" x1="1028.43" y1="462.3" x2="1028.43" y2="496.67"/>
		<line class="st9" x1="1037.27" y1="462.53" x2="1037.27" y2="496.85"/>
		<line class="st9" x1="1045.89" y1="462.3" x2="1045.89" y2="496.67"/>
		<line class="st9" x1="1003.22" y1="416.29" x2="1003.22" y2="450.91"/>
		<line class="st9" x1="1011.75" y1="416.52" x2="1011.75" y2="450.58"/>
		<line class="st9" x1="1020.28" y1="416.31" x2="1020.28" y2="450.63"/>
		<line class="st9" x1="986.16" y1="416.29" x2="986.16" y2="450.91"/>
		<line class="st9" x1="994.69" y1="416.52" x2="994.69" y2="450.58"/>
		<line class="st9" x1="1028.91" y1="416.26" x2="1028.91" y2="450.58"/>
		<line class="st9" x1="1037.13" y1="416.36" x2="1037.13" y2="450.72"/>
		<line class="st9" x1="1045.97" y1="416.59" x2="1045.97" y2="450.91"/>
		<line class="st9" x1="1011.7" y1="370.52" x2="1011.7" y2="404.83"/>
		<line class="st9" x1="1020.32" y1="370.46" x2="1020.32" y2="404.79"/>
		<line class="st9" x1="1028.54" y1="370.56" x2="1028.54" y2="404.93"/>
		<line class="st9" x1="986.27" y1="387.79" x2="986.27" y2="404.83"/>
		<line class="st9" x1="1046.34" y1="387.79" x2="1046.34" y2="404.83"/>
		<line class="st9" x1="994.89" y1="370.46" x2="994.89" y2="404.79"/>
		<line class="st9" x1="1003.11" y1="370.56" x2="1003.11" y2="404.93"/>
		<line class="st9" x1="1037.38" y1="370.79" x2="1037.38" y2="405.12"/>
		<line class="st9" x1="1054.59" y1="416.36" x2="1054.59" y2="450.72"/>
		<line class="st9" x1="895.95" y1="416.29" x2="895.95" y2="450.91"/>
		<line class="st9" x1="904.49" y1="416.52" x2="904.49" y2="450.58"/>
		<line class="st9" x1="913.02" y1="416.31" x2="913.02" y2="450.63"/>
		<line class="st9" x1="887.42" y1="416.52" x2="887.42" y2="450.58"/>
		<line class="st9" x1="921.64" y1="416.26" x2="921.64" y2="450.58"/>
		<line class="st9" x1="929.86" y1="416.36" x2="929.86" y2="450.72"/>
		<line class="st9" x1="938.7" y1="416.59" x2="938.7" y2="450.91"/>
		<line class="st9" x1="947.33" y1="416.36" x2="947.33" y2="450.72"/>
		<line class="st9" x1="930.19" y1="387.64" x2="930.19" y2="404.74"/>
		<line class="st9" x1="939.03" y1="387.75" x2="939.03" y2="404.83"/>
		<line class="st9" x1="947.65" y1="387.64" x2="947.65" y2="404.74"/>
		<line class="st9" x1="904.28" y1="387.64" x2="904.28" y2="404.74"/>
		<line class="st9" x1="913.12" y1="387.75" x2="913.12" y2="404.83"/>
		<line class="st9" x1="921.75" y1="387.64" x2="921.75" y2="404.74"/>
		<line class="st9" x1="1020.09" y1="341.42" x2="1020.09" y2="358.52"/>
		<line class="st9" x1="1028.93" y1="341.54" x2="1028.93" y2="358.62"/>
		<line class="st9" x1="1037.56" y1="341.42" x2="1037.56" y2="358.52"/>
		<line class="st9" x1="994.19" y1="341.42" x2="994.19" y2="358.52"/>
		<line class="st9" x1="1003.03" y1="341.54" x2="1003.03" y2="358.62"/>
		<line class="st9" x1="1011.66" y1="341.42" x2="1011.66" y2="358.52"/>
		<line class="st9" x1="1063.34" y1="433.69" x2="1063.34" y2="450.6"/>
		<line class="st9" x1="1054.34" y1="462.31" x2="1054.34" y2="496.93"/>
		<line class="st9" x1="1083.76" y1="508.08" x2="1083.76" y2="542.71"/>
		<line class="st9" x1="1092.54" y1="508.09" x2="1092.54" y2="542.71"/>
		<line class="st9" x1="1101.07" y1="508.31" x2="1101.07" y2="542.38"/>
		<line class="st9" x1="1109.6" y1="508.11" x2="1109.6" y2="542.42"/>
		<line class="st9" x1="1118.22" y1="508.05" x2="1118.22" y2="542.38"/>
		<line class="st9" x1="1020.16" y1="508.22" x2="1020.16" y2="542.51"/>
		<line class="st9" x1="1028.93" y1="508.23" x2="1028.93" y2="542.61"/>
		<line class="st9" x1="1003.2" y1="508.22" x2="1003.2" y2="542.51"/>
		<line class="st9" x1="1011.97" y1="508.23" x2="1011.97" y2="542.61"/>
		<line class="st9" x1="1037.46" y1="508.46" x2="1037.46" y2="542.48"/>
		<line class="st9" x1="1045.99" y1="508.25" x2="1045.99" y2="542.53"/>
		<line class="st9" x1="1054.62" y1="508.2" x2="1054.62" y2="542.48"/>
		<line class="st9" x1="1126.44" y1="508.15" x2="1126.44" y2="542.52"/>
		<line class="st9" x1="1135.28" y1="510.7" x2="1135.28" y2="542.71"/>
		<line class="st9" x1="1143.91" y1="525.63" x2="1143.91" y2="542.52"/>
		<line class="st9" x1="1152.36" y1="525.42" x2="1152.36" y2="542.78"/>
		<line class="st9" x1="1062.96" y1="462.31" x2="1062.96" y2="496.85"/>
		<line class="st9" x1="1071.99" y1="462.3" x2="1071.99" y2="496.67"/>
		<line class="st9" x1="1080.44" y1="462.31" x2="1080.44" y2="496.93"/>
		<line class="st9" x1="1089.06" y1="462.31" x2="1089.06" y2="496.85"/>
		<line class="st9" x1="1097.57" y1="462.3" x2="1097.57" y2="496.67"/>
		<line class="st9" x1="1106.02" y1="464.09" x2="1106.02" y2="496.53"/>
		<line class="st9" x1="1114.64" y1="462.06" x2="1114.64" y2="496.53"/>
		<line class="st9" x1="1123.47" y1="479.28" x2="1123.47" y2="496.67"/>
		<line class="st9" x1="955.82" y1="479.62" x2="827.71" y2="479.62"/>
		<line class="st9" x1="814.37" y1="554.09" x2="814.37" y2="588.71"/>
		<line class="st9" x1="822.9" y1="554.31" x2="822.9" y2="588.38"/>
		<line class="st9" x1="797.16" y1="556.2" x2="797.16" y2="588.71"/>
		<line class="st9" x1="788.5" y1="571.57" x2="788.5" y2="588.71"/>
		<line class="st9" x1="780.06" y1="571.54" x2="780.06" y2="588.71"/>
		<line class="st9" x1="805.69" y1="553.98" x2="805.69" y2="588.38"/>
		<line class="st9" x1="831.43" y1="554.11" x2="831.43" y2="588.42"/>
		<line class="st9" x1="840.06" y1="554.05" x2="840.06" y2="588.38"/>
		<line class="st9" x1="848.28" y1="554.15" x2="848.28" y2="588.52"/>
		<line class="st9" x1="857.12" y1="554.38" x2="857.12" y2="588.71"/>
		<line class="st9" x1="933.64" y1="582.89" x2="933.64" y2="617.25"/>
		<line class="st9" x1="942.48" y1="582.92" x2="942.48" y2="617.24"/>
		<line class="st9" x1="916.43" y1="583.59" x2="916.43" y2="615.81"/>
		<line class="st9" x1="925.26" y1="582.92" x2="925.26" y2="617.24"/>
		<line class="st9" x1="865.74" y1="554.17" x2="865.74" y2="571.56"/>
		<line class="st9" x1="1054.66" y1="554.05" x2="1054.66" y2="571.45"/>
		<line class="st9" x1="1045.97" y1="554.05" x2="1045.97" y2="571.45"/>
		<line class="st9" x1="1037.49" y1="554.05" x2="1037.49" y2="571.45"/>
		<line class="st9" x1="1028.81" y1="554.05" x2="1028.81" y2="571.45"/>
		<line class="st9" x1="1020.46" y1="554.05" x2="1020.46" y2="571.45"/>
		<line class="st9" x1="1011.78" y1="554.05" x2="1011.78" y2="571.45"/>
		<line class="st9" x1="1003.29" y1="554.05" x2="1003.29" y2="571.45"/>
		<line class="st9" x1="994.61" y1="554.05" x2="994.61" y2="571.45"/>
		<line class="st9" x1="986.05" y1="554.05" x2="986.05" y2="571.45"/>
		<line class="st9" x1="977.37" y1="554.05" x2="977.37" y2="571.45"/>
		<line class="st9" x1="1152.21" y1="554.05" x2="1152.21" y2="571.45"/>
		<line class="st9" x1="1160.64" y1="556.2" x2="1160.64" y2="571.45"/>
		<line class="st9" x1="1143.73" y1="554.05" x2="1143.73" y2="571.45"/>
		<line class="st9" x1="1135.05" y1="554.05" x2="1135.05" y2="571.45"/>
		<line class="st9" x1="1126.7" y1="554.05" x2="1126.7" y2="571.45"/>
		<line class="st9" x1="1118.01" y1="554.05" x2="1118.01" y2="571.45"/>
		<line class="st9" x1="1109.53" y1="554.05" x2="1109.53" y2="571.45"/>
		<line class="st9" x1="1100.85" y1="554.05" x2="1100.85" y2="571.45"/>
		<line class="st9" x1="1092.29" y1="554.05" x2="1092.29" y2="571.45"/>
		<line class="st9" x1="1083.61" y1="554.05" x2="1083.61" y2="571.45"/>
		<line class="st9" x1="1143.44" y1="582.48" x2="1143.44" y2="599.03"/>
		<line class="st9" x1="1160.47" y1="582.5" x2="1160.47" y2="597.75"/>
		<line class="st9" x1="1134.86" y1="582.57" x2="1134.86" y2="599.43"/>
		<line class="st9" x1="1126.27" y1="582.48" x2="1126.27" y2="599.87"/>
		<line class="st9" x1="1117.69" y1="582.67" x2="1117.69" y2="600.06"/>
		<line class="st9" x1="1109.18" y1="582.62" x2="1109.18" y2="600.01"/>
		<line class="st9" x1="1100.53" y1="582.82" x2="1100.53" y2="600.21"/>
		<line class="st9" x1="1092.01" y1="582.62" x2="1092.01" y2="600.59"/>
		<line class="st9" x1="1074.81" y1="582.62" x2="1074.81" y2="601.24"/>
		<line class="st9" x1="1083.36" y1="582.55" x2="1083.36" y2="601.12"/>
		<line class="st9" x1="1063.26" y1="582.6" x2="1063.26" y2="601.55"/>
		<line class="st9" x1="1046.06" y1="582.88" x2="1046.06" y2="602.34"/>
		<line class="st9" x1="1054.62" y1="582.81" x2="1054.62" y2="601.81"/>
		<line class="st9" x1="1037.44" y1="582.86" x2="1037.44" y2="602.62"/>
		<line class="st9" x1="1029.02" y1="582.6" x2="1029.02" y2="602.7"/>
		<line class="st9" x1="1011.82" y1="582.88" x2="1011.82" y2="602.34"/>
		<line class="st9" x1="1020.38" y1="582.81" x2="1020.38" y2="602.7"/>
		<line class="st9" x1="1003.2" y1="582.86" x2="1003.2" y2="601.81"/>
		<line class="st9" x1="994.68" y1="582.6" x2="994.68" y2="601.08"/>
		<line class="st9" x1="977.48" y1="582.88" x2="977.48" y2="599.62"/>
		<line class="st9" x1="986.03" y1="582.81" x2="986.03" y2="600.35"/>
		<line class="st9" x1="968.86" y1="582.86" x2="968.86" y2="598.47"/>
		<line class="st9" x1="959.6" y1="582.86" x2="959.6" y2="598.47"/>
		<line class="st9" x1="950.75" y1="582.86" x2="950.75" y2="600.09"/>
		<line class="st9" x1="968.89" y1="554.05" x2="968.89" y2="571.45"/>
		<line class="st9" x1="960.21" y1="554.05" x2="960.21" y2="571.45"/>
		<line class="st9" x1="874.77" y1="571.47" x2="774.97" y2="571.47"/>
		<line class="st9" x1="958.4" y1="600.16" x2="903.19" y2="600.16"/>
		<line class="st9" x1="771.33" y1="602.23" x2="771.33" y2="634.58"/>
		<line class="st9" x1="779.93" y1="600.31" x2="779.93" y2="634.62"/>
		<line class="st9" x1="788.5" y1="600.25" x2="788.5" y2="634.58"/>
		<line class="st9" x1="797.01" y1="600.35" x2="797.01" y2="634.72"/>
		<line class="st9" x1="805.71" y1="599.92" x2="805.71" y2="634.62"/>
		<line class="st9" x1="814.27" y1="599.86" x2="814.27" y2="634.57"/>
		<line class="st9" x1="822.78" y1="599.96" x2="822.78" y2="617.25"/>
		<line class="st9" x1="832.13" y1="599.96" x2="832.13" y2="617.25"/>
		<line class="st9" x1="754.17" y1="617.4" x2="754.6" y2="634.42"/>
		<line class="st9" x1="739.12" y1="663" x2="739.12" y2="680.33"/>
		<line class="st9" x1="728.59" y1="711.46" x2="728.97" y2="728.46"/>
		<line class="st9" x1="832.13" y1="617.25" x2="750.8" y2="617.25"/>
		<line class="st9" x1="762.8" y1="646.26" x2="762.8" y2="680.32"/>
		<line class="st9" x1="771.36" y1="646.21" x2="771.36" y2="680.28"/>
		<line class="st9" x1="745.6" y1="647.64" x2="745.6" y2="680.32"/>
		<line class="st9" x1="754.6" y1="646" x2="754.16" y2="680.28"/>
		<line class="st9" x1="779.87" y1="646.31" x2="779.87" y2="680.42"/>
		<line class="st9" x1="788.57" y1="645.88" x2="788.57" y2="680.32"/>
		<line class="st9" x1="797.13" y1="645.82" x2="797.13" y2="680.28"/>
		<line class="st9" x1="808.97" y1="663.16" x2="729.58" y2="663.16"/>
		<line class="st9" x1="856.45" y1="646.11" x2="856.45" y2="680.16"/>
		<line class="st9" x1="865.02" y1="646.05" x2="865.02" y2="680.12"/>
		<line class="st9" x1="847.88" y1="646.05" x2="847.44" y2="680.32"/>
		<line class="st9" x1="839.24" y1="663.17" x2="839.22" y2="680.32"/>
		<line class="st9" x1="873.53" y1="646.15" x2="873.53" y2="680.26"/>
		<line class="st9" x1="882.23" y1="645.72" x2="882.23" y2="680.16"/>
		<line class="st9" x1="890.79" y1="645.67" x2="890.79" y2="680.12"/>
		<line class="st9" x1="899.3" y1="646.11" x2="899.3" y2="680.16"/>
		<line class="st9" x1="907.86" y1="646.05" x2="907.86" y2="680.12"/>
		<line class="st9" x1="916.37" y1="646.15" x2="916.37" y2="680.26"/>
		<line class="st9" x1="925.07" y1="645.72" x2="925.07" y2="677.89"/>
		<line class="st9" x1="933.64" y1="645.67" x2="933.64" y2="663.17"/>
		<line class="st9" x1="941.33" y1="663.21" x2="831.32" y2="663.21"/>
		<line class="st9" x1="762.71" y1="692.18" x2="762.71" y2="728.66"/>
		<line class="st9" x1="771.27" y1="692.12" x2="771.27" y2="728.61"/>
		<line class="st9" x1="754.52" y1="691.9" x2="754.07" y2="728.61"/>
		<line class="st9" x1="745.61" y1="691.82" x2="745.61" y2="728.66"/>
		<line class="st9" x1="737.04" y1="693.07" x2="736.6" y2="728.68"/>
		<line class="st9" x1="779.78" y1="692.23" x2="779.78" y2="728.76"/>
		<line class="st9" x1="788.48" y1="691.77" x2="788.48" y2="728.66"/>
		<line class="st9" x1="797.05" y1="691.71" x2="797.05" y2="728.61"/>
		<line class="st9" x1="804.15" y1="711.46" x2="719.62" y2="711.46"/>
		<line class="st9" x1="864.95" y1="691.95" x2="864.95" y2="728.43"/>
		<line class="st9" x1="873.52" y1="691.9" x2="873.52" y2="728.38"/>
		<line class="st9" x1="856.41" y1="691.92" x2="856.32" y2="728.38"/>
		<line class="st9" x1="847.82" y1="691.92" x2="847.85" y2="728.43"/>
		<line class="st9" x1="839.24" y1="691.92" x2="839.24" y2="728.42"/>
		<line class="st9" x1="882.03" y1="692" x2="882.03" y2="728.53"/>
		<line class="st9" x1="890.74" y1="691.92" x2="890.73" y2="728.43"/>
		<line class="st9" x1="899.32" y1="691.92" x2="899.29" y2="728.38"/>
		<line class="st9" x1="907.86" y1="691.92" x2="907.83" y2="726.57"/>
		<line class="st9" x1="916.48" y1="691.92" x2="916.45" y2="711.26"/>
		<line class="st9" x1="926.67" y1="711.22" x2="825.39" y2="711.21"/>
		<line class="st9" x1="754.12" y1="739.97" x2="754.17" y2="774.77"/>
		<line class="st9" x1="762.75" y1="740.22" x2="762.75" y2="774.67"/>
		<line class="st9" x1="745.59" y1="740.22" x2="745.89" y2="774.63"/>
		<line class="st9" x1="737.43" y1="740.03" x2="737.43" y2="774.67"/>
		<line class="st9" x1="728.83" y1="740.07" x2="728.42" y2="774.69"/>
		<line class="st9" x1="719.82" y1="742.08" x2="719.84" y2="774.34"/>
		<line class="st9" x1="771.33" y1="740.11" x2="771.33" y2="774.77"/>
		<line class="st9" x1="780" y1="739.99" x2="780" y2="774.67"/>
		<line class="st9" x1="788.5" y1="739.98" x2="788.5" y2="774.67"/>
		<line class="st9" x1="796.88" y1="739.98" x2="796.88" y2="774.67"/>
		<line class="st9" x1="808.66" y1="757.54" x2="710.61" y2="757.54"/>
		<line class="st9" x1="856.43" y1="740.18" x2="856.47" y2="774.43"/>
		<line class="st9" x1="865.06" y1="740.42" x2="864.99" y2="774.55"/>
		<line class="st9" x1="847.82" y1="740.22" x2="847.82" y2="774.55"/>
		<line class="st9" x1="839.24" y1="740.25" x2="839.24" y2="757.34"/>
		<line class="st9" x1="847.89" y1="786.09" x2="847.89" y2="803.18"/>
		<line class="st9" x1="865.05" y1="832.15" x2="865.05" y2="849.24"/>
		<line class="st9" x1="873.62" y1="832.15" x2="873.62" y2="849.24"/>
		<line class="st9" x1="882.22" y1="832.15" x2="882.22" y2="849.24"/>
		<line class="st9" x1="890.79" y1="834.51" x2="890.79" y2="849.24"/>
		<line class="st9" x1="873.7" y1="890.75" x2="873.7" y2="907.85"/>
		<line class="st9" x1="882.27" y1="890.75" x2="882.27" y2="907.85"/>
		<line class="st9" x1="890.87" y1="890.75" x2="890.87" y2="907.85"/>
		<line class="st9" x1="899.44" y1="890.62" x2="899.44" y2="907.85"/>
		<line class="st9" x1="907.91" y1="890.75" x2="907.91" y2="907.85"/>
		<line class="st9" x1="916.48" y1="890.75" x2="916.48" y2="907.85"/>
		<line class="st9" x1="925.08" y1="890.75" x2="925.08" y2="907.85"/>
		<line class="st9" x1="933.65" y1="890.62" x2="933.65" y2="907.85"/>
		<line class="st9" x1="942.28" y1="890.75" x2="942.28" y2="907.85"/>
		<line class="st9" x1="950.85" y1="890.75" x2="950.85" y2="907.85"/>
		<line class="st9" x1="959.45" y1="890.75" x2="959.45" y2="907.85"/>
		<line class="st9" x1="968.02" y1="890.62" x2="968.02" y2="907.85"/>
		<line class="st9" x1="976.61" y1="890.75" x2="976.61" y2="905.66"/>
		<line class="st9" x1="890.86" y1="786.09" x2="890.86" y2="803.18"/>
		<line class="st9" x1="873.64" y1="740.31" x2="873.57" y2="774.55"/>
		<line class="st9" x1="882.31" y1="740.19" x2="882.31" y2="774.34"/>
		<line class="st9" x1="890.81" y1="740.19" x2="890.74" y2="774.55"/>
		<line class="st9" x1="899.19" y1="740.19" x2="899.32" y2="772.04"/>
		<line class="st9" x1="913.03" y1="757.54" x2="830.66" y2="757.54"/>
		<line class="st9" x1="754.19" y1="785.99" x2="754.23" y2="820.79"/>
		<line class="st9" x1="762.82" y1="786.23" x2="762.82" y2="820.69"/>
		<line class="st9" x1="745.65" y1="786.23" x2="745.96" y2="820.65"/>
		<line class="st9" x1="737.5" y1="786.05" x2="737.5" y2="820.69"/>
		<line class="st9" x1="728.42" y1="786.13" x2="728.48" y2="820.71"/>
		<line class="st9" x1="719.84" y1="786.13" x2="719.9" y2="817.67"/>
		<line class="st9" x1="740.02" y1="874.92" x2="718.27" y2="875.01"/>
		<line class="st9" x1="739.86" y1="883.54" x2="719.12" y2="883.59"/>
		<line class="st9" x1="739.86" y1="891.96" x2="720.55" y2="892.01"/>
		<line class="st9" x1="739.82" y1="866.38" x2="716.74" y2="866.38"/>
		<line class="st9" x1="740" y1="857.57" x2="715.45" y2="857.62"/>
		<line class="st9" x1="739.86" y1="849.15" x2="714.58" y2="849.26"/>
		<line class="st9" x1="740.02" y1="840.56" x2="713.39" y2="840.68"/>
		<line class="st9" x1="785.72" y1="883.53" x2="751.53" y2="883.58"/>
		<line class="st9" x1="837.43" y1="883.45" x2="797.43" y2="883.51"/>
		<line class="st9" x1="785.84" y1="900.82" x2="751.53" y2="900.87"/>
		<line class="st9" x1="838.56" y1="900.75" x2="797.43" y2="900.81"/>
		<line class="st9" x1="785.84" y1="892" x2="751.53" y2="892.05"/>
		<line class="st9" x1="837.98" y1="891.92" x2="797.43" y2="891.98"/>
		<line class="st9" x1="785.84" y1="857.55" x2="751.51" y2="857.61"/>
		<line class="st9" x1="833.9" y1="857.46" x2="797.43" y2="857.53"/>
		<line class="st9" x1="904.24" y1="849.22" x2="854.09" y2="849.29"/>
		<line class="st9" x1="919.55" y1="890.69" x2="859.66" y2="890.76"/>
		<line class="st9" x1="785.84" y1="849.17" x2="751.51" y2="849.26"/>
		<line class="st9" x1="832.16" y1="849.04" x2="797.43" y2="849.13"/>
		<line class="st9" x1="785.84" y1="840.58" x2="751.47" y2="840.68"/>
		<line class="st9" x1="830.21" y1="840.45" x2="797.43" y2="840.54"/>
		<line class="st9" x1="771.4" y1="786.13" x2="771.4" y2="820.79"/>
		<line class="st9" x1="780.07" y1="786.01" x2="780.07" y2="820.69"/>
		<line class="st9" x1="788.56" y1="786" x2="788.56" y2="820.69"/>
		<line class="st9" x1="796.94" y1="786" x2="796.94" y2="820.69"/>
		<line class="st9" x1="856.51" y1="786.03" x2="856.51" y2="820.5"/>
		<line class="st9" x1="865.18" y1="786.33" x2="865.18" y2="820.4"/>
		<line class="st9" x1="873.67" y1="785.98" x2="873.67" y2="820.4"/>
		<line class="st9" x1="882.05" y1="785.98" x2="882.05" y2="820.4"/>
		<line class="st9" x1="805.72" y1="803.08" x2="805.72" y2="820.69"/>
		<line class="st9" x1="814.1" y1="803.08" x2="814.1" y2="820.69"/>
		<line class="st9" x1="819.23" y1="803.39" x2="708.44" y2="803.39"/>
		<line class="st9" x1="771.45" y1="919.5" x2="771.55" y2="953.82"/>
		<line class="st9" x1="780.07" y1="919.75" x2="780.07" y2="953.91"/>
		<line class="st9" x1="762.91" y1="919.75" x2="763.21" y2="953.98"/>
		<line class="st9" x1="754.31" y1="919.5" x2="754.35" y2="953.91"/>
		<line class="st9" x1="745.77" y1="919.75" x2="745.98" y2="953.91"/>
		<polyline class="st9" points="738.02,919.43 737,936.9 737.2,951.56 		"/>
		<line class="st9" x1="788.66" y1="919.64" x2="788.66" y2="953.91"/>
		<line class="st9" x1="797.32" y1="919.52" x2="797.32" y2="953.71"/>
		<line class="st9" x1="805.82" y1="919.51" x2="805.82" y2="953.91"/>
		<line class="st9" x1="814.2" y1="919.51" x2="814.24" y2="953.91"/>
		<line class="st9" x1="822.81" y1="919.51" x2="822.83" y2="953.91"/>
		<line class="st9" x1="831.51" y1="919.51" x2="831.51" y2="937.25"/>
		<line class="st9" x1="837.9" y1="936.75" x2="727.11" y2="936.75"/>
		<line class="st9" x1="899.34" y1="919.5" x2="899.44" y2="953.82"/>
		<line class="st9" x1="907.96" y1="919.75" x2="907.96" y2="953.91"/>
		<line class="st9" x1="890.8" y1="919.75" x2="891.1" y2="953.98"/>
		<line class="st9" x1="882.2" y1="919.5" x2="882.24" y2="953.91"/>
		<line class="st9" x1="873.66" y1="919.75" x2="873.87" y2="953.91"/>
		<line class="st9" x1="916.54" y1="919.64" x2="916.54" y2="953.91"/>
		<line class="st9" x1="925.21" y1="919.52" x2="925.21" y2="953.71"/>
		<line class="st9" x1="933.71" y1="919.51" x2="933.71" y2="953.91"/>
		<line class="st9" x1="942.09" y1="919.51" x2="942.13" y2="953.91"/>
		<line class="st9" x1="950.69" y1="919.51" x2="950.71" y2="953.91"/>
		<line class="st9" x1="959.48" y1="919.55" x2="959.48" y2="953.95"/>
		<line class="st9" x1="967.86" y1="919.55" x2="967.9" y2="953.95"/>
		<line class="st9" x1="976.55" y1="922" x2="976.57" y2="951.17"/>
		<line class="st9" x1="984.74" y1="936.75" x2="859.52" y2="936.75"/>
		<line class="st9" x1="899.34" y1="965.5" x2="899.44" y2="999.82"/>
		<line class="st9" x1="907.96" y1="965.74" x2="907.96" y2="999.91"/>
		<line class="st9" x1="890.8" y1="965.74" x2="891.1" y2="999.98"/>
		<line class="st9" x1="882.2" y1="965.5" x2="882.24" y2="999.91"/>
		<line class="st9" x1="873.66" y1="965.74" x2="873.87" y2="999.91"/>
		<line class="st9" x1="864.95" y1="965.74" x2="865.16" y2="999.91"/>
		<line class="st9" x1="916.54" y1="965.64" x2="916.54" y2="999.91"/>
		<line class="st9" x1="925.21" y1="965.51" x2="925.21" y2="999.7"/>
		<line class="st9" x1="933.71" y1="965.51" x2="933.71" y2="999.91"/>
		<line class="st9" x1="942.09" y1="965.51" x2="942.13" y2="999.91"/>
		<line class="st9" x1="950.69" y1="965.51" x2="950.71" y2="999.91"/>
		<line class="st9" x1="959.48" y1="965.54" x2="959.48" y2="999.94"/>
		<line class="st9" x1="967.86" y1="965.54" x2="967.9" y2="999.94"/>
		<line class="st9" x1="976.55" y1="968" x2="976.57" y2="999.83"/>
		<line class="st9" x1="984.74" y1="982.74" x2="852.93" y2="982.74"/>
		<line class="st9" x1="771.5" y1="965.5" x2="771.61" y2="999.81"/>
		<line class="st9" x1="780.13" y1="965.74" x2="780.13" y2="999.9"/>
		<line class="st9" x1="762.96" y1="965.74" x2="763.27" y2="999.98"/>
		<line class="st9" x1="754.36" y1="965.5" x2="754.41" y2="999.9"/>
		<line class="st9" x1="745.63" y1="965.74" x2="745.93" y2="999.98"/>
		<line class="st9" x1="737.03" y1="967.76" x2="737.07" y2="999.9"/>
		<line class="st9" x1="788.71" y1="965.63" x2="788.71" y2="999.9"/>
		<line class="st9" x1="797.38" y1="965.51" x2="797.38" y2="999.7"/>
		<line class="st9" x1="805.88" y1="965.51" x2="805.88" y2="999.9"/>
		<line class="st9" x1="814.25" y1="965.51" x2="814.3" y2="999.9"/>
		<line class="st9" x1="822.86" y1="965.51" x2="822.88" y2="999.9"/>
		<line class="st9" x1="830.96" y1="982.74" x2="728.71" y2="982.74"/>
		<line class="st9" x1="805.61" y1="525.54" x2="805.61" y2="542.82"/>
		<line class="st9" x1="814.38" y1="525.63" x2="814.38" y2="542.82"/>
		<line class="st9" x1="822.92" y1="510.53" x2="822.92" y2="542.49"/>
		<line class="st9" x1="831.45" y1="508.22" x2="831.45" y2="542.53"/>
		<line class="st9" x1="840.07" y1="508.16" x2="840.07" y2="542.49"/>
		<line class="st9" x1="848.29" y1="525.32" x2="848.29" y2="542.63"/>
		<line class="st9" x1="857.13" y1="525.52" x2="857.13" y2="542.82"/>
		<line class="st9" x1="862.37" y1="525.58" x2="800.75" y2="525.58"/>
		<polygon class="st9" points="955.91,450.75 871.11,450.75 883,416.42 955.91,416.42 		"/>
		<path class="st9" d="M956.31,405.05h-69.27l12.85-37.39c27.56-0.83,48.11-9.56,65.83-21.47
			C960.9,363.3,957.8,382.99,956.31,405.05z"/>
		<polygon class="st9" points="1082.04,450.75 977.36,450.75 977.36,416.42 1066.82,416.42 		"/>
		<path class="st9" d="M1061.69,404.83h-83.87c1.13-12.18,2.51-23.78,4.33-34.33h68.07
			C1053.23,383.48,1056.96,395.11,1061.69,404.83z"/>
		<line class="st9" x1="1116.74" y1="181.56" x2="1138.87" y2="207.44"/>
		<line class="st9" x1="1123.23" y1="175.95" x2="1145.86" y2="201.9"/>
		<line class="st9" x1="1129.93" y1="170.15" x2="1152.15" y2="196.27"/>
		<line class="st9" x1="1136.3" y1="164.63" x2="1159.05" y2="190.78"/>
		<line class="st9" x1="1142.79" y1="159.02" x2="1165.34" y2="185.27"/>
		<line class="st9" x1="1160.64" y1="166.53" x2="1171.62" y2="179.22"/>
		<line class="st9" x1="1167.17" y1="160.8" x2="1178.24" y2="173.75"/>
		<line class="st9" x1="1174.05" y1="155.01" x2="1121.57" y2="200.08"/>
		<line class="st9" x1="1094.92" y1="200.45" x2="1117.56" y2="226.69"/>
		<line class="st9" x1="1088.42" y1="206.07" x2="1110.88" y2="231.89"/>
		<line class="st9" x1="1081.93" y1="211.69" x2="1104.47" y2="237.37"/>
		<line class="st9" x1="1075.62" y1="217.35" x2="1097.9" y2="242.92"/>
		<line class="st9" x1="1055.92" y1="234.19" x2="1069.93" y2="250.21"/>
		<line class="st9" x1="1112.93" y1="207.77" x2="1067.18" y2="247.07"/>
		<line class="st9" x1="1062.84" y1="228.21" x2="1073.63" y2="241.08"/>
		<line class="st9" x1="1068.96" y1="222.7" x2="1080.11" y2="235.45"/>
		<line class="st9" x1="1118.96" y1="240.59" x2="1128.73" y2="252.34"/>
		<line class="st9" x1="1125.14" y1="235.09" x2="1140.39" y2="252.61"/>
		<line class="st9" x1="1198.68" y1="182.63" x2="1180.79" y2="198.21"/>
		<line class="st9" x1="1204.38" y1="189.3" x2="1186.34" y2="204.75"/>
		<line class="st9" x1="1210.09" y1="195.46" x2="1191.96" y2="211.24"/>
		<line class="st9" x1="1215.61" y1="202.13" x2="1197.41" y2="218.14"/>
		<line class="st9" x1="1221.6" y1="208.55" x2="1205.27" y2="222.68"/>
		<line class="st9" x1="1153.29" y1="210.66" x2="1183.25" y2="245.34"/>
		<line class="st9" x1="1172.09" y1="205.88" x2="1145.9" y2="228.45"/>
		<line class="st9" x1="1177.62" y1="212.29" x2="1151.69" y2="234.8"/>
		<line class="st9" x1="1183.2" y1="218.68" x2="1159.15" y2="239.64"/>
		<line class="st9" x1="1189.19" y1="225.38" x2="1175.62" y2="236.83"/>
		<line class="st9" x1="1042.12" y1="246.14" x2="1047.31" y2="252.13"/>
		<line class="st9" x1="1050.03" y1="261.31" x2="1034.87" y2="265.45"/>
		<line class="st9" x1="1052.43" y1="269.62" x2="1035.41" y2="274.26"/>
		<line class="st9" x1="1054.42" y1="277.73" x2="1037.7" y2="282.54"/>
		<line class="st9" x1="1056.85" y1="286.26" x2="1040.15" y2="290.81"/>
		<line class="st9" x1="1059.07" y1="294.43" x2="1042.42" y2="299.09"/>
		<line class="st9" x1="1061.48" y1="302.68" x2="1044.7" y2="307.36"/>
		<line class="st9" x1="1063.72" y1="311.06" x2="1046.93" y2="315.5"/>
		<line class="st9" x1="1065.87" y1="319.36" x2="1049.27" y2="323.91"/>
		<line class="st9" x1="1068.2" y1="327.51" x2="1051.39" y2="332.18"/>
		<line class="st9" x1="1070.35" y1="335.72" x2="1053.93" y2="340.43"/>
		<line class="st9" x1="1072.63" y1="344.19" x2="1056.17" y2="348.68"/>
		<line class="st9" x1="1058.41" y1="357.02" x2="1075.12" y2="352.46"/>
		<line class="st9" x1="1060.86" y1="365.23" x2="1077.18" y2="360.79"/>
		<line class="st9" x1="1062.98" y1="373.43" x2="1079.42" y2="368.88"/>
		<line class="st9" x1="1065.23" y1="382.04" x2="1081.67" y2="377.29"/>
		<line class="st9" x1="1068.84" y1="392.41" x2="1084.56" y2="385.49"/>
		<line class="st9" x1="1072.41" y1="400.34" x2="1088.13" y2="393.27"/>
		<line class="st9" x1="1076.06" y1="408.07" x2="1091.37" y2="401.11"/>
		<line class="st9" x1="1079.31" y1="415.91" x2="1094.83" y2="409.02"/>
		<line class="st9" x1="1082.77" y1="423.8" x2="1098.69" y2="416.81"/>
		<line class="st9" x1="1086.28" y1="431.57" x2="1101.95" y2="424.72"/>
		<line class="st9" x1="1089.71" y1="439.45" x2="1105.46" y2="432.41"/>
		<line class="st9" x1="1131.77" y1="479.3" x2="977.37" y2="479.3"/>
		<line class="st9" x1="1074.46" y1="433.69" x2="977.49" y2="433.69"/>
		<line class="st9" x1="955.91" y1="433.69" x2="877.18" y2="433.69"/>
		<line class="st9" x1="957.8" y1="387.67" x2="893.06" y2="387.67"/>
		<line class="st9" x1="1054.77" y1="387.68" x2="979.62" y2="387.68"/>
		<line class="st9" x1="948.32" y1="280.63" x2="948.32" y2="314.94"/>
		<line class="st9" x1="956.95" y1="280.57" x2="956.95" y2="314.9"/>
		<line class="st9" x1="965.17" y1="280.67" x2="965.17" y2="315.04"/>
		<line class="st9" x1="930.79" y1="297.81" x2="930.79" y2="315.29"/>
		<line class="st9" x1="939.74" y1="280.67" x2="939.74" y2="315.04"/>
		<line class="st9" x1="973.45" y1="280.36" x2="973.45" y2="297.52"/>
		<line class="st9" x1="983.41" y1="297.78" x2="923.95" y2="297.78"/>
		<line class="st9" x1="1063.14" y1="525.52" x2="1003.11" y2="525.52"/>
		<line class="st9" x1="1159.36" y1="525.52" x2="1074.87" y2="525.52"/>
		<path class="st9" d="M957.6,542.51h105.59v-34.26H974.7C970.59,519.5,964.91,530.95,957.6,542.51z"/>
		<circle class="st9" cx="888.26" cy="586.72" r="6.39"/>
		<path class="st9" d="M878.22,604.13c4.08,2.44,8.69,3.33,13.96,2.29c3.05,5.66,12.39,15.25,21.16,21.73
			c0.92,2.53,0.87,4.76-1.43,6.27H846.1C855.73,621.65,866.27,611.14,878.22,604.13z"/>
		<path class="st9" d="M889.05,566.48c3.61,0.21,6.76,1.36,9.69,2.93c23.25-14.57,41.9-33.93,53.01-61.16h-86.77
			C876.95,525.67,885.23,544.95,889.05,566.48z"/>
		<line class="st9" x1="898.11" y1="803.3" x2="841.88" y2="803.3"/>
		<path class="st9" d="M838.85,908h-41.42v-75.95h30.85C834.64,855.53,838.04,880.93,838.85,908z"/>
		<rect x="751.27" y="832.05" class="st9" width="34.57" height="75.95"/>
		<line class="st9" x1="768.71" y1="883.49" x2="768.71" y2="908"/>
		<line class="st9" x1="768.71" y1="832.05" x2="768.71" y2="857.59"/>
		<line class="st9" x1="814.56" y1="883.41" x2="814.56" y2="908"/>
		<line class="st9" x1="814.56" y1="832.05" x2="814.56" y2="857.58"/>
		<line class="st9" x1="751.87" y1="1027.13" x2="753.43" y2="1016.16"/>
		<line class="st9" x1="766.64" y1="1028.38" x2="768.27" y2="1015.9"/>
		<line class="st9" x1="778.58" y1="1029.81" x2="780.09" y2="1016.17"/>
		<line class="st9" x1="789.21" y1="1031.26" x2="791.06" y2="1016.06"/>
		<line class="st9" x1="801.76" y1="1015.97" x2="799.94" y2="1032.47"/>
		<line class="st9" x1="810.77" y1="1016.45" x2="808.83" y2="1033.63"/>
		<line class="st9" x1="819.31" y1="1017.42" x2="817.35" y2="1034.61"/>
		<line class="st9" x1="827.84" y1="1018.39" x2="825.98" y2="1035.51"/>
		<line class="st9" x1="836.46" y1="1019.38" x2="834.41" y2="1036.42"/>
		<line class="st9" x1="844.9" y1="1020.34" x2="842.99" y2="1037.55"/>
		<line class="st9" x1="853.71" y1="1021.31" x2="851.44" y2="1038.61"/>
		<line class="st9" x1="862.82" y1="1022.76" x2="859.94" y2="1039.68"/>
		<line class="st9" x1="871.28" y1="1024.24" x2="868.4" y2="1041.34"/>
		<line class="st9" x1="879.74" y1="1025.63" x2="876.87" y2="1042.55"/>
		<line class="st9" x1="888.2" y1="1026.98" x2="885.33" y2="1044.22"/>
		<line class="st9" x1="896.63" y1="1028.32" x2="893.63" y2="1045.8"/>
		<line class="st9" x1="905.26" y1="1029.69" x2="902.25" y2="1046.86"/>
		<line class="st9" x1="913.61" y1="1031.12" x2="910.54" y2="1048.77"/>
		<line class="st9" x1="922.05" y1="1032.54" x2="919.05" y2="1050.34"/>
		<line class="st9" x1="930.38" y1="1034.02" x2="927.69" y2="1051.4"/>
		<line class="st9" x1="939.04" y1="1035.54" x2="936.1" y2="1052.84"/>
		<line class="st9" x1="947.55" y1="1037.07" x2="944.56" y2="1054.27"/>
		<line class="st9" x1="956.07" y1="1038.56" x2="953.22" y2="1055.71"/>
		<line class="st9" x1="964.35" y1="1040.03" x2="961.48" y2="1057.15"/>
		<line class="st9" x1="972.91" y1="1041.56" x2="969.94" y2="1058.38"/>
		<polyline class="st9" points="983.93,1011.41 865.23,1011.41 983.81,1031.54 		"/>
		<path class="st9" d="M948.99,554.17h114.2v17.16H932.42C938.06,566.22,943.58,560.49,948.99,554.17z"/>
		<path class="st9" d="M1024.83,278.8l22.03,80.12h-62.22c7.55-29.14,18.04-55.46,32.28-78.15
			C1019.55,280.83,1022.19,280.17,1024.83,278.8z"/>
		<path class="st9" d="M1023.04,172.12l32.32,37.53l-28.26,23.98l-12.01-14.28c0.38-2.48-0.39-4.73-2.62-6.69
			c-3.01-2.01-6.1-2.02-9.29,0.57c-1.86,2.07-2.59,4.75-1.18,8.58c1.64,2.31,3.74,3.43,6.27,3.43l12.14,14.1l-5.8,5.06
			c-9.52,0.89-16.7,9.15-15.65,19.73l-5.93,5.95h-58.29l-1.29-3.25c5.76-2.4,6.61-11.46-1.56-13.55c-6.25-0.48-9.43,4.98-6.96,10.6
			l-12.88,37.19l-10.68,30.84l-22.97,66.32l-8,23.09l-10.65,30.73h-6.83c-4.25-4.54-11.06-2.66-12.43,3.78
			c0.15,7.38,7.53,10.14,12.43,5.24l105.12,0v36.9l-128.88,0c-5.44-5.45-12.59-1.29-12.36,4.98c0.67,5.99,7.97,8.75,12.36,4.03
			h22.04c8.42,9.32,15.03,22.24,20.89,36.65l-69.78,0.26c-3.93-4.13-10.64-3.06-12.39,3.46c-0.44,7.12,7.35,10.82,12.39,5.55
			l72.65,0.06l4.15,16.93l-0.53,1.5c-4.86,3.07-8.17,8.38-8.45,14.49l-0.7,1l-4.61,2.93l-87.1,0c-1.51-1.79-3.63-2.67-6.4-2.59
			c-3.05,0.45-4.93,2.53-5.91,5.83c-0.49,3.45,0.56,6.4,5.1,8.21c3.21,0.51,5.52-0.48,7.25-2.44l69.95,0.05
			c1.44,0,2.47,1.38,2.06,2.76l0,0c-11.2,10.47-19.79,21.34-26.37,32.54c-0.41,0.89-0.95,1.56-1.88,1.56h-67.49
			c-1.35-1.47-3.11-2.57-5.95-2.7c-3.95,0.63-5.77,3.01-6.48,6.31c-0.14,4.44,1.89,6.64,5.01,7.71c3.4,0.73,5.63-0.44,7.42-2.31
			l62.31-0.01c0.76,0,1.26,0.79,0.94,1.48c-4.64,10.07-7.12,21.39-9.48,33.43c-0.23,1.16-1.24,2-2.42,2l-66.83,0
			c-1.3-1.68-3.3-2.62-6.37-2.46c-2.88,0.47-4.83,2.11-5.71,5.07c-0.37,1.25-0.38,2.57,0.02,3.81c0.77,2.39,2.19,4.3,5.27,4.96
			c2.89,0.44,5.17-0.44,6.96-2.37l66.28-0.09c0.75,0,1.36,0.63,1.33,1.38c-0.44,12.67-0.25,24.72,1.18,35.5
			c0.04,1.33-1.02,2.42-2.35,2.43l-76.77,0.07c-1.56-1.91-3.76-2.71-6.57-2.43c-3.41,0.59-5.22,2.94-5.86,6.58
			c0.04,3.74,1.58,6.45,5.81,7.28c2.78,0.41,4.92-0.54,6.62-2.42h78.19c0.91,0,1.68,0.67,1.82,1.57l4.16,27.65
			c-2.13,1.95-3.69,4.51-4.65,7.69h-88.64c-1.59-1.92-3.74-2.66-6.35-2.46c-3.78,0.76-5.65,3.23-6.08,6.97c0.3,3.53,2,5.9,5.44,6.85
			c2.71,0.66,4.99-0.32,7-2.34h88.64c1.71,5.86,5.76,9.87,11.51,11.58l7.42,23.02c0.33,1.02-0.43,2.07-1.5,2.07l-100.25,0.23
			c-1.64-1.83-3.76-2.81-6.61-2.47c-3.6,0.73-5.58,3.2-5.8,7.54c0.48,3.46,2.41,5.71,6.19,6.41c2.54,0.21,4.53-0.79,6.22-2.48h16.13
			v78.52h-3.93c-5.28-4.57-12.27-1.99-12.29,4.51c0,5.99,7.56,9.75,12.29,4.51l103.62,0l-2.7,36.9l-95.78,0
			c-4.92-4.89-11.6-2.47-12.43,4.51c1.12,6.95,7.61,9.18,12.43,4.51l94.18-0.2l-8.42,37.77l-98.39-0.66v13.56l76.87,0l47.79,5.55
			l128.28,21.59l0.1-9.12l-126.54-21.65l126.79-0.93l0.1-9l-138.64-0.15l9.54-36.75l116.76,0c5.16,4.32,12.34,2.53,12.34-5.5
			c-1.25-5.9-8.5-7.51-12.34-3.51l-115.95,0l3.46-36.9l112.95,0c4.84,4.4,11.84,2.03,12.26-4.51c-0.98-7.65-8.75-8.15-12.26-4.51
			H858.22c-0.78-28.43-3.79-55.14-10.51-79.01l36.98,0.33c1.53,2.24,3.81,2.89,6.57,2.51c3.59-1.53,5.11-3.89,5.08-6.85
			c-0.3-3.54-2.05-5.89-5.61-6.71c-2.31-0.54-4.45,0.32-6.45,2.2h-36.82c-1.23,0-2.32-0.8-2.69-1.97l-8.77-27.76
			c1.94-1.93,3.27-4.36,4.13-7.17l53.16-0.32c1.77,2.01,4.05,3.17,7.32,2.76c2.71-1.23,4.39-3.45,4.77-6.95
			c0-3.58-1.74-5.77-4.94-6.81c-3.04-0.78-5.08-0.11-7.16,2.3h-53.15c-1.9-5.91-5.41-9.95-11.17-11.37l-3.45-23.42
			c-0.16-1.11,0.7-2.11,1.82-2.11h77.73c4.66,3.81,11.38,2.66,11.89-4.51c0.19-7.48-8.62-8.01-11.89-4.51l-78.87-0.34
			c-1.32-0.01-2.4-1.07-2.41-2.4l-0.37-36.39l96.83-0.15c5.81,4.56,11.63,2.53,12.23-4.69c-0.79-7.23-7.89-8.48-11.92-4.32
			l-94.08,0.07c-0.79,0-1.38-0.72-1.25-1.49c2.26-12.7,5.07-24.15,11.38-34.26c0.35-0.56,0.97-0.89,1.62-0.9l108.88-0.44"/>
		<path class="st9" d="M954.02,618.45l-36.18,0.09l-17.12-17.87l0.44-1.21c3.03-3.07,4.98-7.22,5.21-11.82l9.18-6.01h259.6
			c2.46,2.18,4.93,2.87,7.44,1.71c2.98-1.46,4.76-3.47,4.93-5.92c-0.13-3.45-1.76-5.86-5.52-7.12c-2.66-0.74-4.93,0.12-6.87,2.32
			l-99.74,0.19c-1.47,0-2.01-1.18-2.01-2.65l-0.21-15.18c0-1.25,0.56-2.11,1.8-2.11l83.05,0.01c1.9,1.86,4.13,2.85,6.92,2.36
			c3.94-1.25,5.52-3.74,5.22-7.22c-0.7-4.1-2.98-5.93-6.26-6.35c-2.17-0.1-4.15,0.49-5.88,2.01l-82.75,0c-1.05,0-1.9-0.85-1.9-1.9
			v-33.2c0-1.05,0.85-1.9,1.9-1.9l55.2-0.04c2.84,2.16,4.55,3.01,7.52,2.46c3.41-0.74,4.89-3.64,4.9-7.54
			c-0.31-2.74-1.82-4.57-4.44-5.55c-0.94-0.35-1.95-0.53-2.95-0.51c-1.8,0.04-3.34,0.58-5.59,2.44l-154.71,0v-36.9l128.16,0
			c2.68,2.49,5.34,3.19,7.98,2.04c2.79-1.16,4.37-3.41,4.44-7.02c-0.24-2.8-1.65-5.17-5.74-6.55c-2.7-0.17-5.05,0.39-6.67,2.53
			h-9.62l-28.21-63.98l-19.82-72.08l-12.98-47.54c1.67-4.74,1.44-9.35-0.32-13.85l8.11-9.92l60.6-52.45l24.71,28.55l-34.63,30.15"/>
		<path class="st9" d="M1104.58,251.02l27.09-23.29l14.38,16.36c-0.14,2.65,0.27,5.19,3.49,7.26c2.98,1.23,5.71,1.13,8.08-0.91
			c2.81-2.92,2.56-5.72,1.45-8.48c-1.18-2.49-3.33-3.62-6.21-3.76l-14.35-16.53l27.96-24.3l24.59,28.57
			c-0.07,3.52,1.04,6.01,3.68,7.18c3.27,1.51,5.62,0.8,7.62-0.77c3-2.46,3.51-5.41,1.81-8.81c-1.36-2.33-3.6-3.27-6.29-3.5
			l-24.66-28.85l18.27-15.28l-5.98-6.75l-52.96,45.71l-24.62-28.66l38.43-33.11c1.77-1.04,4-1.05,6.41-0.67
			c6.05,2.28,12.63,2.36,19.63,0.72"/>
		<path class="st9" d="M1138.53,114.93c-2.57,5.78-3.23,11.73-2,17.85c0.41,2.93,0.24,5.62-1.67,7.56l-38.35,33.03l-24.42-28.46
			l52.6-45.62l-5.69-7.03l-13.2,11.43l-20.07-23.1c0.8-6.47-6.42-10.66-11.38-6.45c-4.42,4.48-2.44,11.97,4.56,12.34l19.82,22.98
			l-32.58,28.48l-7.09-8.21c0.31-6.62-5.47-10.07-10.44-7.24c-6.12,4.16-3.98,12.71,3.62,13.13l36.56,42.31v2.24l-25.1,21.82
			l-3,0.05l-33.07-38.4"/>
		<g>
			<path class="st9" d="M947.86,539.46c-0.44,0-0.88-0.13-1.26-0.4c-0.99-0.7-1.23-2.07-0.53-3.06
				c5.62-7.98,10.18-16.31,13.53-24.76c0.45-1.13,1.72-1.68,2.85-1.23c1.13,0.45,1.68,1.72,1.23,2.85
				c-3.48,8.77-8.2,17.4-14.02,25.67C949.22,539.14,948.55,539.46,947.86,539.46z"/>
		</g>
		<g>
			<path class="st9" d="M967.31,401.97c-0.06,0-0.11,0-0.17-0.01c-0.8-0.09-1.38-0.81-1.29-1.62l0.1-0.93
				c1.08-9.65,2.02-17.98,3.51-27.09c0.13-0.8,0.88-1.34,1.68-1.21c0.8,0.13,1.34,0.88,1.21,1.68c-1.48,9.03-2.41,17.33-3.49,26.94
				l-0.1,0.93C968.68,401.42,968.05,401.97,967.31,401.97z"/>
		</g>
		<g>
			<path class="st9" d="M989.2,312.16c-0.17,0-0.34-0.03-0.51-0.09c-0.76-0.28-1.14-1.12-0.86-1.88c2.66-7.14,7.29-15.64,11.9-23.77
				c0.4-0.7,1.29-0.95,2-0.55c0.7,0.4,0.95,1.29,0.55,1.99c-4.55,8.02-9.12,16.4-11.71,23.35
				C990.35,311.79,989.8,312.16,989.2,312.16z"/>
		</g>
		<g>
			<path class="st9" d="M966.42,450.17c-0.02,0-0.05,0-0.07,0c-0.81-0.04-1.43-0.72-1.39-1.53c0.37-7.79,0.31-15.39,0.26-22.73
				c-0.02-2.11-0.03-4.21-0.04-6.31c0-0.81,0.65-1.47,1.46-1.47c0,0,0,0,0,0c0.81,0,1.46,0.65,1.46,1.46
				c0.01,2.1,0.02,4.19,0.04,6.3c0.06,7.38,0.11,15.02-0.26,22.89C967.84,449.56,967.19,450.17,966.42,450.17z"/>
		</g>
		<g>
			<path class="st9" d="M966.6,495.3c-0.02,0-0.05,0-0.07,0c-0.81-0.04-1.43-0.72-1.39-1.53c0.37-7.79,0.31-15.39,0.26-22.73
				c-0.02-2.11-0.03-4.21-0.04-6.31c0-0.81,0.65-1.47,1.46-1.47c0,0,0,0,0,0c0.81,0,1.46,0.65,1.46,1.46
				c0.01,2.1,0.02,4.19,0.04,6.3c0.06,7.38,0.11,15.02-0.26,22.89C968.02,494.69,967.38,495.3,966.6,495.3z"/>
		</g>
		<path class="st10" d="M955.83,540.75c-0.72,1.44,0.33,3.13,1.94,3.13l105.16-0.01c0.96,0,1.74-0.77,1.74-1.73v-33.15
			c0-1.12-0.91-2.03-2.03-2.03h-87.37c-1.61,0-3.09,0.91-3.81,2.36C968.02,520.77,962.84,531.26,955.83,540.75z"/>
		<path class="st9" d="M976.12,314.69h-57.87l11.59-34.33h62.19C985.66,292.67,980.16,304.27,976.12,314.69z"/>
		<path class="st9" d="M978.19,315.5l-59.29,0.47c-1.15,0.01-1.96-1.13-1.58-2.21l11.86-33.54c0.27-0.75,0.97-1.25,1.77-1.25
			l61.29-0.03c1.53,0,2.6,1.64,1.86,2.97C987.01,294.68,981.52,306.06,978.19,315.5z"/>
		<path class="st9" d="M914.23,326.28h57.6c-20.24,17.74-42.56,28.62-67.86,29.63L914.23,326.28z"/>
		<path class="st9" d="M1015.21,279.44c3.77,0.17,7.27-0.59,10.42-2.56l22.49,81.39c0.27,0.98-0.46,1.94-1.48,1.94l-62.45-0.01
			c-1.02,0-1.77-0.96-1.53-1.95C989.51,330.16,1000.1,303.77,1015.21,279.44z"/>
		<line class="st9" x1="1042.18" y1="341.91" x2="989.33" y2="341.91"/>
		<circle class="st9" cx="1016.51" cy="261.88" r="4.15"/>
		<circle class="st9" cx="1016.51" cy="261.88" r="6.34"/>
		<circle class="st9" cx="824.02" cy="780.34" r="4.05"/>
		<circle class="st9" cx="824.02" cy="780.34" r="6.48"/>
		<g>
			<path class="st9" d="M849.84,905.26c-0.78,0-1.42-0.61-1.46-1.4c-1.15-24.95-4.4-47.45-9.68-66.85c-0.21-0.78,0.25-1.58,1.03-1.8
				c0.78-0.22,1.58,0.25,1.8,1.03c5.33,19.62,8.62,42.32,9.78,67.49c0.04,0.81-0.59,1.49-1.39,1.53
				C849.89,905.26,849.86,905.26,849.84,905.26z"/>
		</g>
		<g>
			<path class="st9" d="M847.44,951.03c-0.08,0-0.15-0.01-0.23-0.02c-0.8-0.13-1.34-0.87-1.22-1.67c1.46-9.31,2-16.4,1.94-25.31
				c-0.01-0.81,0.64-1.47,1.45-1.47c0,0,0.01,0,0.01,0c0.8,0,1.46,0.65,1.46,1.45c0.07,9.08-0.48,16.31-1.97,25.79
				C848.77,950.51,848.15,951.03,847.44,951.03z"/>
		</g>
		<g>
			<path class="st9" d="M839.23,994.41c-0.11,0-0.23-0.01-0.34-0.04c-0.79-0.19-1.27-0.98-1.08-1.76l5.43-22.58
				c0.19-0.79,0.98-1.27,1.76-1.08c0.79,0.19,1.27,0.98,1.08,1.76l-5.43,22.58C840.49,993.96,839.89,994.41,839.23,994.41z"/>
		</g>
		<g>
			<path class="st9" d="M834.43,816.48c-0.62,0-1.19-0.4-1.39-1.02l-4.13-12.92c-0.25-0.77,0.18-1.59,0.95-1.84
				c0.77-0.24,1.59,0.18,1.84,0.95l4.13,12.92c0.25,0.77-0.18,1.59-0.95,1.84C834.73,816.46,834.58,816.48,834.43,816.48z"/>
		</g>
		<g>
			<path class="st9" d="M820.07,762.05c-0.7,0-1.32-0.5-1.44-1.22l-2.69-15.88c-0.14-0.8,0.4-1.55,1.2-1.69
				c0.8-0.13,1.55,0.4,1.69,1.2l2.69,15.88c0.14,0.8-0.4,1.55-1.2,1.69C820.24,762.04,820.16,762.05,820.07,762.05z"/>
		</g>
		<g>
			<path class="st9" d="M815.4,725.97c-0.75,0-1.39-0.57-1.46-1.33c-0.89-9.65-0.79-20.37-0.61-28.64c0.02-0.81,0.69-1.43,1.5-1.43
				c0.81,0.02,1.45,0.69,1.43,1.49c-0.18,8.19-0.27,18.81,0.6,28.3c0.07,0.8-0.52,1.52-1.32,1.59
				C815.49,725.96,815.45,725.97,815.4,725.97z"/>
		</g>
		<g>
			<path class="st9" d="M817.02,677.19c-0.1,0-0.19-0.01-0.29-0.03c-0.79-0.16-1.31-0.93-1.15-1.72c1.61-8.02,4.74-18.09,7.97-25.66
				c0.32-0.74,1.17-1.09,1.92-0.77c0.74,0.32,1.09,1.18,0.77,1.92c-3.16,7.4-6.22,17.25-7.79,25.09
				C818.31,676.71,817.7,677.19,817.02,677.19z"/>
		</g>
		<g>
			<path class="st9" d="M838.13,628.71c-0.31,0-0.62-0.1-0.89-0.3c-0.64-0.49-0.77-1.41-0.28-2.05c4.5-5.9,10.6-12.77,16.33-18.39
				c0.58-0.56,1.5-0.56,2.07,0.02c0.57,0.58,0.56,1.5-0.02,2.07c-5.63,5.53-11.63,12.28-16.05,18.08
				C839.01,628.51,838.57,628.71,838.13,628.71z"/>
		</g>
		<path class="st10" d="M913.95,324.99h58.27c0.91,0,1.36,1.12,0.69,1.74c-17.56,16.4-38.47,28.78-68.08,30.72
			c-1.38,0.09-2.41-1.26-1.98-2.58l9.31-28.58C912.41,325.51,913.13,324.99,913.95,324.99z"/>
		<path class="st10" d="M958.39,406.12c0.48-19.63,4.46-39.47,9.59-59.36c0.36-1.4-1.17-2.51-2.39-1.74
			c-22.12,13.91-44.32,21.84-66.62,21.37l-12.93,37.09c-0.45,1.29,0.51,2.63,1.87,2.63H958.39z"/>
		<g>
			<path class="st9" d="M923.84,566.4c-0.74,0-1.46-0.37-1.88-1.05c-0.63-1.04-0.3-2.39,0.73-3.02c2.67-1.63,5.62-4.22,9.29-8.17
				c0.83-0.89,2.21-0.94,3.1-0.12c0.89,0.82,0.94,2.21,0.12,3.1c-3.95,4.25-7.2,7.09-10.22,8.93
				C924.62,566.3,924.23,566.4,923.84,566.4z"/>
		</g>
		<g>
			<path class="st9" d="M1036.39,238.91c-0.61,0-1.22-0.26-1.66-0.75c-0.8-0.91-0.7-2.3,0.21-3.1l55.45-48.27
				c0.92-0.8,2.3-0.7,3.1,0.21c0.8,0.91,0.7,2.3-0.21,3.1l-55.45,48.27C1037.41,238.73,1036.9,238.91,1036.39,238.91z"/>
		</g>
		<g>
			<path class="st9" d="M1105.38,179.16c-0.62,0-1.23-0.26-1.67-0.77c-0.79-0.92-0.68-2.3,0.23-3.09l34.57-29.69
				c0.92-0.79,2.31-0.68,3.09,0.24c0.79,0.92,0.68,2.3-0.23,3.09l-34.57,29.69C1106.4,178.99,1105.89,179.16,1105.38,179.16z"/>
		</g>
		<path class="st11" d="M1162.22,142.27c-1.5,0.48-3.08,0.73-4.62,0.73c-6.11,0-11.07-4.96-11.07-11.07c0-1.95,0.43-3.97,1.22-5.82"
			/>
		<path class="st9" d="M785.65,909.28h-34.29c-0.82,0-1.48-0.66-1.48-1.48v-75.56c0-0.82,0.66-1.48,1.48-1.48h34.29
			c0.82,0,1.48,0.66,1.48,1.48v75.56C787.13,908.62,786.47,909.28,785.65,909.28z"/>
		<path class="st9" d="M839.07,909.28h-41.02c-1.07,0-1.93-0.86-1.93-1.93v-74.96c0-1.14,0.92-2.06,2.06-2.06l30.32,0
			c1.04,0,1.96,0.7,2.23,1.71c6.03,23.03,9.08,48.37,10.47,74.99C841.27,908.25,840.29,909.28,839.07,909.28z"/>
	</g>
</g>
</svg>
